<?xml version="1.0" encoding="UTF-8"?>
<svg xmlns="http://www.w3.org/2000/svg" version="1.1" width="200" height="200" viewBox="0 0 200 200"><rect x="0" y="0" width="200" height="200" fill="#ffffff"/><g transform="scale(6.061)"><g transform="translate(0,0)"><path fill-rule="evenodd" d="M12 0L12 1L13 1L13 2L14 2L14 1L15 1L15 3L8 3L8 4L9 4L9 5L8 5L8 7L9 7L9 8L6 8L6 9L7 9L7 10L6 10L6 11L7 11L7 10L8 10L8 11L9 11L9 10L8 10L8 9L10 9L10 11L11 11L11 9L10 9L10 8L11 8L11 6L10 6L10 4L13 4L13 5L12 5L12 7L13 7L13 6L14 6L14 8L13 8L13 9L14 9L14 10L15 10L15 12L13 12L13 10L12 10L12 13L11 13L11 12L9 12L9 15L8 15L8 12L4 12L4 10L5 10L5 8L0 8L0 12L1 12L1 11L2 11L2 12L3 12L3 13L5 13L5 14L4 14L4 16L5 16L5 15L7 15L7 16L6 16L6 17L7 17L7 18L5 18L5 17L4 17L4 18L5 18L5 22L4 22L4 20L2 20L2 21L1 21L1 20L0 20L0 25L1 25L1 22L2 22L2 21L3 21L3 23L2 23L2 24L5 24L5 25L7 25L7 24L8 24L8 23L10 23L10 24L9 24L9 25L8 25L8 27L9 27L9 28L8 28L8 33L19 33L19 32L20 32L20 33L21 33L21 32L22 32L22 33L23 33L23 32L24 32L24 33L25 33L25 32L24 32L24 31L23 31L23 27L24 27L24 29L27 29L27 30L26 30L26 31L27 31L27 33L28 33L28 32L29 32L29 33L30 33L30 32L31 32L31 33L32 33L32 32L31 32L31 31L32 31L32 30L31 30L31 29L30 29L30 28L32 28L32 29L33 29L33 27L32 27L32 25L31 25L31 27L30 27L30 28L29 28L29 25L30 25L30 24L31 24L31 23L32 23L32 22L33 22L33 21L30 21L30 24L28 24L28 22L27 22L27 21L28 21L28 19L29 19L29 18L30 18L30 20L31 20L31 19L32 19L32 20L33 20L33 19L32 19L32 18L33 18L33 15L32 15L32 14L33 14L33 13L32 13L32 12L31 12L31 11L32 11L32 10L33 10L33 9L32 9L32 8L31 8L31 9L30 9L30 8L29 8L29 12L28 12L28 11L25 11L25 10L27 10L27 9L28 9L28 8L27 8L27 9L26 9L26 8L25 8L25 6L24 6L24 8L25 8L25 9L23 9L23 10L24 10L24 12L25 12L25 13L23 13L23 12L22 12L22 9L21 9L21 8L22 8L22 7L23 7L23 6L22 6L22 5L25 5L25 1L24 1L24 4L20 4L20 3L19 3L19 4L18 4L18 3L16 3L16 1L17 1L17 2L18 2L18 1L20 1L20 2L21 2L21 0L16 0L16 1L15 1L15 0L14 0L14 1L13 1L13 0ZM8 1L8 2L9 2L9 1ZM10 1L10 2L11 2L11 1ZM22 1L22 2L23 2L23 1ZM14 4L14 5L16 5L16 6L15 6L15 7L16 7L16 9L15 9L15 10L17 10L17 12L15 12L15 13L14 13L14 14L13 14L13 16L12 16L12 17L13 17L13 18L14 18L14 19L13 19L13 20L15 20L15 21L13 21L13 22L11 22L11 25L12 25L12 26L11 26L11 27L10 27L10 28L9 28L9 30L10 30L10 29L12 29L12 30L11 30L11 32L12 32L12 31L13 31L13 32L14 32L14 31L15 31L15 30L16 30L16 32L19 32L19 31L20 31L20 32L21 32L21 30L18 30L18 29L19 29L19 28L20 28L20 29L22 29L22 28L21 28L21 27L20 27L20 26L19 26L19 28L18 28L18 27L16 27L16 28L17 28L17 29L13 29L13 28L15 28L15 27L14 27L14 25L12 25L12 24L14 24L14 22L15 22L15 21L17 21L17 22L16 22L16 25L15 25L15 26L17 26L17 25L22 25L22 27L23 27L23 25L24 25L24 24L25 24L25 23L27 23L27 22L23 22L23 21L25 21L25 19L26 19L26 21L27 21L27 19L28 19L28 18L29 18L29 17L27 17L27 16L26 16L26 17L25 17L25 16L23 16L23 17L22 17L22 16L20 16L20 15L21 15L21 14L22 14L22 15L27 15L27 14L28 14L28 15L29 15L29 14L32 14L32 13L31 13L31 12L29 12L29 13L27 13L27 12L26 12L26 13L27 13L27 14L23 14L23 13L22 13L22 12L21 12L21 11L20 11L20 10L19 10L19 13L18 13L18 14L19 14L19 16L20 16L20 17L21 17L21 18L23 18L23 21L22 21L22 20L21 20L21 22L23 22L23 23L24 23L24 24L23 24L23 25L22 25L22 24L21 24L21 23L20 23L20 22L19 22L19 21L20 21L20 18L19 18L19 21L17 21L17 20L18 20L18 17L17 17L17 16L18 16L18 15L17 15L17 16L16 16L16 15L15 15L15 14L16 14L16 13L17 13L17 12L18 12L18 9L17 9L17 8L18 8L18 6L19 6L19 9L20 9L20 6L21 6L21 7L22 7L22 6L21 6L21 5L18 5L18 6L17 6L17 5L16 5L16 4ZM9 6L9 7L10 7L10 6ZM16 6L16 7L17 7L17 6ZM2 9L2 10L3 10L3 9ZM1 13L1 14L2 14L2 15L1 15L1 16L0 16L0 17L1 17L1 18L0 18L0 19L1 19L1 18L2 18L2 19L3 19L3 17L1 17L1 16L2 16L2 15L3 15L3 14L2 14L2 13ZM6 13L6 14L7 14L7 13ZM10 13L10 15L9 15L9 16L7 16L7 17L10 17L10 18L9 18L9 19L8 19L8 18L7 18L7 19L6 19L6 20L7 20L7 19L8 19L8 20L10 20L10 21L8 21L8 22L10 22L10 21L12 21L12 18L11 18L11 16L10 16L10 15L12 15L12 14L11 14L11 13ZM19 13L19 14L21 14L21 13ZM14 15L14 16L13 16L13 17L14 17L14 18L15 18L15 19L16 19L16 20L17 20L17 19L16 19L16 18L17 18L17 17L16 17L16 18L15 18L15 15ZM30 16L30 17L31 17L31 18L32 18L32 17L31 17L31 16ZM23 17L23 18L25 18L25 17ZM26 17L26 19L27 19L27 17ZM10 19L10 20L11 20L11 19ZM6 21L6 22L5 22L5 24L7 24L7 23L6 23L6 22L7 22L7 21ZM17 22L17 23L18 23L18 24L20 24L20 23L19 23L19 22ZM9 25L9 26L10 26L10 25ZM25 25L25 28L28 28L28 25ZM12 26L12 27L11 27L11 28L13 28L13 26ZM26 26L26 27L27 27L27 26ZM28 30L28 31L29 31L29 32L30 32L30 31L29 31L29 30ZM9 31L9 32L10 32L10 31ZM22 31L22 32L23 32L23 31ZM0 0L0 7L7 7L7 0ZM1 1L1 6L6 6L6 1ZM2 2L2 5L5 5L5 2ZM26 0L26 7L33 7L33 0ZM27 1L27 6L32 6L32 1ZM28 2L28 5L31 5L31 2ZM0 26L0 33L7 33L7 26ZM1 27L1 32L6 32L6 27ZM2 28L2 31L5 31L5 28Z" fill="#000000"/></g></g></svg>
