<?xml version="1.0" encoding="UTF-8"?>
<svg xmlns="http://www.w3.org/2000/svg" version="1.1" width="200" height="200" viewBox="0 0 200 200"><rect x="0" y="0" width="200" height="200" fill="#ffffff"/><g transform="scale(6.061)"><g transform="translate(0,0)"><path fill-rule="evenodd" d="M14 0L14 1L15 1L15 2L16 2L16 1L17 1L17 3L18 3L18 4L15 4L15 3L14 3L14 4L12 4L12 3L13 3L13 2L12 2L12 1L11 1L11 2L10 2L10 1L8 1L8 3L9 3L9 4L8 4L8 8L6 8L6 9L8 9L8 8L10 8L10 9L11 9L11 8L10 8L10 7L11 7L11 5L13 5L13 6L12 6L12 7L13 7L13 6L14 6L14 7L15 7L15 6L16 6L16 7L17 7L17 8L13 8L13 10L12 10L12 11L13 11L13 12L12 12L12 13L13 13L13 15L12 15L12 14L11 14L11 13L10 13L10 15L11 15L11 16L10 16L10 17L9 17L9 16L8 16L8 15L9 15L9 14L8 14L8 13L9 13L9 11L11 11L11 10L9 10L9 11L8 11L8 10L5 10L5 9L4 9L4 8L3 8L3 9L4 9L4 13L5 13L5 14L3 14L3 16L2 16L2 15L1 15L1 16L2 16L2 17L0 17L0 18L2 18L2 19L3 19L3 20L4 20L4 21L2 21L2 20L1 20L1 19L0 19L0 21L1 21L1 22L0 22L0 23L1 23L1 24L0 24L0 25L1 25L1 24L3 24L3 23L4 23L4 21L5 21L5 22L6 22L6 23L5 23L5 24L4 24L4 25L7 25L7 24L6 24L6 23L8 23L8 27L9 27L9 26L11 26L11 28L12 28L12 29L11 29L11 30L12 30L12 31L11 31L11 33L12 33L12 32L13 32L13 33L18 33L18 31L19 31L19 29L20 29L20 28L21 28L21 29L23 29L23 28L24 28L24 29L26 29L26 30L24 30L24 31L23 31L23 33L29 33L29 32L30 32L30 31L33 31L33 29L31 29L31 30L30 30L30 31L29 31L29 28L30 28L30 26L31 26L31 27L32 27L32 25L33 25L33 21L32 21L32 23L31 23L31 22L30 22L30 19L32 19L32 20L33 20L33 18L32 18L32 17L31 17L31 18L30 18L30 16L29 16L29 18L28 18L28 19L27 19L27 18L26 18L26 19L25 19L25 18L24 18L24 17L23 17L23 18L22 18L22 15L24 15L24 16L25 16L25 15L24 15L24 14L22 14L22 13L23 13L23 12L21 12L21 13L19 13L19 14L20 14L20 15L21 15L21 16L18 16L18 15L17 15L17 14L16 14L16 13L18 13L18 12L20 12L20 10L21 10L21 11L23 11L23 10L21 10L21 9L20 9L20 8L23 8L23 9L24 9L24 8L23 8L23 6L22 6L22 5L19 5L19 4L20 4L20 3L19 3L19 1L20 1L20 2L23 2L23 5L24 5L24 7L25 7L25 2L24 2L24 1L25 1L25 0L23 0L23 1L20 1L20 0L19 0L19 1L17 1L17 0ZM9 2L9 3L10 3L10 2ZM10 4L10 5L11 5L11 4ZM14 4L14 5L15 5L15 4ZM17 5L17 7L18 7L18 6L19 6L19 8L17 8L17 10L16 10L16 9L15 9L15 12L14 12L14 14L15 14L15 15L16 15L16 16L13 16L13 17L14 17L14 18L13 18L13 19L12 19L12 18L11 18L11 17L12 17L12 16L11 16L11 17L10 17L10 19L9 19L9 18L8 18L8 19L6 19L6 18L7 18L7 17L6 17L6 16L7 16L7 15L6 15L6 14L7 14L7 13L8 13L8 12L7 12L7 11L6 11L6 12L5 12L5 13L6 13L6 14L5 14L5 18L4 18L4 17L2 17L2 18L3 18L3 19L4 19L4 20L9 20L9 21L6 21L6 22L8 22L8 23L10 23L10 24L13 24L13 22L15 22L15 23L14 23L14 25L13 25L13 26L12 26L12 25L11 25L11 26L12 26L12 28L13 28L13 29L17 29L17 30L18 30L18 29L17 29L17 28L15 28L15 27L17 27L17 26L16 26L16 25L17 25L17 24L19 24L19 25L18 25L18 26L19 26L19 27L18 27L18 28L19 28L19 27L24 27L24 25L23 25L23 24L22 24L22 25L21 25L21 24L20 24L20 23L17 23L17 22L18 22L18 20L20 20L20 21L19 21L19 22L20 22L20 21L21 21L21 23L24 23L24 24L26 24L26 23L28 23L28 24L30 24L30 25L32 25L32 24L31 24L31 23L30 23L30 22L29 22L29 20L26 20L26 21L28 21L28 22L26 22L26 23L24 23L24 22L25 22L25 21L23 21L23 20L22 20L22 21L21 21L21 19L22 19L22 18L21 18L21 17L17 17L17 15L16 15L16 14L15 14L15 12L16 12L16 11L17 11L17 12L18 12L18 11L19 11L19 10L20 10L20 9L19 9L19 8L20 8L20 6L19 6L19 5ZM9 6L9 7L10 7L10 6ZM21 6L21 7L22 7L22 6ZM0 8L0 9L1 9L1 10L0 10L0 11L2 11L2 13L3 13L3 11L2 11L2 8ZM26 8L26 9L25 9L25 11L24 11L24 12L25 12L25 14L27 14L27 15L26 15L26 17L27 17L27 16L28 16L28 14L30 14L30 15L32 15L32 16L33 16L33 15L32 15L32 14L33 14L33 9L32 9L32 8L30 8L30 9L32 9L32 11L31 11L31 10L29 10L29 11L27 11L27 9L29 9L29 8ZM13 10L13 11L14 11L14 10ZM17 10L17 11L18 11L18 10ZM25 11L25 12L26 12L26 11ZM30 11L30 12L27 12L27 14L28 14L28 13L31 13L31 14L32 14L32 13L31 13L31 11ZM0 12L0 13L1 13L1 12ZM6 12L6 13L7 13L7 12ZM21 14L21 15L22 15L22 14ZM14 18L14 19L15 19L15 20L13 20L13 21L12 21L12 20L11 20L11 19L10 19L10 20L11 20L11 21L12 21L12 22L13 22L13 21L15 21L15 20L18 20L18 19L19 19L19 18L18 18L18 19L15 19L15 18ZM23 18L23 19L24 19L24 20L25 20L25 19L24 19L24 18ZM29 18L29 19L30 19L30 18ZM2 22L2 23L3 23L3 22ZM28 22L28 23L29 23L29 22ZM15 23L15 24L16 24L16 23ZM14 25L14 26L13 26L13 28L14 28L14 26L15 26L15 25ZM19 25L19 26L21 26L21 25ZM22 25L22 26L23 26L23 25ZM25 25L25 28L28 28L28 25ZM26 26L26 27L27 27L27 26ZM8 29L8 30L9 30L9 31L8 31L8 33L10 33L10 32L9 32L9 31L10 31L10 30L9 30L9 29ZM27 29L27 30L26 30L26 31L25 31L25 32L28 32L28 29ZM13 30L13 32L14 32L14 31L15 31L15 32L16 32L16 30ZM21 31L21 33L22 33L22 31ZM31 32L31 33L32 33L32 32ZM0 0L0 7L7 7L7 0ZM1 1L1 6L6 6L6 1ZM2 2L2 5L5 5L5 2ZM26 0L26 7L33 7L33 0ZM27 1L27 6L32 6L32 1ZM28 2L28 5L31 5L31 2ZM0 26L0 33L7 33L7 26ZM1 27L1 32L6 32L6 27ZM2 28L2 31L5 31L5 28Z" fill="#000000"/></g></g></svg>
