<?xml version="1.0" encoding="UTF-8"?>
<svg xmlns="http://www.w3.org/2000/svg" version="1.1" width="200" height="200" viewBox="0 0 200 200"><rect x="0" y="0" width="200" height="200" fill="#ffffff"/><g transform="scale(6.061)"><g transform="translate(0,0)"><path fill-rule="evenodd" d="M9 0L9 1L10 1L10 2L8 2L8 3L9 3L9 4L10 4L10 5L9 5L9 6L8 6L8 8L4 8L4 9L3 9L3 8L0 8L0 12L1 12L1 10L4 10L4 11L3 11L3 12L2 12L2 14L1 14L1 13L0 13L0 15L2 15L2 17L1 17L1 16L0 16L0 18L1 18L1 20L2 20L2 23L1 23L1 22L0 22L0 23L1 23L1 24L0 24L0 25L1 25L1 24L2 24L2 25L3 25L3 23L4 23L4 24L5 24L5 25L8 25L8 29L9 29L9 28L10 28L10 30L11 30L11 25L10 25L10 27L9 27L9 25L8 25L8 23L7 23L7 22L8 22L8 21L9 21L9 22L10 22L10 23L9 23L9 24L12 24L12 27L13 27L13 29L12 29L12 30L14 30L14 31L13 31L13 32L12 32L12 31L11 31L11 32L10 32L10 31L9 31L9 30L8 30L8 33L9 33L9 32L10 32L10 33L14 33L14 32L16 32L16 31L17 31L17 33L19 33L19 31L17 31L17 30L18 30L18 29L17 29L17 30L16 30L16 31L15 31L15 30L14 30L14 27L13 27L13 26L15 26L15 25L14 25L14 24L16 24L16 25L17 25L17 24L19 24L19 20L21 20L21 21L20 21L20 22L21 22L21 21L22 21L22 20L24 20L24 21L25 21L25 22L24 22L24 23L25 23L25 22L28 22L28 23L27 23L27 24L23 24L23 23L21 23L21 24L20 24L20 26L22 26L22 27L21 27L21 28L20 28L20 27L19 27L19 26L17 26L17 28L18 28L18 27L19 27L19 29L20 29L20 31L21 31L21 33L22 33L22 31L21 31L21 30L24 30L24 31L23 31L23 32L24 32L24 33L26 33L26 30L24 30L24 29L28 29L28 31L27 31L27 32L28 32L28 33L30 33L30 31L31 31L31 33L33 33L33 32L32 32L32 31L33 31L33 30L32 30L32 29L31 29L31 30L30 30L30 29L29 29L29 28L30 28L30 27L29 27L29 26L31 26L31 27L32 27L32 28L33 28L33 26L31 26L31 25L30 25L30 23L31 23L31 24L32 24L32 25L33 25L33 24L32 24L32 23L33 23L33 17L32 17L32 16L33 16L33 12L32 12L32 11L33 11L33 9L32 9L32 10L28 10L28 11L27 11L27 8L25 8L25 10L26 10L26 11L27 11L27 12L25 12L25 11L23 11L23 10L22 10L22 9L23 9L23 8L22 8L22 7L23 7L23 6L24 6L24 7L25 7L25 4L24 4L24 3L25 3L25 2L24 2L24 1L23 1L23 0L21 0L21 1L20 1L20 0L17 0L17 1L18 1L18 2L20 2L20 3L23 3L23 6L22 6L22 5L21 5L21 6L20 6L20 4L19 4L19 3L18 3L18 4L17 4L17 2L16 2L16 0L15 0L15 2L14 2L14 4L13 4L13 5L14 5L14 7L13 7L13 6L12 6L12 5L11 5L11 2L13 2L13 0L12 0L12 1L11 1L11 0ZM21 1L21 2L22 2L22 1ZM15 2L15 3L16 3L16 2ZM23 2L23 3L24 3L24 2ZM16 4L16 6L15 6L15 7L16 7L16 8L14 8L14 9L15 9L15 11L14 11L14 10L13 10L13 11L12 11L12 10L10 10L10 8L9 8L9 9L5 9L5 11L6 11L6 12L7 12L7 11L6 11L6 10L10 10L10 11L9 11L9 13L8 13L8 14L7 14L7 13L6 13L6 14L5 14L5 15L4 15L4 16L5 16L5 17L6 17L6 18L7 18L7 19L6 19L6 20L5 20L5 19L4 19L4 18L2 18L2 19L3 19L3 20L5 20L5 21L4 21L4 22L7 22L7 21L6 21L6 20L10 20L10 21L11 21L11 23L16 23L16 24L17 24L17 23L18 23L18 22L17 22L17 23L16 23L16 22L15 22L15 20L16 20L16 17L15 17L15 16L16 16L16 15L17 15L17 14L18 14L18 13L17 13L17 14L16 14L16 13L15 13L15 11L18 11L18 12L19 12L19 15L18 15L18 16L19 16L19 15L20 15L20 12L21 12L21 11L22 11L22 13L21 13L21 15L22 15L22 14L23 14L23 16L22 16L22 17L21 17L21 18L20 18L20 17L18 17L18 18L17 18L17 19L18 19L18 20L19 20L19 19L24 19L24 20L26 20L26 17L25 17L25 16L26 16L26 13L25 13L25 12L23 12L23 11L22 11L22 10L20 10L20 9L21 9L21 8L19 8L19 7L20 7L20 6L19 6L19 7L18 7L18 5L17 5L17 4ZM10 5L10 6L9 6L9 7L10 7L10 6L11 6L11 7L12 7L12 6L11 6L11 5ZM16 6L16 7L17 7L17 8L16 8L16 9L17 9L17 10L18 10L18 11L19 11L19 12L20 12L20 11L19 11L19 10L18 10L18 9L19 9L19 8L18 8L18 7L17 7L17 6ZM21 6L21 7L22 7L22 6ZM11 8L11 9L13 9L13 8ZM30 8L30 9L31 9L31 8ZM11 11L11 12L12 12L12 13L14 13L14 11L13 11L13 12L12 12L12 11ZM29 11L29 12L27 12L27 14L28 14L28 16L27 16L27 19L28 19L28 20L27 20L27 21L28 21L28 22L29 22L29 23L28 23L28 24L29 24L29 23L30 23L30 22L32 22L32 20L31 20L31 19L30 19L30 18L31 18L31 16L32 16L32 15L29 15L29 13L31 13L31 11ZM3 13L3 14L2 14L2 15L3 15L3 14L4 14L4 13ZM6 14L6 15L7 15L7 14ZM8 14L8 15L10 15L10 14ZM12 14L12 15L13 15L13 18L12 18L12 19L11 19L11 20L12 20L12 21L13 21L13 22L14 22L14 19L15 19L15 17L14 17L14 16L15 16L15 14L14 14L14 15L13 15L13 14ZM24 15L24 16L25 16L25 15ZM6 16L6 17L8 17L8 19L10 19L10 18L11 18L11 17L12 17L12 16ZM28 16L28 17L30 17L30 16ZM9 17L9 18L10 18L10 17ZM18 18L18 19L19 19L19 18ZM24 18L24 19L25 19L25 18ZM28 18L28 19L29 19L29 20L30 20L30 19L29 19L29 18ZM12 19L12 20L13 20L13 19ZM29 21L29 22L30 22L30 21ZM6 23L6 24L7 24L7 23ZM22 24L22 26L24 26L24 25L23 25L23 24ZM25 25L25 28L28 28L28 25ZM26 26L26 27L27 27L27 26ZM15 27L15 28L16 28L16 27ZM22 28L22 29L24 29L24 28ZM29 30L29 31L30 31L30 30ZM0 0L0 7L7 7L7 0ZM1 1L1 6L6 6L6 1ZM2 2L2 5L5 5L5 2ZM26 0L26 7L33 7L33 0ZM27 1L27 6L32 6L32 1ZM28 2L28 5L31 5L31 2ZM0 26L0 33L7 33L7 26ZM1 27L1 32L6 32L6 27ZM2 28L2 31L5 31L5 28Z" fill="#000000"/></g></g></svg>
