<?xml version="1.0" encoding="UTF-8"?>
<svg xmlns="http://www.w3.org/2000/svg" version="1.1" width="200" height="200" viewBox="0 0 200 200"><rect x="0" y="0" width="200" height="200" fill="#ffffff"/><g transform="scale(6.061)"><g transform="translate(0,0)"><path fill-rule="evenodd" d="M9 0L9 1L10 1L10 2L8 2L8 3L9 3L9 4L10 4L10 5L9 5L9 6L8 6L8 8L4 8L4 9L5 9L5 10L6 10L6 11L4 11L4 10L2 10L2 9L3 9L3 8L0 8L0 11L1 11L1 12L0 12L0 14L1 14L1 13L2 13L2 12L3 12L3 11L4 11L4 12L5 12L5 14L4 14L4 13L3 13L3 14L2 14L2 15L4 15L4 16L3 16L3 18L4 18L4 19L2 19L2 20L1 20L1 18L2 18L2 16L1 16L1 15L0 15L0 16L1 16L1 18L0 18L0 21L1 21L1 22L0 22L0 23L1 23L1 24L0 24L0 25L1 25L1 24L3 24L3 25L4 25L4 24L3 24L3 22L5 22L5 23L7 23L7 24L5 24L5 25L8 25L8 29L9 29L9 30L8 30L8 33L11 33L11 32L12 32L12 33L14 33L14 31L15 31L15 32L16 32L16 33L19 33L19 28L21 28L21 29L20 29L20 30L21 30L21 29L22 29L22 27L23 27L23 28L24 28L24 29L23 29L23 30L22 30L22 31L21 31L21 32L20 32L20 33L22 33L22 32L23 32L23 30L26 30L26 29L27 29L27 30L28 30L28 31L27 31L27 32L26 32L26 31L24 31L24 33L25 33L25 32L26 32L26 33L27 33L27 32L28 32L28 33L30 33L30 31L29 31L29 30L30 30L30 27L29 27L29 26L31 26L31 27L33 27L33 26L31 26L31 25L30 25L30 23L31 23L31 24L32 24L32 25L33 25L33 24L32 24L32 23L33 23L33 17L32 17L32 16L33 16L33 12L32 12L32 11L33 11L33 9L32 9L32 10L27 10L27 8L25 8L25 6L24 6L24 8L23 8L23 6L22 6L22 5L25 5L25 2L24 2L24 1L25 1L25 0L22 0L22 1L21 1L21 0L18 0L18 1L16 1L16 0L15 0L15 2L14 2L14 1L13 1L13 0L12 0L12 1L10 1L10 0ZM18 1L18 2L16 2L16 3L15 3L15 4L16 4L16 6L15 6L15 5L14 5L14 6L13 6L13 4L14 4L14 2L13 2L13 3L12 3L12 2L11 2L11 3L12 3L12 4L11 4L11 5L10 5L10 6L9 6L9 7L10 7L10 6L11 6L11 8L12 8L12 6L13 6L13 7L14 7L14 6L15 6L15 8L14 8L14 9L15 9L15 11L14 11L14 14L13 14L13 15L16 15L16 16L14 16L14 17L15 17L15 18L13 18L13 19L12 19L12 18L10 18L10 20L9 20L9 19L6 19L6 18L7 18L7 17L6 17L6 16L8 16L8 17L9 17L9 15L10 15L10 14L11 14L11 15L12 15L12 14L11 14L11 11L13 11L13 9L12 9L12 10L10 10L10 8L9 8L9 10L10 10L10 11L8 11L8 10L7 10L7 9L6 9L6 10L7 10L7 11L6 11L6 12L7 12L7 13L6 13L6 14L7 14L7 15L6 15L6 16L4 16L4 17L6 17L6 18L5 18L5 19L4 19L4 20L2 20L2 22L1 22L1 23L2 23L2 22L3 22L3 21L5 21L5 22L7 22L7 21L6 21L6 20L9 20L9 23L10 23L10 20L11 20L11 24L12 24L12 25L9 25L9 24L8 24L8 25L9 25L9 29L10 29L10 30L9 30L9 31L10 31L10 32L11 32L11 31L13 31L13 29L12 29L12 28L13 28L13 27L14 27L14 26L15 26L15 28L14 28L14 29L15 29L15 28L16 28L16 25L15 25L15 24L16 24L16 23L20 23L20 20L21 20L21 19L22 19L22 18L23 18L23 19L25 19L25 20L22 20L22 21L23 21L23 22L21 22L21 23L22 23L22 25L23 25L23 26L24 26L24 23L25 23L25 24L26 24L26 21L25 21L25 20L27 20L27 23L28 23L28 24L29 24L29 23L30 23L30 22L32 22L32 20L31 20L31 19L30 19L30 18L31 18L31 16L32 16L32 15L29 15L29 16L27 16L27 18L25 18L25 16L26 16L26 13L24 13L24 12L26 12L26 9L25 9L25 11L24 11L24 10L23 10L23 8L22 8L22 9L21 9L21 10L20 10L20 9L18 9L18 10L17 10L17 11L16 11L16 9L17 9L17 7L18 7L18 8L20 8L20 6L19 6L19 4L20 4L20 5L21 5L21 4L22 4L22 2L23 2L23 3L24 3L24 2L23 2L23 1L22 1L22 2L21 2L21 1L20 1L20 3L18 3L18 2L19 2L19 1ZM17 4L17 5L18 5L18 4ZM16 6L16 7L17 7L17 6ZM18 6L18 7L19 7L19 6ZM21 6L21 7L22 7L22 6ZM30 8L30 9L31 9L31 8ZM1 10L1 11L2 11L2 10ZM18 10L18 11L17 11L17 13L16 13L16 15L17 15L17 16L16 16L16 17L17 17L17 16L21 16L21 17L20 17L20 18L22 18L22 16L23 16L23 15L21 15L21 13L22 13L22 12L24 12L24 11L21 11L21 12L20 12L20 11L19 11L19 10ZM15 11L15 12L16 12L16 11ZM18 11L18 12L19 12L19 11ZM28 11L28 12L27 12L27 15L28 15L28 14L29 14L29 13L31 13L31 11ZM8 13L8 14L10 14L10 13ZM19 13L19 15L20 15L20 13ZM17 14L17 15L18 15L18 14ZM10 16L10 17L13 17L13 16ZM29 16L29 17L30 17L30 16ZM17 18L17 19L15 19L15 21L16 21L16 22L18 22L18 21L17 21L17 20L18 20L18 19L19 19L19 20L20 20L20 19L19 19L19 18ZM27 18L27 20L28 20L28 21L29 21L29 22L28 22L28 23L29 23L29 22L30 22L30 21L29 21L29 20L30 20L30 19L29 19L29 20L28 20L28 18ZM5 19L5 20L6 20L6 19ZM11 19L11 20L12 20L12 21L13 21L13 22L12 22L12 23L13 23L13 25L14 25L14 24L15 24L15 22L14 22L14 19L13 19L13 20L12 20L12 19ZM13 22L13 23L14 23L14 22ZM19 25L19 27L18 27L18 26L17 26L17 27L18 27L18 28L19 28L19 27L21 27L21 26L20 26L20 25ZM25 25L25 28L28 28L28 25ZM12 26L12 27L10 27L10 29L11 29L11 28L12 28L12 27L13 27L13 26ZM26 26L26 27L27 27L27 26ZM31 29L31 33L33 33L33 32L32 32L32 31L33 31L33 30L32 30L32 29ZM15 30L15 31L16 31L16 32L17 32L17 31L18 31L18 30L17 30L17 31L16 31L16 30ZM28 31L28 32L29 32L29 31ZM0 0L0 7L7 7L7 0ZM1 1L1 6L6 6L6 1ZM2 2L2 5L5 5L5 2ZM26 0L26 7L33 7L33 0ZM27 1L27 6L32 6L32 1ZM28 2L28 5L31 5L31 2ZM0 26L0 33L7 33L7 26ZM1 27L1 32L6 32L6 27ZM2 28L2 31L5 31L5 28Z" fill="#000000"/></g></g></svg>
