<?xml version="1.0" encoding="UTF-8"?>
<svg xmlns="http://www.w3.org/2000/svg" version="1.1" width="200" height="200" viewBox="0 0 200 200"><rect x="0" y="0" width="200" height="200" fill="#ffffff"/><g transform="scale(6.061)"><g transform="translate(0,0)"><path fill-rule="evenodd" d="M9 0L9 1L8 1L8 2L9 2L9 3L8 3L8 4L10 4L10 7L11 7L11 4L12 4L12 5L13 5L13 6L12 6L12 9L13 9L13 8L14 8L14 9L15 9L15 10L18 10L18 12L19 12L19 13L17 13L17 15L16 15L16 13L12 13L12 11L13 11L13 10L11 10L11 11L10 11L10 9L11 9L11 8L6 8L6 9L5 9L5 8L0 8L0 12L1 12L1 11L2 11L2 10L3 10L3 11L4 11L4 12L3 12L3 13L1 13L1 14L0 14L0 15L2 15L2 14L3 14L3 13L4 13L4 12L5 12L5 11L4 11L4 10L3 10L3 9L5 9L5 10L6 10L6 11L7 11L7 10L8 10L8 9L9 9L9 11L8 11L8 15L9 15L9 13L10 13L10 15L11 15L11 13L12 13L12 14L13 14L13 15L12 15L12 17L13 17L13 16L14 16L14 17L15 17L15 18L18 18L18 19L19 19L19 18L18 18L18 17L19 17L19 16L18 16L18 14L21 14L21 16L20 16L20 17L21 17L21 18L20 18L20 20L19 20L19 21L18 21L18 20L17 20L17 19L16 19L16 20L15 20L15 19L14 19L14 20L15 20L15 21L12 21L12 19L13 19L13 18L11 18L11 16L10 16L10 17L9 17L9 16L8 16L8 18L10 18L10 19L9 19L9 21L8 21L8 27L9 27L9 25L11 25L11 24L9 24L9 23L10 23L10 21L12 21L12 22L13 22L13 23L12 23L12 25L13 25L13 24L14 24L14 25L15 25L15 27L14 27L14 28L15 28L15 29L12 29L12 27L13 27L13 26L10 26L10 28L11 28L11 29L9 29L9 28L8 28L8 33L11 33L11 32L9 32L9 31L10 31L10 30L11 30L11 29L12 29L12 30L13 30L13 31L12 31L12 33L13 33L13 32L14 32L14 33L15 33L15 32L16 32L16 31L15 31L15 29L16 29L16 30L18 30L18 31L19 31L19 30L20 30L20 32L19 32L19 33L20 33L20 32L21 32L21 31L22 31L22 30L23 30L23 33L27 33L27 32L26 32L26 31L25 31L25 32L24 32L24 30L27 30L27 31L28 31L28 30L29 30L29 31L30 31L30 32L29 32L29 33L30 33L30 32L31 32L31 31L30 31L30 29L29 29L29 28L30 28L30 27L33 27L33 25L32 25L32 24L33 24L33 23L32 23L32 22L31 22L31 23L30 23L30 22L29 22L29 21L28 21L28 22L27 22L27 21L26 21L26 19L27 19L27 20L28 20L28 19L27 19L27 18L26 18L26 17L27 17L27 16L28 16L28 17L29 17L29 18L31 18L31 19L32 19L32 18L31 18L31 16L28 16L28 15L31 15L31 14L29 14L29 13L26 13L26 12L29 12L29 11L30 11L30 12L31 12L31 11L32 11L32 10L31 10L31 9L32 9L32 8L31 8L31 9L30 9L30 8L29 8L29 10L28 10L28 8L27 8L27 9L26 9L26 8L25 8L25 6L24 6L24 4L25 4L25 3L24 3L24 2L25 2L25 0L15 0L15 1L17 1L17 2L16 2L16 4L12 4L12 2L13 2L13 1L11 1L11 2L10 2L10 0ZM18 1L18 3L20 3L20 5L21 5L21 7L20 7L20 6L19 6L19 4L16 4L16 5L17 5L17 7L16 7L16 6L15 6L15 7L14 7L14 6L13 6L13 7L14 7L14 8L15 8L15 7L16 7L16 9L17 9L17 8L18 8L18 6L19 6L19 7L20 7L20 9L19 9L19 11L21 11L21 10L22 10L22 12L23 12L23 14L22 14L22 16L23 16L23 17L24 17L24 18L25 18L25 19L26 19L26 18L25 18L25 15L26 15L26 16L27 16L27 15L28 15L28 14L27 14L27 15L26 15L26 14L25 14L25 15L24 15L24 16L23 16L23 14L24 14L24 12L23 12L23 11L25 11L25 12L26 12L26 11L28 11L28 10L26 10L26 9L22 9L22 8L21 8L21 7L22 7L22 4L21 4L21 3L22 3L22 2L23 2L23 1L22 1L22 2L21 2L21 1L20 1L20 2L19 2L19 1ZM14 2L14 3L15 3L15 2ZM20 2L20 3L21 3L21 2ZM10 3L10 4L11 4L11 3ZM23 3L23 4L24 4L24 3ZM8 5L8 7L9 7L9 5ZM23 6L23 8L24 8L24 6ZM6 9L6 10L7 10L7 9ZM25 10L25 11L26 11L26 10ZM30 10L30 11L31 11L31 10ZM14 11L14 12L15 12L15 11ZM16 11L16 12L17 12L17 11ZM6 12L6 13L7 13L7 12ZM10 12L10 13L11 13L11 12ZM5 14L5 15L3 15L3 18L2 18L2 16L0 16L0 25L1 25L1 22L2 22L2 24L3 24L3 25L4 25L4 24L5 24L5 25L7 25L7 24L6 24L6 23L7 23L7 22L6 22L6 21L7 21L7 20L6 20L6 19L7 19L7 18L6 18L6 17L7 17L7 16L5 16L5 15L7 15L7 14ZM14 15L14 16L15 16L15 15ZM4 16L4 18L3 18L3 19L2 19L2 20L1 20L1 21L2 21L2 22L3 22L3 23L5 23L5 22L3 22L3 21L6 21L6 20L3 20L3 19L4 19L4 18L5 18L5 16ZM17 16L17 17L18 17L18 16ZM32 16L32 17L33 17L33 16ZM21 19L21 20L22 20L22 19ZM29 19L29 20L30 20L30 21L31 21L31 20L30 20L30 19ZM16 20L16 21L15 21L15 22L16 22L16 23L14 23L14 24L17 24L17 22L16 22L16 21L17 21L17 20ZM23 20L23 25L22 25L22 21L21 21L21 25L22 25L22 26L20 26L20 25L19 25L19 24L20 24L20 23L19 23L19 24L18 24L18 25L17 25L17 27L18 27L18 28L16 28L16 27L15 27L15 28L16 28L16 29L18 29L18 30L19 30L19 28L24 28L24 27L22 27L22 26L24 26L24 23L25 23L25 24L29 24L29 25L30 25L30 23L26 23L26 21L24 21L24 20ZM31 23L31 24L32 24L32 23ZM18 25L18 27L20 27L20 26L19 26L19 25ZM25 25L25 28L28 28L28 25ZM26 26L26 27L27 27L27 26ZM29 26L29 27L30 27L30 26ZM32 28L32 30L33 30L33 28ZM20 29L20 30L22 30L22 29ZM14 31L14 32L15 32L15 31ZM32 31L32 32L33 32L33 31ZM17 32L17 33L18 33L18 32ZM0 0L0 7L7 7L7 0ZM1 1L1 6L6 6L6 1ZM2 2L2 5L5 5L5 2ZM26 0L26 7L33 7L33 0ZM27 1L27 6L32 6L32 1ZM28 2L28 5L31 5L31 2ZM0 26L0 33L7 33L7 26ZM1 27L1 32L6 32L6 27ZM2 28L2 31L5 31L5 28Z" fill="#000000"/></g></g></svg>
