<?xml version="1.0" encoding="UTF-8"?>
<svg xmlns="http://www.w3.org/2000/svg" version="1.1" width="200" height="200" viewBox="0 0 200 200"><rect x="0" y="0" width="200" height="200" fill="#ffffff"/><g transform="scale(6.061)"><g transform="translate(0,0)"><path fill-rule="evenodd" d="M8 0L8 1L11 1L11 3L10 3L10 2L9 2L9 3L10 3L10 5L9 5L9 6L8 6L8 8L9 8L9 9L10 9L10 10L8 10L8 9L7 9L7 8L6 8L6 9L7 9L7 10L4 10L4 11L7 11L7 12L5 12L5 13L3 13L3 12L2 12L2 11L0 11L0 16L2 16L2 15L3 15L3 17L2 17L2 19L1 19L1 18L0 18L0 20L1 20L1 21L0 21L0 25L4 25L4 24L6 24L6 25L8 25L8 26L9 26L9 27L10 27L10 28L8 28L8 30L9 30L9 31L8 31L8 33L9 33L9 31L10 31L10 32L11 32L11 31L12 31L12 33L15 33L15 31L14 31L14 32L13 32L13 31L12 31L12 30L16 30L16 31L19 31L19 32L20 32L20 28L21 28L21 32L22 32L22 33L25 33L25 32L24 32L24 31L23 31L23 30L22 30L22 29L23 29L23 27L24 27L24 30L25 30L25 31L26 31L26 33L27 33L27 32L28 32L28 33L30 33L30 32L31 32L31 33L32 33L32 31L33 31L33 29L32 29L32 30L31 30L31 31L30 31L30 32L28 32L28 31L29 31L29 30L27 30L27 29L30 29L30 27L31 27L31 23L32 23L32 25L33 25L33 21L32 21L32 20L33 20L33 18L32 18L32 19L31 19L31 20L30 20L30 19L29 19L29 18L31 18L31 17L29 17L29 15L27 15L27 14L25 14L25 11L26 11L26 13L27 13L27 10L25 10L25 11L24 11L24 10L23 10L23 9L25 9L25 6L24 6L24 8L23 8L23 6L22 6L22 5L23 5L23 4L22 4L22 5L21 5L21 1L22 1L22 0L21 0L21 1L20 1L20 2L19 2L19 3L18 3L18 1L19 1L19 0L18 0L18 1L17 1L17 6L16 6L16 7L17 7L17 6L18 6L18 8L15 8L15 5L16 5L16 3L15 3L15 2L16 2L16 0L13 0L13 1L12 1L12 0ZM24 0L24 1L23 1L23 3L24 3L24 4L25 4L25 3L24 3L24 2L25 2L25 0ZM12 2L12 4L14 4L14 5L15 5L15 4L14 4L14 3L13 3L13 2ZM18 4L18 6L19 6L19 11L20 11L20 9L23 9L23 8L22 8L22 6L21 6L21 8L20 8L20 6L19 6L19 4ZM10 5L10 6L9 6L9 7L10 7L10 9L11 9L11 10L10 10L10 11L9 11L9 12L8 12L8 13L6 13L6 14L3 14L3 13L1 13L1 15L2 15L2 14L3 14L3 15L5 15L5 16L4 16L4 17L3 17L3 19L2 19L2 20L3 20L3 19L4 19L4 21L3 21L3 22L2 22L2 21L1 21L1 24L3 24L3 22L5 22L5 23L6 23L6 24L9 24L9 25L10 25L10 27L11 27L11 26L13 26L13 25L11 25L11 24L10 24L10 22L12 22L12 23L13 23L13 22L12 22L12 21L13 21L13 19L12 19L12 18L15 18L15 19L14 19L14 25L15 25L15 26L14 26L14 27L12 27L12 28L10 28L10 29L9 29L9 30L11 30L11 29L14 29L14 28L15 28L15 26L16 26L16 30L19 30L19 28L20 28L20 27L23 27L23 26L24 26L24 25L23 25L23 23L22 23L22 22L24 22L24 23L25 23L25 24L27 24L27 21L28 21L28 22L29 22L29 23L31 23L31 22L32 22L32 21L30 21L30 20L29 20L29 19L28 19L28 18L27 18L27 17L28 17L28 16L26 16L26 19L25 19L25 21L24 21L24 20L22 20L22 22L21 22L21 21L20 21L20 20L21 20L21 18L22 18L22 19L24 19L24 18L25 18L25 15L24 15L24 17L21 17L21 16L22 16L22 15L21 15L21 14L22 14L22 13L23 13L23 14L24 14L24 13L23 13L23 12L24 12L24 11L23 11L23 10L22 10L22 11L21 11L21 12L18 12L18 13L19 13L19 14L18 14L18 16L19 16L19 17L15 17L15 16L17 16L17 15L15 15L15 16L13 16L13 17L12 17L12 18L10 18L10 19L9 19L9 18L8 18L8 20L9 20L9 21L6 21L6 22L5 22L5 19L4 19L4 18L5 18L5 16L9 16L9 15L10 15L10 17L11 17L11 16L12 16L12 15L14 15L14 14L17 14L17 13L16 13L16 12L17 12L17 9L15 9L15 11L16 11L16 12L15 12L15 13L13 13L13 12L14 12L14 9L12 9L12 6L13 6L13 8L14 8L14 6L13 6L13 5L12 5L12 6L11 6L11 5ZM10 6L10 7L11 7L11 6ZM0 8L0 9L2 9L2 10L3 10L3 9L5 9L5 8L3 8L3 9L2 9L2 8ZM26 8L26 9L27 9L27 8ZM32 8L32 10L31 10L31 9L28 9L28 11L29 11L29 12L28 12L28 14L29 14L29 12L31 12L31 13L30 13L30 16L31 16L31 15L32 15L32 16L33 16L33 15L32 15L32 14L33 14L33 12L31 12L31 11L33 11L33 8ZM7 10L7 11L8 11L8 10ZM12 10L12 11L13 11L13 10ZM29 10L29 11L31 11L31 10ZM22 11L22 12L21 12L21 13L22 13L22 12L23 12L23 11ZM9 12L9 13L8 13L8 14L6 14L6 15L8 15L8 14L10 14L10 15L11 15L11 12ZM12 13L12 14L13 14L13 13ZM19 14L19 15L20 15L20 16L21 16L21 15L20 15L20 14ZM6 17L6 18L7 18L7 17ZM16 18L16 19L15 19L15 25L16 25L16 26L17 26L17 25L16 25L16 24L17 24L17 23L16 23L16 21L17 21L17 22L18 22L18 24L19 24L19 23L20 23L20 24L22 24L22 23L20 23L20 21L18 21L18 20L17 20L17 19L19 19L19 20L20 20L20 18ZM6 19L6 20L7 20L7 19ZM10 19L10 21L9 21L9 22L10 22L10 21L12 21L12 19ZM26 19L26 20L27 20L27 19ZM28 20L28 21L29 21L29 20ZM6 22L6 23L8 23L8 22ZM18 25L18 27L17 27L17 29L18 29L18 27L19 27L19 26L20 26L20 25ZM25 25L25 28L28 28L28 25ZM26 26L26 27L27 27L27 26ZM29 26L29 27L30 27L30 26ZM32 26L32 28L33 28L33 26ZM22 31L22 32L23 32L23 31ZM16 32L16 33L18 33L18 32ZM0 0L0 7L7 7L7 0ZM1 1L1 6L6 6L6 1ZM2 2L2 5L5 5L5 2ZM26 0L26 7L33 7L33 0ZM27 1L27 6L32 6L32 1ZM28 2L28 5L31 5L31 2ZM0 26L0 33L7 33L7 26ZM1 27L1 32L6 32L6 27ZM2 28L2 31L5 31L5 28Z" fill="#000000"/></g></g></svg>
