<?xml version="1.0" encoding="UTF-8"?>
<svg xmlns="http://www.w3.org/2000/svg" version="1.1" width="200" height="200" viewBox="0 0 200 200"><rect x="0" y="0" width="200" height="200" fill="#ffffff"/><g transform="scale(4.878)"><g transform="translate(0,0)"><path fill-rule="evenodd" d="M9 0L9 2L10 2L10 3L8 3L8 5L10 5L10 8L9 8L9 9L10 9L10 10L8 10L8 8L5 8L5 9L4 9L4 10L3 10L3 9L2 9L2 8L0 8L0 9L2 9L2 10L1 10L1 11L0 11L0 12L1 12L1 13L0 13L0 14L1 14L1 13L2 13L2 15L3 15L3 16L0 16L0 17L1 17L1 18L0 18L0 21L1 21L1 22L0 22L0 27L1 27L1 28L0 28L0 33L1 33L1 31L2 31L2 33L5 33L5 30L6 30L6 31L7 31L7 30L6 30L6 29L8 29L8 31L9 31L9 32L8 32L8 36L9 36L9 35L10 35L10 34L9 34L9 33L11 33L11 34L13 34L13 33L14 33L14 32L13 32L13 31L14 31L14 30L13 30L13 29L12 29L12 30L11 30L11 31L9 31L9 30L10 30L10 29L11 29L11 28L10 28L10 29L9 29L9 28L8 28L8 27L10 27L10 26L11 26L11 25L10 25L10 24L12 24L12 25L13 25L13 24L12 24L12 23L13 23L13 22L11 22L11 21L13 21L13 20L11 20L11 19L14 19L14 18L15 18L15 19L18 19L18 18L19 18L19 20L17 20L17 21L18 21L18 23L19 23L19 24L21 24L21 23L22 23L22 24L23 24L23 26L21 26L21 25L19 25L19 26L18 26L18 28L19 28L19 26L21 26L21 27L22 27L22 28L23 28L23 31L22 31L22 29L20 29L20 30L19 30L19 29L18 29L18 30L17 30L17 29L16 29L16 30L15 30L15 35L14 35L14 36L12 36L12 35L11 35L11 36L10 36L10 38L9 38L9 39L8 39L8 41L9 41L9 40L10 40L10 41L12 41L12 39L13 39L13 38L14 38L14 37L15 37L15 36L17 36L17 37L16 37L16 38L15 38L15 39L16 39L16 38L18 38L18 39L19 39L19 40L21 40L21 39L23 39L23 37L22 37L22 36L19 36L19 37L18 37L18 36L17 36L17 34L16 34L16 32L17 32L17 33L18 33L18 34L20 34L20 35L22 35L22 34L25 34L25 35L24 35L24 37L25 37L25 35L26 35L26 37L27 37L27 38L24 38L24 40L25 40L25 41L26 41L26 40L25 40L25 39L27 39L27 40L28 40L28 41L30 41L30 40L29 40L29 39L28 39L28 37L29 37L29 38L30 38L30 39L32 39L32 38L33 38L33 37L35 37L35 38L34 38L34 40L33 40L33 41L34 41L34 40L38 40L38 41L39 41L39 39L40 39L40 40L41 40L41 38L39 38L39 37L38 37L38 34L39 34L39 36L40 36L40 37L41 37L41 36L40 36L40 34L39 34L39 33L40 33L40 32L41 32L41 29L40 29L40 28L41 28L41 27L40 27L40 26L41 26L41 23L39 23L39 24L40 24L40 25L39 25L39 27L37 27L37 26L38 26L38 24L37 24L37 25L36 25L36 23L37 23L37 21L36 21L36 22L34 22L34 24L32 24L32 23L31 23L31 22L32 22L32 21L30 21L30 20L31 20L31 19L34 19L34 20L35 20L35 19L36 19L36 20L38 20L38 22L41 22L41 21L40 21L40 20L38 20L38 19L37 19L37 18L39 18L39 19L41 19L41 17L40 17L40 16L41 16L41 15L40 15L40 16L39 16L39 14L41 14L41 12L40 12L40 10L39 10L39 9L38 9L38 8L36 8L36 10L37 10L37 9L38 9L38 11L37 11L37 13L35 13L35 12L34 12L34 13L32 13L32 12L33 12L33 11L34 11L34 10L32 10L32 11L31 11L31 9L30 9L30 8L31 8L31 5L33 5L33 3L32 3L32 2L33 2L33 1L32 1L32 2L31 2L31 0L28 0L28 1L30 1L30 2L31 2L31 3L32 3L32 4L30 4L30 3L29 3L29 2L28 2L28 3L27 3L27 1L26 1L26 0L24 0L24 1L22 1L22 2L21 2L21 1L20 1L20 2L19 2L19 1L18 1L18 2L19 2L19 3L20 3L20 5L22 5L22 4L21 4L21 3L23 3L23 4L25 4L25 3L24 3L24 2L25 2L25 1L26 1L26 3L27 3L27 5L28 5L28 7L27 7L27 6L26 6L26 5L25 5L25 6L24 6L24 7L23 7L23 6L22 6L22 7L23 7L23 9L22 9L22 10L20 10L20 9L18 9L18 8L17 8L17 5L16 5L16 8L15 8L15 9L14 9L14 8L13 8L13 6L12 6L12 5L13 5L13 4L12 4L12 3L13 3L13 2L11 2L11 1L15 1L15 0ZM16 0L16 4L17 4L17 0ZM20 2L20 3L21 3L21 2ZM28 3L28 4L29 4L29 3ZM10 4L10 5L12 5L12 4ZM18 4L18 5L19 5L19 4ZM29 5L29 8L26 8L26 6L25 6L25 7L24 7L24 8L26 8L26 9L23 9L23 10L22 10L22 11L20 11L20 10L18 10L18 11L17 11L17 10L16 10L16 12L14 12L14 11L13 11L13 10L12 10L12 11L8 11L8 12L7 12L7 11L6 11L6 12L5 12L5 11L4 11L4 13L3 13L3 11L1 11L1 12L2 12L2 13L3 13L3 14L4 14L4 13L6 13L6 14L5 14L5 15L4 15L4 16L3 16L3 17L2 17L2 18L1 18L1 20L3 20L3 18L4 18L4 16L5 16L5 19L4 19L4 20L5 20L5 21L6 21L6 22L7 22L7 23L5 23L5 22L4 22L4 21L2 21L2 22L1 22L1 23L2 23L2 24L1 24L1 26L2 26L2 28L3 28L3 26L4 26L4 25L5 25L5 27L6 27L6 28L7 28L7 27L6 27L6 26L9 26L9 24L10 24L10 23L11 23L11 22L10 22L10 23L9 23L9 24L8 24L8 25L6 25L6 24L7 24L7 23L8 23L8 22L9 22L9 20L10 20L10 19L11 19L11 18L13 18L13 16L14 16L14 17L15 17L15 16L14 16L14 15L13 15L13 14L12 14L12 13L13 13L13 12L14 12L14 14L16 14L16 12L18 12L18 13L19 13L19 14L17 14L17 15L16 15L16 16L18 16L18 17L16 17L16 18L18 18L18 17L21 17L21 18L22 18L22 19L20 19L20 20L19 20L19 23L21 23L21 20L22 20L22 19L23 19L23 22L22 22L22 23L23 23L23 24L24 24L24 22L25 22L25 25L26 25L26 23L27 23L27 22L28 22L28 23L29 23L29 24L27 24L27 25L28 25L28 27L27 27L27 26L25 26L25 27L24 27L24 26L23 26L23 27L24 27L24 28L25 28L25 31L24 31L24 32L26 32L26 34L27 34L27 32L26 32L26 31L27 31L27 29L26 29L26 28L28 28L28 31L29 31L29 32L28 32L28 33L29 33L29 35L28 35L28 36L29 36L29 37L30 37L30 38L32 38L32 37L30 37L30 33L31 33L31 34L32 34L32 33L31 33L31 32L35 32L35 31L36 31L36 32L37 32L37 33L39 33L39 32L40 32L40 31L39 31L39 30L40 30L40 29L38 29L38 30L35 30L35 31L34 31L34 30L32 30L32 31L30 31L30 29L29 29L29 28L31 28L31 27L32 27L32 28L33 28L33 29L37 29L37 28L35 28L35 27L36 27L36 25L35 25L35 27L34 27L34 26L33 26L33 25L32 25L32 26L31 26L31 23L29 23L29 22L30 22L30 21L29 21L29 20L30 20L30 18L31 18L31 17L32 17L32 18L34 18L34 17L35 17L35 18L36 18L36 17L38 17L38 14L37 14L37 16L36 16L36 14L33 14L33 15L32 15L32 14L31 14L31 11L30 11L30 10L29 10L29 16L27 16L27 14L28 14L28 13L27 13L27 12L26 12L26 11L27 11L27 9L29 9L29 8L30 8L30 5ZM8 6L8 7L9 7L9 6ZM11 6L11 7L12 7L12 6ZM14 6L14 7L15 7L15 6ZM18 6L18 7L19 7L19 8L20 8L20 7L21 7L21 6L20 6L20 7L19 7L19 6ZM32 6L32 8L33 8L33 6ZM12 8L12 9L13 9L13 8ZM16 8L16 9L17 9L17 8ZM5 9L5 10L7 10L7 9ZM12 11L12 12L13 12L13 11ZM18 11L18 12L19 12L19 11ZM22 11L22 12L21 12L21 13L20 13L20 14L21 14L21 15L22 15L22 17L23 17L23 19L24 19L24 20L25 20L25 19L26 19L26 18L27 18L27 20L26 20L26 21L25 21L25 22L27 22L27 20L28 20L28 19L29 19L29 18L28 18L28 17L26 17L26 16L25 16L25 15L26 15L26 14L24 14L24 15L22 15L22 14L23 14L23 13L26 13L26 12L24 12L24 11ZM38 11L38 13L39 13L39 11ZM6 12L6 13L7 13L7 14L6 14L6 15L9 15L9 16L6 16L6 17L8 17L8 18L6 18L6 19L5 19L5 20L6 20L6 21L8 21L8 20L6 20L6 19L9 19L9 18L11 18L11 16L10 16L10 15L11 15L11 14L10 14L10 15L9 15L9 13L11 13L11 12L9 12L9 13L7 13L7 12ZM22 12L22 13L21 13L21 14L22 14L22 13L23 13L23 12ZM30 14L30 15L31 15L31 14ZM12 15L12 16L13 16L13 15ZM18 15L18 16L19 16L19 15ZM33 15L33 17L34 17L34 15ZM9 16L9 17L10 17L10 16ZM29 16L29 17L30 17L30 16ZM35 16L35 17L36 17L36 16ZM25 17L25 18L26 18L26 17ZM14 20L14 22L15 22L15 23L14 23L14 26L12 26L12 28L13 28L13 27L15 27L15 28L14 28L14 29L15 29L15 28L16 28L16 25L17 25L17 24L16 24L16 25L15 25L15 23L17 23L17 22L15 22L15 21L16 21L16 20ZM2 22L2 23L3 23L3 22ZM4 23L4 24L5 24L5 23ZM2 25L2 26L3 26L3 25ZM28 27L28 28L29 28L29 27ZM33 27L33 28L34 28L34 27ZM39 27L39 28L40 28L40 27ZM2 29L2 31L3 31L3 32L4 32L4 29ZM12 30L12 31L11 31L11 33L12 33L12 31L13 31L13 30ZM16 30L16 31L17 31L17 32L18 32L18 33L20 33L20 34L22 34L22 31L21 31L21 30L20 30L20 31L19 31L19 30L18 30L18 31L17 31L17 30ZM18 31L18 32L19 32L19 31ZM37 31L37 32L38 32L38 31ZM6 32L6 33L7 33L7 32ZM20 32L20 33L21 33L21 32ZM29 32L29 33L30 33L30 32ZM33 33L33 36L36 36L36 33ZM34 34L34 35L35 35L35 34ZM31 35L31 36L32 36L32 35ZM11 37L11 38L13 38L13 37ZM19 37L19 39L20 39L20 37ZM36 37L36 38L37 38L37 39L38 39L38 38L37 38L37 37ZM10 39L10 40L11 40L11 39ZM13 40L13 41L14 41L14 40ZM15 40L15 41L16 41L16 40ZM17 40L17 41L18 41L18 40ZM22 40L22 41L23 41L23 40ZM31 40L31 41L32 41L32 40ZM0 0L0 7L7 7L7 0ZM1 1L1 6L6 6L6 1ZM2 2L2 5L5 5L5 2ZM34 0L34 7L41 7L41 0ZM35 1L35 6L40 6L40 1ZM36 2L36 5L39 5L39 2ZM0 34L0 41L7 41L7 34ZM1 35L1 40L6 40L6 35ZM2 36L2 39L5 39L5 36Z" fill="#000000"/></g></g></svg>
