<?xml version="1.0" encoding="UTF-8"?>
<svg xmlns="http://www.w3.org/2000/svg" version="1.1" width="200" height="200" viewBox="0 0 200 200"><rect x="0" y="0" width="200" height="200" fill="#ffffff"/><g transform="scale(5.405)"><g transform="translate(0,0)"><path fill-rule="evenodd" d="M9 0L9 1L8 1L8 2L9 2L9 3L8 3L8 4L10 4L10 7L11 7L11 4L12 4L12 5L13 5L13 4L12 4L12 2L13 2L13 1L14 1L14 4L16 4L16 1L18 1L18 2L19 2L19 1L21 1L21 3L20 3L20 4L19 4L19 5L14 5L14 9L15 9L15 6L16 6L16 7L17 7L17 6L18 6L18 8L17 8L17 9L18 9L18 10L24 10L24 11L23 11L23 14L24 14L24 17L23 17L23 16L22 16L22 13L21 13L21 12L22 12L22 11L21 11L21 12L20 12L20 11L19 11L19 12L20 12L20 13L19 13L19 14L21 14L21 16L20 16L20 17L18 17L18 16L19 16L19 15L18 15L18 16L17 16L17 15L16 15L16 14L17 14L17 13L18 13L18 12L17 12L17 11L16 11L16 10L14 10L14 11L15 11L15 12L14 12L14 13L12 13L12 11L13 11L13 10L10 10L10 11L11 11L11 13L9 13L9 14L10 14L10 15L8 15L8 13L7 13L7 12L9 12L9 11L8 11L8 10L9 10L9 9L11 9L11 8L6 8L6 9L8 9L8 10L6 10L6 11L7 11L7 12L5 12L5 13L7 13L7 14L5 14L5 17L3 17L3 18L4 18L4 19L1 19L1 18L0 18L0 19L1 19L1 20L0 20L0 21L2 21L2 22L0 22L0 24L1 24L1 25L0 25L0 29L1 29L1 26L2 26L2 27L3 27L3 26L4 26L4 28L3 28L3 29L4 29L4 28L5 28L5 29L7 29L7 28L8 28L8 31L10 31L10 30L9 30L9 28L10 28L10 29L12 29L12 30L13 30L13 29L14 29L14 28L13 28L13 29L12 29L12 27L13 27L13 26L14 26L14 27L15 27L15 32L14 32L14 34L11 34L11 32L8 32L8 37L13 37L13 36L12 36L12 35L14 35L14 36L15 36L15 35L16 35L16 34L15 34L15 33L16 33L16 30L17 30L17 29L18 29L18 30L21 30L21 31L19 31L19 32L17 32L17 33L18 33L18 36L16 36L16 37L19 37L19 33L20 33L20 34L21 34L21 36L23 36L23 35L22 35L22 34L24 34L24 33L20 33L20 32L22 32L22 30L24 30L24 31L25 31L25 30L24 30L24 29L26 29L26 32L25 32L25 34L26 34L26 35L27 35L27 34L28 34L28 33L30 33L30 34L29 34L29 35L28 35L28 36L25 36L25 35L24 35L24 37L28 37L28 36L29 36L29 37L30 37L30 36L33 36L33 37L34 37L34 36L33 36L33 35L34 35L34 33L35 33L35 35L36 35L36 36L35 36L35 37L37 37L37 33L36 33L36 31L37 31L37 26L36 26L36 25L37 25L37 24L36 24L36 25L35 25L35 24L34 24L34 23L37 23L37 22L35 22L35 21L36 21L36 19L37 19L37 18L35 18L35 20L34 20L34 17L37 17L37 14L36 14L36 13L37 13L37 10L35 10L35 9L36 9L36 8L35 8L35 9L34 9L34 8L33 8L33 10L35 10L35 12L34 12L34 13L35 13L35 15L36 15L36 16L34 16L34 14L32 14L32 13L33 13L33 11L32 11L32 8L31 8L31 10L30 10L30 8L29 8L29 10L30 10L30 11L29 11L29 12L28 12L28 10L27 10L27 11L26 11L26 12L25 12L25 9L28 9L28 7L29 7L29 6L28 6L28 5L29 5L29 4L28 4L28 5L26 5L26 4L27 4L27 3L28 3L28 2L29 2L29 0L28 0L28 1L26 1L26 0L15 0L15 1L14 1L14 0L13 0L13 1L11 1L11 2L10 2L10 0ZM23 1L23 2L25 2L25 3L21 3L21 5L22 5L22 6L21 6L21 7L22 7L22 8L20 8L20 9L24 9L24 5L22 5L22 4L25 4L25 3L26 3L26 1ZM10 3L10 4L11 4L11 3ZM17 3L17 4L18 4L18 3ZM8 5L8 7L9 7L9 5ZM19 5L19 7L20 7L20 5ZM25 5L25 8L26 8L26 5ZM12 6L12 9L13 9L13 6ZM22 6L22 7L23 7L23 6ZM27 6L27 7L28 7L28 6ZM0 8L0 11L2 11L2 12L0 12L0 15L1 15L1 14L2 14L2 16L4 16L4 15L3 15L3 14L4 14L4 12L3 12L3 10L1 10L1 9L4 9L4 10L5 10L5 8ZM18 8L18 9L19 9L19 8ZM30 11L30 12L29 12L29 13L27 13L27 15L26 15L26 13L25 13L25 12L24 12L24 13L25 13L25 16L27 16L27 17L30 17L30 18L28 18L28 21L26 21L26 22L25 22L25 21L24 21L24 22L23 22L23 23L24 23L24 24L26 24L26 23L27 23L27 22L29 22L29 23L28 23L28 24L27 24L27 25L24 25L24 26L23 26L23 24L20 24L20 22L21 22L21 18L23 18L23 19L22 19L22 20L23 20L23 19L24 19L24 20L27 20L27 18L26 18L26 17L25 17L25 18L26 18L26 19L24 19L24 18L23 18L23 17L21 17L21 18L19 18L19 19L18 19L18 17L17 17L17 16L16 16L16 15L15 15L15 13L14 13L14 14L12 14L12 13L11 13L11 15L10 15L10 17L9 17L9 16L8 16L8 15L6 15L6 16L7 16L7 17L6 17L6 18L5 18L5 19L4 19L4 20L3 20L3 22L2 22L2 23L4 23L4 20L7 20L7 21L6 21L6 22L5 22L5 25L4 25L4 26L5 26L5 25L6 25L6 26L8 26L8 28L9 28L9 27L10 27L10 28L11 28L11 27L10 27L10 26L9 26L9 25L11 25L11 26L13 26L13 25L14 25L14 26L15 26L15 25L14 25L14 23L15 23L15 21L14 21L14 19L15 19L15 17L17 17L17 20L16 20L16 21L17 21L17 20L18 20L18 21L20 21L20 22L19 22L19 23L18 23L18 22L16 22L16 23L17 23L17 24L16 24L16 25L17 25L17 26L19 26L19 27L20 27L20 26L19 26L19 24L20 24L20 25L22 25L22 28L20 28L20 29L23 29L23 28L24 28L24 27L25 27L25 28L26 28L26 27L27 27L27 26L28 26L28 28L29 28L29 27L31 27L31 28L32 28L32 27L33 27L33 26L34 26L34 28L33 28L33 30L35 30L35 29L36 29L36 27L35 27L35 25L34 25L34 24L33 24L33 21L34 21L34 20L33 20L33 19L31 19L31 17L30 17L30 14L31 14L31 13L32 13L32 11ZM2 12L2 14L3 14L3 12ZM30 12L30 13L31 13L31 12ZM12 15L12 17L13 17L13 15ZM14 15L14 17L15 17L15 15ZM28 15L28 16L29 16L29 15ZM31 15L31 16L33 16L33 15ZM10 17L10 18L9 18L9 19L8 19L8 18L6 18L6 19L7 19L7 20L9 20L9 19L11 19L11 21L10 21L10 22L9 22L9 24L11 24L11 21L12 21L12 22L13 22L13 21L12 21L12 19L14 19L14 18L11 18L11 17ZM32 17L32 18L33 18L33 17ZM30 20L30 21L29 21L29 22L30 22L30 25L29 25L29 24L28 24L28 25L29 25L29 26L30 26L30 25L31 25L31 26L32 26L32 25L33 25L33 24L32 24L32 25L31 25L31 23L32 23L32 21L33 21L33 20ZM7 21L7 22L6 22L6 23L7 23L7 24L6 24L6 25L7 25L7 24L8 24L8 23L7 23L7 22L8 22L8 21ZM30 21L30 22L31 22L31 21ZM12 23L12 25L13 25L13 23ZM2 24L2 25L3 25L3 24ZM17 24L17 25L18 25L18 24ZM25 26L25 27L26 27L26 26ZM6 27L6 28L7 28L7 27ZM16 27L16 29L17 29L17 28L18 28L18 29L19 29L19 28L18 28L18 27ZM34 28L34 29L35 29L35 28ZM27 29L27 31L28 31L28 29ZM29 29L29 32L32 32L32 29ZM30 30L30 31L31 31L31 30ZM12 31L12 33L13 33L13 31ZM34 31L34 32L35 32L35 31ZM9 33L9 34L10 34L10 35L11 35L11 34L10 34L10 33ZM26 33L26 34L27 34L27 33ZM31 33L31 34L30 34L30 35L29 35L29 36L30 36L30 35L31 35L31 34L32 34L32 35L33 35L33 34L32 34L32 33ZM14 34L14 35L15 35L15 34ZM0 0L0 7L7 7L7 0ZM1 1L1 6L6 6L6 1ZM2 2L2 5L5 5L5 2ZM30 0L30 7L37 7L37 0ZM31 1L31 6L36 6L36 1ZM32 2L32 5L35 5L35 2ZM0 30L0 37L7 37L7 30ZM1 31L1 36L6 36L6 31ZM2 32L2 35L5 35L5 32Z" fill="#000000"/></g></g></svg>
