<?xml version="1.0" encoding="UTF-8"?>
<svg xmlns="http://www.w3.org/2000/svg" version="1.1" width="200" height="200" viewBox="0 0 200 200"><rect x="0" y="0" width="200" height="200" fill="#ffffff"/><g transform="scale(4.878)"><g transform="translate(0,0)"><path fill-rule="evenodd" d="M12 0L12 2L10 2L10 1L8 1L8 2L9 2L9 3L8 3L8 4L9 4L9 3L10 3L10 4L11 4L11 6L10 6L10 5L8 5L8 7L9 7L9 8L6 8L6 9L8 9L8 12L6 12L6 13L7 13L7 14L4 14L4 16L6 16L6 17L7 17L7 16L8 16L8 19L7 19L7 18L6 18L6 19L5 19L5 17L3 17L3 16L2 16L2 14L3 14L3 13L5 13L5 8L0 8L0 11L1 11L1 12L0 12L0 14L1 14L1 15L0 15L0 18L2 18L2 19L3 19L3 18L4 18L4 19L5 19L5 20L6 20L6 21L4 21L4 20L2 20L2 21L1 21L1 19L0 19L0 21L1 21L1 22L0 22L0 26L1 26L1 27L0 27L0 33L1 33L1 29L2 29L2 31L3 31L3 29L5 29L5 28L6 28L6 29L7 29L7 30L4 30L4 31L7 31L7 30L8 30L8 31L10 31L10 32L11 32L11 33L9 33L9 32L8 32L8 35L9 35L9 36L8 36L8 41L9 41L9 40L10 40L10 41L11 41L11 40L10 40L10 39L11 39L11 38L10 38L10 37L9 37L9 36L10 36L10 34L12 34L12 33L13 33L13 36L14 36L14 37L12 37L12 35L11 35L11 37L12 37L12 38L13 38L13 39L12 39L12 41L19 41L19 40L20 40L20 39L19 39L19 37L17 37L17 36L19 36L19 35L18 35L18 33L19 33L19 34L20 34L20 35L21 35L21 37L20 37L20 38L21 38L21 40L22 40L22 41L23 41L23 40L22 40L22 39L23 39L23 37L25 37L25 35L24 35L24 36L23 36L23 35L22 35L22 34L21 34L21 32L22 32L22 33L23 33L23 34L24 34L24 33L26 33L26 32L25 32L25 31L24 31L24 32L23 32L23 30L22 30L22 29L24 29L24 28L23 28L23 27L22 27L22 26L24 26L24 25L26 25L26 26L27 26L27 27L26 27L26 29L27 29L27 31L28 31L28 32L27 32L27 33L29 33L29 34L26 34L26 38L27 38L27 40L24 40L24 41L32 41L32 40L31 40L31 38L33 38L33 41L34 41L34 38L33 38L33 37L37 37L37 38L36 38L36 40L35 40L35 41L37 41L37 40L38 40L38 41L39 41L39 40L40 40L40 39L39 39L39 40L38 40L38 39L37 39L37 38L38 38L38 37L40 37L40 38L41 38L41 37L40 37L40 35L39 35L39 36L38 36L38 34L39 34L39 33L40 33L40 34L41 34L41 33L40 33L40 32L38 32L38 29L40 29L40 28L41 28L41 27L39 27L39 28L38 28L38 25L39 25L39 26L41 26L41 25L40 25L40 23L39 23L39 22L38 22L38 23L37 23L37 21L39 21L39 20L38 20L38 19L37 19L37 21L36 21L36 20L35 20L35 21L34 21L34 18L35 18L35 17L34 17L34 15L33 15L33 16L32 16L32 15L31 15L31 13L30 13L30 14L29 14L29 13L28 13L28 12L29 12L29 10L30 10L30 8L29 8L29 5L30 5L30 7L31 7L31 10L32 10L32 11L31 11L31 12L32 12L32 11L33 11L33 9L34 9L34 10L35 10L35 9L36 9L36 12L38 12L38 14L37 14L37 13L34 13L34 12L33 12L33 13L32 13L32 14L37 14L37 15L36 15L36 16L37 16L37 17L36 17L36 18L38 18L38 17L40 17L40 18L41 18L41 17L40 17L40 16L41 16L41 15L39 15L39 16L38 16L38 14L41 14L41 13L40 13L40 11L39 11L39 10L41 10L41 9L40 9L40 8L39 8L39 9L38 9L38 8L37 8L37 9L36 9L36 8L35 8L35 9L34 9L34 8L33 8L33 3L32 3L32 2L33 2L33 0L30 0L30 1L32 1L32 2L31 2L31 3L32 3L32 7L31 7L31 4L29 4L29 2L28 2L28 1L27 1L27 0L26 0L26 3L24 3L24 4L23 4L23 3L22 3L22 1L24 1L24 2L25 2L25 1L24 1L24 0L21 0L21 2L18 2L18 1L20 1L20 0L17 0L17 1L14 1L14 0ZM12 2L12 3L11 3L11 4L12 4L12 6L11 6L11 10L9 10L9 11L11 11L11 10L12 10L12 9L13 9L13 13L11 13L11 12L10 12L10 15L8 15L8 16L10 16L10 15L11 15L11 14L13 14L13 15L12 15L12 18L11 18L11 17L10 17L10 19L11 19L11 20L10 20L10 21L9 21L9 19L8 19L8 20L7 20L7 19L6 19L6 20L7 20L7 21L6 21L6 22L7 22L7 23L6 23L6 24L7 24L7 23L8 23L8 22L9 22L9 26L11 26L11 28L10 28L10 27L6 27L6 28L8 28L8 30L9 30L9 29L11 29L11 30L10 30L10 31L11 31L11 30L13 30L13 31L12 31L12 32L13 32L13 33L14 33L14 34L17 34L17 33L16 33L16 31L17 31L17 32L19 32L19 33L20 33L20 30L21 30L21 28L20 28L20 27L21 27L21 26L19 26L19 25L22 25L22 24L21 24L21 23L23 23L23 25L24 25L24 24L25 24L25 23L24 23L24 22L25 22L25 21L26 21L26 22L27 22L27 21L26 21L26 20L28 20L28 19L26 19L26 18L29 18L29 23L28 23L28 24L30 24L30 21L31 21L31 25L30 25L30 27L27 27L27 28L28 28L28 29L31 29L31 34L32 34L32 32L33 32L33 31L32 31L32 29L33 29L33 26L31 26L31 25L33 25L33 24L32 24L32 23L35 23L35 24L34 24L34 25L35 25L35 28L34 28L34 29L38 29L38 28L36 28L36 25L38 25L38 24L39 24L39 23L38 23L38 24L37 24L37 23L35 23L35 22L34 22L34 21L33 21L33 19L32 19L32 18L31 18L31 19L30 19L30 17L26 17L26 16L27 16L27 13L26 13L26 12L27 12L27 10L29 10L29 9L28 9L28 6L27 6L27 3L26 3L26 5L23 5L23 4L22 4L22 5L21 5L21 4L19 4L19 3L17 3L17 4L16 4L16 5L17 5L17 7L16 7L16 6L15 6L15 4L14 4L14 3L15 3L15 2L14 2L14 3L13 3L13 2ZM18 4L18 8L16 8L16 7L15 7L15 6L14 6L14 7L15 7L15 9L14 9L14 8L13 8L13 9L14 9L14 10L15 10L15 11L14 11L14 12L17 12L17 11L16 11L16 10L17 10L17 9L19 9L19 10L18 10L18 11L19 11L19 12L18 12L18 13L14 13L14 14L17 14L17 15L16 15L16 16L17 16L17 17L14 17L14 16L13 16L13 18L12 18L12 20L14 20L14 21L15 21L15 23L14 23L14 24L13 24L13 23L12 23L12 25L11 25L11 26L13 26L13 25L14 25L14 24L15 24L15 25L16 25L16 23L17 23L17 22L16 22L16 21L17 21L17 20L19 20L19 21L18 21L18 24L17 24L17 25L19 25L19 21L20 21L20 20L19 20L19 19L18 19L18 18L20 18L20 19L21 19L21 22L22 22L22 21L25 21L25 20L22 20L22 19L23 19L23 18L24 18L24 17L25 17L25 18L26 18L26 17L25 17L25 15L24 15L24 16L23 16L23 15L22 15L22 14L21 14L21 13L23 13L23 11L21 11L21 10L22 10L22 9L23 9L23 10L24 10L24 9L23 9L23 8L22 8L22 7L23 7L23 6L22 6L22 7L21 7L21 5L20 5L20 7L21 7L21 8L22 8L22 9L19 9L19 4ZM9 6L9 7L10 7L10 6ZM12 6L12 7L13 7L13 6ZM24 6L24 8L25 8L25 9L26 9L26 8L25 8L25 6ZM26 6L26 7L27 7L27 6ZM9 8L9 9L10 9L10 8ZM1 9L1 10L2 10L2 12L1 12L1 14L2 14L2 13L3 13L3 12L4 12L4 10L2 10L2 9ZM6 10L6 11L7 11L7 10ZM19 10L19 11L20 11L20 10ZM24 11L24 13L25 13L25 11ZM38 11L38 12L39 12L39 11ZM20 12L20 13L18 13L18 14L20 14L20 15L21 15L21 14L20 14L20 13L21 13L21 12ZM8 13L8 14L9 14L9 13ZM28 14L28 15L29 15L29 16L31 16L31 15L29 15L29 14ZM6 15L6 16L7 16L7 15ZM17 15L17 16L18 16L18 15ZM20 16L20 17L21 17L21 18L23 18L23 17L22 17L22 16ZM33 17L33 18L34 18L34 17ZM16 18L16 20L17 20L17 18ZM14 19L14 20L15 20L15 19ZM40 19L40 22L41 22L41 19ZM3 21L3 22L2 22L2 23L1 23L1 26L2 26L2 27L3 27L3 28L2 28L2 29L3 29L3 28L4 28L4 27L5 27L5 26L8 26L8 25L5 25L5 23L4 23L4 24L3 24L3 22L4 22L4 21ZM7 21L7 22L8 22L8 21ZM10 21L10 22L11 22L11 21ZM12 21L12 22L13 22L13 21ZM32 21L32 22L33 22L33 21ZM26 23L26 25L27 25L27 26L29 26L29 25L27 25L27 23ZM2 24L2 26L3 26L3 27L4 27L4 26L5 26L5 25L4 25L4 26L3 26L3 24ZM35 24L35 25L36 25L36 24ZM15 26L15 27L14 27L14 28L15 28L15 29L14 29L14 30L17 30L17 29L16 29L16 26ZM18 26L18 27L19 27L19 26ZM30 27L30 28L31 28L31 29L32 29L32 28L31 28L31 27ZM11 28L11 29L13 29L13 28ZM18 28L18 29L19 29L19 30L18 30L18 31L19 31L19 30L20 30L20 29L19 29L19 28ZM28 30L28 31L29 31L29 32L30 32L30 31L29 31L29 30ZM34 30L34 32L36 32L36 31L35 31L35 30ZM4 32L4 33L5 33L5 32ZM6 32L6 33L7 33L7 32ZM14 32L14 33L15 33L15 32ZM33 33L33 36L36 36L36 33ZM37 33L37 34L38 34L38 33ZM29 34L29 35L27 35L27 36L28 36L28 37L29 37L29 38L28 38L28 40L30 40L30 37L29 37L29 36L31 36L31 37L32 37L32 36L31 36L31 35L30 35L30 34ZM34 34L34 35L35 35L35 34ZM14 35L14 36L16 36L16 35ZM14 37L14 38L15 38L15 37ZM16 37L16 38L17 38L17 39L16 39L16 40L19 40L19 39L18 39L18 38L17 38L17 37ZM21 37L21 38L22 38L22 37ZM24 38L24 39L25 39L25 38ZM13 39L13 40L15 40L15 39ZM0 0L0 7L7 7L7 0ZM1 1L1 6L6 6L6 1ZM2 2L2 5L5 5L5 2ZM34 0L34 7L41 7L41 0ZM35 1L35 6L40 6L40 1ZM36 2L36 5L39 5L39 2ZM0 34L0 41L7 41L7 34ZM1 35L1 40L6 40L6 35ZM2 36L2 39L5 39L5 36Z" fill="#000000"/></g></g></svg>
