<?xml version="1.0" encoding="UTF-8"?>
<svg xmlns="http://www.w3.org/2000/svg" version="1.1" width="200" height="200" viewBox="0 0 200 200"><rect x="0" y="0" width="200" height="200" fill="#ffffff"/><g transform="scale(8)"><g transform="translate(0,0)"><path fill-rule="evenodd" d="M8 0L8 1L11 1L11 3L10 3L10 2L9 2L9 3L10 3L10 5L9 5L9 6L8 6L8 8L9 8L9 9L10 9L10 10L9 10L9 11L10 11L10 10L11 10L11 9L10 9L10 7L11 7L11 6L12 6L12 9L13 9L13 10L12 10L12 11L14 11L14 12L13 12L13 13L12 13L12 14L13 14L13 13L14 13L14 15L16 15L16 23L14 23L14 24L13 24L13 20L15 20L15 16L13 16L13 15L12 15L12 16L11 16L11 18L12 18L12 19L11 19L11 21L12 21L12 22L9 22L9 20L8 20L8 22L9 22L9 23L8 23L8 25L10 25L10 23L11 23L11 25L14 25L14 24L16 24L16 23L17 23L17 21L18 21L18 22L19 22L19 24L17 24L17 25L19 25L19 24L20 24L20 25L21 25L21 24L20 24L20 22L21 22L21 23L22 23L22 22L23 22L23 25L25 25L25 24L24 24L24 23L25 23L25 18L24 18L24 19L23 19L23 17L22 17L22 16L19 16L19 15L21 15L21 14L22 14L22 15L25 15L25 14L22 14L22 13L25 13L25 12L24 12L24 11L25 11L25 10L24 10L24 11L22 11L22 10L23 10L23 9L21 9L21 10L19 10L19 11L17 11L17 12L18 12L18 13L19 13L19 15L18 15L18 14L15 14L15 13L16 13L16 12L15 12L15 11L16 11L16 10L15 10L15 8L17 8L17 6L16 6L16 4L17 4L17 3L16 3L16 2L17 2L17 0L16 0L16 2L15 2L15 3L16 3L16 4L15 4L15 6L14 6L14 7L13 7L13 6L12 6L12 5L13 5L13 4L12 4L12 2L13 2L13 3L14 3L14 0L13 0L13 1L12 1L12 0ZM10 5L10 6L9 6L9 7L10 7L10 6L11 6L11 5ZM15 6L15 7L14 7L14 8L13 8L13 9L14 9L14 8L15 8L15 7L16 7L16 6ZM0 8L0 17L1 17L1 15L4 15L4 16L5 16L5 17L7 17L7 16L10 16L10 14L11 14L11 12L8 12L8 10L6 10L6 9L7 9L7 8L6 8L6 9L5 9L5 8L3 8L3 10L2 10L2 8ZM18 8L18 9L19 9L19 8ZM24 8L24 9L25 9L25 8ZM4 9L4 10L3 10L3 11L4 11L4 12L5 12L5 11L6 11L6 12L7 12L7 11L6 11L6 10L5 10L5 9ZM1 10L1 14L2 14L2 10ZM14 10L14 11L15 11L15 10ZM20 11L20 14L21 14L21 11ZM3 13L3 14L4 14L4 13ZM5 13L5 16L7 16L7 15L6 15L6 14L7 14L7 13ZM8 13L8 14L9 14L9 13ZM17 15L17 16L18 16L18 15ZM2 16L2 17L3 17L3 16ZM24 16L24 17L25 17L25 16ZM8 17L8 18L9 18L9 17ZM12 17L12 18L14 18L14 17ZM17 17L17 20L20 20L20 17ZM18 18L18 19L19 19L19 18ZM21 18L21 19L22 19L22 18ZM12 19L12 20L13 20L13 19ZM22 20L22 21L21 21L21 22L22 22L22 21L24 21L24 20ZM19 21L19 22L20 22L20 21ZM0 0L0 7L7 7L7 0ZM1 1L1 6L6 6L6 1ZM2 2L2 5L5 5L5 2ZM18 0L18 7L25 7L25 0ZM19 1L19 6L24 6L24 1ZM20 2L20 5L23 5L23 2ZM0 18L0 25L7 25L7 18ZM1 19L1 24L6 24L6 19ZM2 20L2 23L5 23L5 20Z" fill="#000000"/></g></g></svg>
