<?xml version="1.0" encoding="UTF-8"?>
<svg xmlns="http://www.w3.org/2000/svg" version="1.1" width="200" height="200" viewBox="0 0 200 200"><rect x="0" y="0" width="200" height="200" fill="#ffffff"/><g transform="scale(8)"><g transform="translate(0,0)"><path fill-rule="evenodd" d="M8 0L8 1L9 1L9 0ZM13 0L13 1L12 1L12 2L11 2L11 1L10 1L10 3L9 3L9 2L8 2L8 5L10 5L10 3L11 3L11 5L12 5L12 2L13 2L13 3L14 3L14 4L13 4L13 5L14 5L14 4L15 4L15 2L16 2L16 1L17 1L17 0L15 0L15 1L14 1L14 0ZM13 1L13 2L14 2L14 1ZM16 3L16 5L15 5L15 6L14 6L14 7L13 7L13 6L12 6L12 7L11 7L11 6L10 6L10 8L11 8L11 9L9 9L9 8L8 8L8 9L9 9L9 10L12 10L12 11L13 11L13 10L14 10L14 12L15 12L15 13L13 13L13 14L12 14L12 12L11 12L11 11L10 11L10 12L9 12L9 13L8 13L8 14L6 14L6 13L7 13L7 12L8 12L8 11L7 11L7 10L6 10L6 9L7 9L7 8L6 8L6 9L4 9L4 8L0 8L0 9L1 9L1 10L0 10L0 12L1 12L1 15L0 15L0 16L1 16L1 15L2 15L2 14L3 14L3 15L5 15L5 16L4 16L4 17L8 17L8 18L9 18L9 20L10 20L10 22L12 22L12 23L13 23L13 24L14 24L14 22L13 22L13 21L11 21L11 19L13 19L13 20L14 20L14 21L15 21L15 24L16 24L16 25L17 25L17 24L18 24L18 25L22 25L22 24L19 24L19 23L20 23L20 22L19 22L19 21L21 21L21 22L23 22L23 23L24 23L24 25L25 25L25 23L24 23L24 22L25 22L25 21L24 21L24 20L25 20L25 17L21 17L21 16L23 16L23 15L24 15L24 14L25 14L25 11L24 11L24 13L23 13L23 14L22 14L22 12L23 12L23 11L21 11L21 9L23 9L23 8L20 8L20 10L18 10L18 11L21 11L21 12L20 12L20 13L21 13L21 14L19 14L19 15L20 15L20 16L16 16L16 15L17 15L17 12L16 12L16 11L17 11L17 9L18 9L18 8L17 8L17 6L16 6L16 5L17 5L17 3ZM8 6L8 7L9 7L9 6ZM15 6L15 7L14 7L14 8L15 8L15 9L17 9L17 8L16 8L16 6ZM12 8L12 10L13 10L13 8ZM24 8L24 9L25 9L25 8ZM1 10L1 11L2 11L2 10ZM3 10L3 11L4 11L4 10ZM5 10L5 12L4 12L4 13L6 13L6 12L7 12L7 11L6 11L6 10ZM10 12L10 13L9 13L9 14L10 14L10 16L9 16L9 15L6 15L6 14L5 14L5 15L6 15L6 16L9 16L9 18L10 18L10 19L11 19L11 18L10 18L10 16L12 16L12 15L11 15L11 12ZM18 12L18 13L19 13L19 12ZM15 13L15 15L14 15L14 14L13 14L13 15L14 15L14 16L13 16L13 17L14 17L14 16L15 16L15 15L16 15L16 13ZM2 16L2 17L3 17L3 16ZM15 17L15 18L14 18L14 20L16 20L16 17ZM17 17L17 20L20 20L20 17ZM18 18L18 19L19 19L19 18ZM21 18L21 21L22 21L22 20L24 20L24 19L22 19L22 18ZM8 21L8 25L9 25L9 24L10 24L10 23L9 23L9 21ZM16 21L16 22L17 22L17 23L16 23L16 24L17 24L17 23L18 23L18 21ZM11 24L11 25L12 25L12 24ZM0 0L0 7L7 7L7 0ZM1 1L1 6L6 6L6 1ZM2 2L2 5L5 5L5 2ZM18 0L18 7L25 7L25 0ZM19 1L19 6L24 6L24 1ZM20 2L20 5L23 5L23 2ZM0 18L0 25L7 25L7 18ZM1 19L1 24L6 24L6 19ZM2 20L2 23L5 23L5 20Z" fill="#000000"/></g></g></svg>
