<?xml version="1.0" encoding="UTF-8"?>
<svg xmlns="http://www.w3.org/2000/svg" version="1.1" width="200" height="200" viewBox="0 0 200 200"><rect x="0" y="0" width="200" height="200" fill="#ffffff"/><g transform="scale(4.444)"><g transform="translate(0,0)"><path fill-rule="evenodd" d="M10 0L10 2L9 2L9 1L8 1L8 2L9 2L9 3L8 3L8 4L9 4L9 5L8 5L8 7L9 7L9 8L6 8L6 9L5 9L5 8L0 8L0 11L2 11L2 10L3 10L3 11L4 11L4 12L0 12L0 15L1 15L1 16L0 16L0 17L1 17L1 18L0 18L0 21L1 21L1 22L0 22L0 23L1 23L1 24L2 24L2 25L3 25L3 26L4 26L4 27L2 27L2 26L1 26L1 25L0 25L0 29L1 29L1 30L0 30L0 32L1 32L1 31L2 31L2 30L3 30L3 31L5 31L5 32L4 32L4 35L1 35L1 36L0 36L0 37L1 37L1 36L3 36L3 37L5 37L5 33L8 33L8 34L6 34L6 35L7 35L7 36L6 36L6 37L8 37L8 39L9 39L9 40L8 40L8 45L9 45L9 43L10 43L10 44L11 44L11 45L12 45L12 43L11 43L11 42L12 42L12 41L13 41L13 42L14 42L14 43L13 43L13 45L14 45L14 43L15 43L15 45L17 45L17 44L18 44L18 45L19 45L19 43L20 43L20 44L22 44L22 42L21 42L21 41L25 41L25 42L26 42L26 43L27 43L27 44L25 44L25 43L24 43L24 42L23 42L23 43L24 43L24 44L23 44L23 45L27 45L27 44L28 44L28 42L26 42L26 41L27 41L27 39L25 39L25 38L26 38L26 37L27 37L27 36L28 36L28 35L27 35L27 34L28 34L28 33L27 33L27 34L26 34L26 32L27 32L27 31L26 31L26 27L28 27L28 26L32 26L32 28L33 28L33 29L31 29L31 28L29 28L29 29L30 29L30 30L31 30L31 32L30 32L30 31L29 31L29 30L28 30L28 32L29 32L29 34L32 34L32 33L31 33L31 32L33 32L33 31L34 31L34 30L33 30L33 29L34 29L34 27L35 27L35 28L36 28L36 25L37 25L37 26L39 26L39 27L38 27L38 28L39 28L39 27L40 27L40 29L35 29L35 30L36 30L36 31L38 31L38 32L39 32L39 33L40 33L40 32L41 32L41 33L42 33L42 34L41 34L41 35L42 35L42 36L44 36L44 37L41 37L41 36L40 36L40 35L39 35L39 36L36 36L36 34L37 34L37 35L38 35L38 34L37 34L37 33L36 33L36 34L34 34L34 33L35 33L35 32L34 32L34 33L33 33L33 34L34 34L34 35L32 35L32 36L34 36L34 37L35 37L35 38L36 38L36 42L34 42L34 41L33 41L33 42L32 42L32 41L31 41L31 40L34 40L34 38L33 38L33 39L31 39L31 35L30 35L30 37L29 37L29 39L28 39L28 40L29 40L29 42L32 42L32 44L35 44L35 45L37 45L37 44L38 44L38 45L40 45L40 42L41 42L41 44L42 44L42 45L44 45L44 44L43 44L43 42L42 42L42 41L41 41L41 38L42 38L42 40L43 40L43 38L45 38L45 35L44 35L44 33L45 33L45 31L44 31L44 33L42 33L42 32L43 32L43 30L40 30L40 29L41 29L41 28L42 28L42 29L43 29L43 27L44 27L44 26L45 26L45 25L42 25L42 26L41 26L41 27L40 27L40 26L39 26L39 25L41 25L41 24L43 24L43 23L44 23L44 21L43 21L43 19L44 19L44 20L45 20L45 19L44 19L44 18L45 18L45 17L44 17L44 18L43 18L43 17L42 17L42 16L45 16L45 15L44 15L44 14L43 14L43 13L45 13L45 11L44 11L44 10L45 10L45 9L44 9L44 8L43 8L43 9L42 9L42 8L41 8L41 9L40 9L40 8L39 8L39 10L38 10L38 11L37 11L37 9L38 9L38 8L37 8L37 9L36 9L36 7L37 7L37 6L36 6L36 7L35 7L35 6L34 6L34 5L37 5L37 3L36 3L36 1L37 1L37 0L36 0L36 1L35 1L35 4L33 4L33 6L32 6L32 3L31 3L31 2L33 2L33 3L34 3L34 1L33 1L33 0L32 0L32 1L31 1L31 2L30 2L30 1L29 1L29 2L27 2L27 1L26 1L26 0L25 0L25 1L24 1L24 0L23 0L23 1L24 1L24 4L23 4L23 3L22 3L22 2L21 2L21 1L20 1L20 0L16 0L16 1L14 1L14 2L13 2L13 1L12 1L12 2L13 2L13 5L10 5L10 4L11 4L11 0ZM17 1L17 4L15 4L15 3L16 3L16 2L14 2L14 4L15 4L15 5L13 5L13 7L12 7L12 6L11 6L11 7L12 7L12 8L10 8L10 9L6 9L6 10L5 10L5 9L4 9L4 11L5 11L5 12L4 12L4 13L3 13L3 15L2 15L2 16L1 16L1 17L2 17L2 18L3 18L3 19L2 19L2 22L1 22L1 23L2 23L2 24L3 24L3 25L4 25L4 26L5 26L5 27L4 27L4 28L2 28L2 27L1 27L1 28L2 28L2 29L3 29L3 30L5 30L5 31L6 31L6 32L8 32L8 33L9 33L9 34L8 34L8 35L9 35L9 37L10 37L10 38L9 38L9 39L10 39L10 40L9 40L9 42L10 42L10 41L12 41L12 39L14 39L14 40L13 40L13 41L14 41L14 42L15 42L15 43L16 43L16 44L17 44L17 42L18 42L18 43L19 43L19 42L20 42L20 40L19 40L19 39L20 39L20 36L24 36L24 35L25 35L25 37L26 37L26 36L27 36L27 35L26 35L26 34L22 34L22 33L23 33L23 32L24 32L24 31L25 31L25 32L26 32L26 31L25 31L25 30L24 30L24 27L26 27L26 26L27 26L27 25L29 25L29 24L31 24L31 25L32 25L32 26L33 26L33 27L34 27L34 26L35 26L35 25L36 25L36 23L35 23L35 25L34 25L34 26L33 26L33 24L31 24L31 23L33 23L33 21L34 21L34 22L36 22L36 19L37 19L37 20L39 20L39 19L40 19L40 20L41 20L41 21L42 21L42 20L41 20L41 19L43 19L43 18L41 18L41 16L40 16L40 15L39 15L39 14L41 14L41 15L42 15L42 14L41 14L41 13L42 13L42 12L41 12L41 10L42 10L42 9L41 9L41 10L39 10L39 11L40 11L40 12L39 12L39 13L38 13L38 15L37 15L37 16L36 16L36 15L35 15L35 13L36 13L36 12L37 12L37 11L34 11L34 12L33 12L33 9L34 9L34 10L35 10L35 9L34 9L34 8L35 8L35 7L34 7L34 6L33 6L33 7L32 7L32 6L31 6L31 8L32 8L32 9L31 9L31 10L30 10L30 5L29 5L29 3L30 3L30 2L29 2L29 3L28 3L28 4L27 4L27 2L26 2L26 1L25 1L25 4L26 4L26 6L25 6L25 7L26 7L26 6L27 6L27 8L25 8L25 9L26 9L26 10L25 10L25 12L27 12L27 13L26 13L26 14L25 14L25 13L22 13L22 12L24 12L24 11L22 11L22 10L24 10L24 9L22 9L22 10L21 10L21 9L20 9L20 4L18 4L18 1ZM19 2L19 3L21 3L21 2ZM9 3L9 4L10 4L10 3ZM17 4L17 6L16 6L16 5L15 5L15 6L14 6L14 7L13 7L13 8L12 8L12 9L10 9L10 10L8 10L8 11L7 11L7 10L6 10L6 11L7 11L7 12L5 12L5 13L4 13L4 14L5 14L5 15L3 15L3 17L4 17L4 18L6 18L6 19L7 19L7 18L6 18L6 17L9 17L9 18L8 18L8 19L9 19L9 20L5 20L5 19L4 19L4 22L2 22L2 23L3 23L3 24L4 24L4 25L5 25L5 26L6 26L6 27L7 27L7 28L6 28L6 29L7 29L7 30L6 30L6 31L8 31L8 32L11 32L11 33L10 33L10 36L11 36L11 35L12 35L12 36L13 36L13 37L11 37L11 38L13 38L13 37L14 37L14 38L15 38L15 40L16 40L16 38L15 38L15 37L14 37L14 35L13 35L13 33L16 33L16 34L15 34L15 35L16 35L16 37L19 37L19 36L18 36L18 34L19 34L19 32L18 32L18 34L17 34L17 33L16 33L16 30L15 30L15 29L14 29L14 28L13 28L13 29L12 29L12 30L11 30L11 28L12 28L12 27L11 27L11 26L12 26L12 25L13 25L13 27L14 27L14 25L13 25L13 24L14 24L14 23L13 23L13 22L15 22L15 24L16 24L16 23L17 23L17 25L18 25L18 26L17 26L17 27L18 27L18 26L19 26L19 25L20 25L20 26L21 26L21 27L20 27L20 28L16 28L16 27L15 27L15 28L16 28L16 29L20 29L20 32L21 32L21 33L20 33L20 34L21 34L21 33L22 33L22 32L23 32L23 31L22 31L22 32L21 32L21 30L22 30L22 29L20 29L20 28L23 28L23 27L24 27L24 26L26 26L26 25L25 25L25 24L26 24L26 21L27 21L27 24L29 24L29 23L28 23L28 21L27 21L27 20L28 20L28 19L29 19L29 18L31 18L31 15L32 15L32 16L33 16L33 18L34 18L34 19L36 19L36 18L38 18L38 17L35 17L35 18L34 18L34 14L33 14L33 15L32 15L32 12L31 12L31 11L29 11L29 12L30 12L30 13L29 13L29 14L28 14L28 13L27 13L27 14L28 14L28 15L27 15L27 16L29 16L29 14L30 14L30 17L29 17L29 18L26 18L26 16L25 16L25 17L24 17L24 18L23 18L23 17L22 17L22 16L21 16L21 18L23 18L23 19L24 19L24 20L22 20L22 19L21 19L21 20L20 20L20 19L19 19L19 18L20 18L20 16L19 16L19 15L17 15L17 14L16 14L16 16L15 16L15 13L14 13L14 12L16 12L16 13L17 13L17 12L18 12L18 13L20 13L20 15L22 15L22 13L20 13L20 11L19 11L19 5L18 5L18 4ZM21 5L21 8L24 8L24 5ZM9 6L9 7L10 7L10 6ZM15 6L15 7L14 7L14 8L13 8L13 9L14 9L14 10L10 10L10 11L8 11L8 12L7 12L7 13L6 13L6 14L7 14L7 15L5 15L5 16L4 16L4 17L6 17L6 16L8 16L8 15L9 15L9 14L10 14L10 16L11 16L11 15L12 15L12 13L11 13L11 12L10 12L10 11L13 11L13 12L14 12L14 11L16 11L16 12L17 12L17 11L18 11L18 9L17 9L17 8L18 8L18 6L17 6L17 7L16 7L16 6ZM22 6L22 7L23 7L23 6ZM28 6L28 8L29 8L29 6ZM15 7L15 8L16 8L16 7ZM33 7L33 8L34 8L34 7ZM1 9L1 10L2 10L2 9ZM15 9L15 10L16 10L16 9ZM28 9L28 10L26 10L26 11L27 11L27 12L28 12L28 10L29 10L29 9ZM43 9L43 10L44 10L44 9ZM21 11L21 12L22 12L22 11ZM8 12L8 13L10 13L10 12ZM34 12L34 13L35 13L35 12ZM13 13L13 14L14 14L14 13ZM24 14L24 15L25 15L25 14ZM13 15L13 16L12 16L12 17L13 17L13 18L11 18L11 17L10 17L10 18L9 18L9 19L10 19L10 20L11 20L11 21L10 21L10 22L9 22L9 24L10 24L10 26L9 26L9 27L8 27L8 28L7 28L7 29L8 29L8 31L11 31L11 30L9 30L9 28L10 28L10 26L11 26L11 25L12 25L12 24L10 24L10 23L12 23L12 22L13 22L13 18L14 18L14 21L15 21L15 22L18 22L18 24L20 24L20 23L19 23L19 22L20 22L20 20L19 20L19 22L18 22L18 21L15 21L15 20L16 20L16 19L15 19L15 18L16 18L16 17L17 17L17 20L18 20L18 17L17 17L17 16L16 16L16 17L13 17L13 16L14 16L14 15ZM39 16L39 18L40 18L40 16ZM10 18L10 19L11 19L11 20L12 20L12 19L11 19L11 18ZM30 19L30 20L29 20L29 22L30 22L30 23L31 23L31 21L32 21L32 20L31 20L31 19ZM30 20L30 21L31 21L31 20ZM5 21L5 24L8 24L8 21ZM21 21L21 24L24 24L24 21ZM37 21L37 24L40 24L40 21ZM6 22L6 23L7 23L7 22ZM22 22L22 23L23 23L23 22ZM38 22L38 23L39 23L39 22ZM6 25L6 26L8 26L8 25ZM15 25L15 26L16 26L16 25ZM21 25L21 26L22 26L22 27L23 27L23 26L24 26L24 25L23 25L23 26L22 26L22 25ZM42 26L42 27L43 27L43 26ZM4 28L4 29L5 29L5 28ZM13 29L13 30L14 30L14 29ZM44 29L44 30L45 30L45 29ZM17 30L17 31L18 31L18 30ZM38 30L38 31L39 31L39 30ZM13 31L13 32L14 32L14 31ZM2 32L2 33L0 33L0 34L3 34L3 32ZM11 33L11 34L12 34L12 33ZM34 35L34 36L35 36L35 37L36 37L36 36L35 36L35 35ZM21 37L21 40L24 40L24 37ZM37 37L37 40L40 40L40 37ZM17 38L17 39L18 39L18 38ZM22 38L22 39L23 39L23 38ZM38 38L38 39L39 39L39 38ZM30 39L30 40L31 40L31 39ZM17 40L17 41L18 41L18 42L19 42L19 41L18 41L18 40ZM15 41L15 42L16 42L16 41ZM37 41L37 43L35 43L35 44L37 44L37 43L38 43L38 44L39 44L39 42L40 42L40 41L39 41L39 42L38 42L38 41ZM33 42L33 43L34 43L34 42ZM44 42L44 43L45 43L45 42ZM29 43L29 44L30 44L30 45L31 45L31 43ZM0 0L0 7L7 7L7 0ZM1 1L1 6L6 6L6 1ZM2 2L2 5L5 5L5 2ZM38 0L38 7L45 7L45 0ZM39 1L39 6L44 6L44 1ZM40 2L40 5L43 5L43 2ZM0 38L0 45L7 45L7 38ZM1 39L1 44L6 44L6 39ZM2 40L2 43L5 43L5 40Z" fill="#000000"/></g></g></svg>
