<?xml version="1.0" encoding="UTF-8"?>
<svg xmlns="http://www.w3.org/2000/svg" version="1.1" width="200" height="200" viewBox="0 0 200 200"><rect x="0" y="0" width="200" height="200" fill="#ffffff"/><g transform="scale(4.878)"><g transform="translate(0,0)"><path fill-rule="evenodd" d="M11 0L11 2L9 2L9 1L8 1L8 2L9 2L9 3L8 3L8 4L9 4L9 3L10 3L10 4L11 4L11 5L8 5L8 7L9 7L9 8L6 8L6 9L7 9L7 10L6 10L6 11L5 11L5 8L0 8L0 9L1 9L1 10L0 10L0 14L1 14L1 15L2 15L2 16L1 16L1 18L0 18L0 19L2 19L2 20L0 20L0 24L1 24L1 25L0 25L0 26L1 26L1 25L4 25L4 26L5 26L5 24L6 24L6 25L7 25L7 26L6 26L6 27L8 27L8 26L9 26L9 28L6 28L6 29L7 29L7 30L5 30L5 31L4 31L4 32L6 32L6 33L8 33L8 35L9 35L9 34L10 34L10 35L11 35L11 34L12 34L12 36L11 36L11 37L13 37L13 38L10 38L10 39L9 39L9 36L8 36L8 41L9 41L9 40L10 40L10 41L12 41L12 39L13 39L13 38L18 38L18 39L19 39L19 38L20 38L20 39L21 39L21 40L22 40L22 41L24 41L24 40L25 40L25 41L26 41L26 40L25 40L25 39L24 39L24 40L23 40L23 38L20 38L20 37L19 37L19 36L18 36L18 37L13 37L13 33L14 33L14 34L15 34L15 35L14 35L14 36L15 36L15 35L16 35L16 36L17 36L17 33L18 33L18 35L19 35L19 34L20 34L20 35L21 35L21 37L24 37L24 36L25 36L25 33L26 33L26 35L29 35L29 34L27 34L27 33L28 33L28 32L29 32L29 33L30 33L30 36L29 36L29 38L30 38L30 39L32 39L32 40L31 40L31 41L32 41L32 40L33 40L33 41L34 41L34 39L35 39L35 40L38 40L38 41L39 41L39 40L40 40L40 39L39 39L39 36L38 36L38 33L37 33L37 32L38 32L38 31L39 31L39 32L41 32L41 31L40 31L40 30L41 30L41 29L40 29L40 26L41 26L41 25L40 25L40 26L39 26L39 28L38 28L38 27L37 27L37 26L38 26L38 25L39 25L39 24L38 24L38 25L36 25L36 27L35 27L35 25L34 25L34 24L36 24L36 23L37 23L37 21L36 21L36 22L35 22L35 21L30 21L30 20L31 20L31 18L32 18L32 17L31 17L31 18L29 18L29 19L30 19L30 20L29 20L29 21L27 21L27 22L26 22L26 24L25 24L25 22L24 22L24 25L23 25L23 23L22 23L22 22L21 22L21 21L23 21L23 20L22 20L22 19L23 19L23 18L24 18L24 21L26 21L26 20L25 20L25 19L26 19L26 18L27 18L27 19L28 19L28 18L27 18L27 17L26 17L26 16L25 16L25 15L26 15L26 14L27 14L27 15L28 15L28 16L29 16L29 17L30 17L30 16L29 16L29 13L30 13L30 12L29 12L29 10L30 10L30 11L31 11L31 12L32 12L32 13L31 13L31 14L30 14L30 15L31 15L31 14L32 14L32 16L33 16L33 20L35 20L35 19L34 19L34 18L35 18L35 17L36 17L36 20L38 20L38 21L40 21L40 18L41 18L41 17L40 17L40 15L39 15L39 13L40 13L40 14L41 14L41 13L40 13L40 12L38 12L38 11L40 11L40 10L41 10L41 9L40 9L40 8L39 8L39 10L38 10L38 11L37 11L37 12L38 12L38 13L36 13L36 12L35 12L35 13L34 13L34 14L36 14L36 16L35 16L35 15L34 15L34 16L33 16L33 12L34 12L34 10L35 10L35 9L36 9L36 10L37 10L37 9L38 9L38 8L37 8L37 9L36 9L36 8L35 8L35 9L34 9L34 8L33 8L33 6L32 6L32 8L33 8L33 9L32 9L32 11L31 11L31 9L30 9L30 8L31 8L31 5L33 5L33 4L30 4L30 3L29 3L29 2L28 2L28 1L27 1L27 0L19 0L19 1L18 1L18 0L17 0L17 1L15 1L15 2L14 2L14 3L15 3L15 4L14 4L14 5L17 5L17 4L16 4L16 3L17 3L17 1L18 1L18 2L19 2L19 3L20 3L20 2L21 2L21 4L20 4L20 8L19 8L19 9L18 9L18 8L17 8L17 6L16 6L16 8L17 8L17 9L18 9L18 10L20 10L20 11L21 11L21 13L20 13L20 12L19 12L19 11L18 11L18 12L19 12L19 13L17 13L17 12L16 12L16 13L15 13L15 12L14 12L14 11L16 11L16 10L14 10L14 8L12 8L12 7L13 7L13 5L12 5L12 4L11 4L11 2L12 2L12 3L13 3L13 0ZM30 0L30 2L31 2L31 3L32 3L32 2L33 2L33 0ZM19 1L19 2L20 2L20 1ZM21 1L21 2L22 2L22 3L23 3L23 1ZM25 1L25 2L24 2L24 3L25 3L25 4L22 4L22 6L21 6L21 7L22 7L22 8L20 8L20 9L22 9L22 11L24 11L24 12L23 12L23 13L22 13L22 16L21 16L21 15L20 15L20 13L19 13L19 14L17 14L17 13L16 13L16 14L17 14L17 15L16 15L16 16L18 16L18 17L15 17L15 15L13 15L13 14L12 14L12 13L14 13L14 14L15 14L15 13L14 13L14 12L12 12L12 11L13 11L13 9L11 9L11 7L12 7L12 6L11 6L11 7L10 7L10 6L9 6L9 7L10 7L10 9L11 9L11 10L10 10L10 11L9 11L9 10L8 10L8 11L6 11L6 12L5 12L5 11L4 11L4 13L3 13L3 14L4 14L4 15L3 15L3 16L2 16L2 18L3 18L3 19L5 19L5 20L2 20L2 21L1 21L1 22L2 22L2 24L3 24L3 22L2 22L2 21L5 21L5 22L7 22L7 21L8 21L8 19L5 19L5 18L7 18L7 17L6 17L6 16L7 16L7 15L6 15L6 14L8 14L8 16L9 16L9 21L11 21L11 22L9 22L9 23L8 23L8 24L7 24L7 23L6 23L6 24L7 24L7 25L8 25L8 24L9 24L9 23L11 23L11 22L13 22L13 23L12 23L12 24L14 24L14 25L15 25L15 26L16 26L16 27L14 27L14 28L12 28L12 26L13 26L13 25L11 25L11 26L10 26L10 25L9 25L9 26L10 26L10 27L11 27L11 28L10 28L10 30L11 30L11 31L9 31L9 32L8 32L8 33L9 33L9 32L10 32L10 33L12 33L12 31L13 31L13 32L14 32L14 33L15 33L15 34L16 34L16 33L17 33L17 32L18 32L18 33L20 33L20 32L21 32L21 35L22 35L22 36L24 36L24 34L23 34L23 33L24 33L24 32L26 32L26 33L27 33L27 32L28 32L28 31L27 31L27 30L30 30L30 29L29 29L29 28L31 28L31 27L33 27L33 31L32 31L32 30L31 30L31 31L29 31L29 32L30 32L30 33L31 33L31 34L32 34L32 33L31 33L31 32L33 32L33 31L34 31L34 32L35 32L35 30L34 30L34 29L37 29L37 28L34 28L34 25L33 25L33 23L34 23L34 22L31 22L31 23L29 23L29 22L30 22L30 21L29 21L29 22L28 22L28 23L27 23L27 24L26 24L26 25L25 25L25 27L24 27L24 26L23 26L23 25L22 25L22 24L21 24L21 26L19 26L19 25L20 25L20 23L21 23L21 22L20 22L20 21L21 21L21 19L22 19L22 18L23 18L23 17L24 17L24 16L23 16L23 15L24 15L24 14L26 14L26 11L27 11L27 12L28 12L28 11L27 11L27 10L29 10L29 8L30 8L30 5L29 5L29 8L28 8L28 9L27 9L27 8L26 8L26 6L27 6L27 7L28 7L28 6L27 6L27 4L29 4L29 3L28 3L28 2L27 2L27 4L26 4L26 1ZM31 1L31 2L32 2L32 1ZM15 2L15 3L16 3L16 2ZM25 5L25 6L24 6L24 9L26 9L26 10L27 10L27 9L26 9L26 8L25 8L25 6L26 6L26 5ZM14 6L14 7L15 7L15 6ZM18 6L18 7L19 7L19 6ZM22 6L22 7L23 7L23 6ZM2 9L2 10L3 10L3 9ZM11 10L11 11L10 11L10 13L12 13L12 12L11 12L11 11L12 11L12 10ZM1 11L1 14L2 14L2 12L3 12L3 11ZM8 11L8 12L6 12L6 13L4 13L4 14L6 14L6 13L8 13L8 12L9 12L9 11ZM24 12L24 13L25 13L25 12ZM10 14L10 15L11 15L11 14ZM37 14L37 16L36 16L36 17L38 17L38 16L39 16L39 15L38 15L38 14ZM4 15L4 16L6 16L6 15ZM12 15L12 16L13 16L13 17L14 17L14 18L15 18L15 19L14 19L14 20L15 20L15 21L14 21L14 22L17 22L17 21L16 21L16 18L15 18L15 17L14 17L14 16L13 16L13 15ZM18 15L18 16L19 16L19 17L18 17L18 18L22 18L22 17L23 17L23 16L22 16L22 17L20 17L20 16L19 16L19 15ZM34 16L34 17L35 17L35 16ZM3 17L3 18L5 18L5 17ZM25 17L25 18L26 18L26 17ZM39 17L39 18L40 18L40 17ZM10 18L10 19L11 19L11 18ZM12 18L12 19L13 19L13 18ZM19 19L19 20L18 20L18 23L19 23L19 20L20 20L20 19ZM38 19L38 20L39 20L39 19ZM6 20L6 21L7 21L7 20ZM11 20L11 21L13 21L13 20ZM4 23L4 24L5 24L5 23ZM14 23L14 24L15 24L15 23ZM16 23L16 24L17 24L17 27L16 27L16 29L15 29L15 28L14 28L14 29L15 29L15 30L14 30L14 31L15 31L15 33L16 33L16 31L17 31L17 30L16 30L16 29L17 29L17 28L19 28L19 27L18 27L18 24L17 24L17 23ZM28 23L28 25L30 25L30 24L29 24L29 23ZM31 23L31 24L32 24L32 23ZM40 23L40 24L41 24L41 23ZM26 25L26 26L27 26L27 28L26 28L26 29L28 29L28 26L27 26L27 25ZM31 25L31 26L32 26L32 25ZM2 26L2 27L3 27L3 26ZM21 26L21 27L20 27L20 30L21 30L21 32L22 32L22 33L23 33L23 30L24 30L24 31L26 31L26 32L27 32L27 31L26 31L26 30L25 30L25 28L24 28L24 27L22 27L22 26ZM0 27L0 33L1 33L1 30L3 30L3 29L2 29L2 28L1 28L1 27ZM4 27L4 28L5 28L5 27ZM12 29L12 30L13 30L13 29ZM18 29L18 30L19 30L19 29ZM21 29L21 30L23 30L23 29ZM38 29L38 30L39 30L39 29ZM7 30L7 31L6 31L6 32L7 32L7 31L8 31L8 30ZM36 30L36 32L37 32L37 30ZM2 31L2 33L3 33L3 31ZM18 31L18 32L19 32L19 31ZM33 33L33 36L36 36L36 33ZM39 33L39 35L40 35L40 34L41 34L41 33ZM22 34L22 35L23 35L23 34ZM34 34L34 35L35 35L35 34ZM31 35L31 37L30 37L30 38L32 38L32 39L34 39L34 38L35 38L35 37L34 37L34 38L32 38L32 35ZM26 36L26 37L28 37L28 36ZM37 36L37 37L36 37L36 38L37 38L37 39L38 39L38 40L39 40L39 39L38 39L38 38L37 38L37 37L38 37L38 36ZM18 37L18 38L19 38L19 37ZM40 37L40 38L41 38L41 37ZM27 38L27 39L28 39L28 38ZM14 39L14 40L13 40L13 41L14 41L14 40L15 40L15 39ZM16 39L16 40L17 40L17 41L18 41L18 40L17 40L17 39ZM28 40L28 41L30 41L30 40ZM0 0L0 7L7 7L7 0ZM1 1L1 6L6 6L6 1ZM2 2L2 5L5 5L5 2ZM34 0L34 7L41 7L41 0ZM35 1L35 6L40 6L40 1ZM36 2L36 5L39 5L39 2ZM0 34L0 41L7 41L7 34ZM1 35L1 40L6 40L6 35ZM2 36L2 39L5 39L5 36Z" fill="#000000"/></g></g></svg>
