<?xml version="1.0" encoding="UTF-8"?>
<svg xmlns="http://www.w3.org/2000/svg" version="1.1" width="200" height="200" viewBox="0 0 200 200"><rect x="0" y="0" width="200" height="200" fill="#ffffff"/><g transform="scale(5.405)"><g transform="translate(0,0)"><path fill-rule="evenodd" d="M9 0L9 1L8 1L8 2L9 2L9 3L8 3L8 4L10 4L10 7L11 7L11 4L12 4L12 5L13 5L13 6L12 6L12 9L13 9L13 6L14 6L14 9L16 9L16 7L17 7L17 6L18 6L18 8L17 8L17 9L18 9L18 10L21 10L21 12L20 12L20 11L19 11L19 12L20 12L20 13L19 13L19 14L21 14L21 16L20 16L20 17L18 17L18 16L19 16L19 15L18 15L18 16L17 16L17 17L16 17L16 16L14 16L14 17L15 17L15 19L14 19L14 18L11 18L11 19L10 19L10 17L11 17L11 16L10 16L10 15L11 15L11 14L10 14L10 15L9 15L9 12L6 12L6 11L7 11L7 10L8 10L8 11L9 11L9 10L8 10L8 9L11 9L11 8L6 8L6 9L5 9L5 8L0 8L0 11L1 11L1 12L2 12L2 11L3 11L3 13L1 13L1 14L2 14L2 15L1 15L1 16L0 16L0 17L1 17L1 18L0 18L0 19L1 19L1 20L0 20L0 21L1 21L1 22L0 22L0 24L3 24L3 25L4 25L4 26L5 26L5 28L4 28L4 27L3 27L3 26L2 26L2 25L0 25L0 29L1 29L1 26L2 26L2 27L3 27L3 29L7 29L7 28L8 28L8 31L9 31L9 32L8 32L8 37L9 37L9 35L11 35L11 34L10 34L10 33L9 33L9 32L11 32L11 33L13 33L13 31L12 31L12 32L11 32L11 30L10 30L10 31L9 31L9 29L13 29L13 30L14 30L14 29L15 29L15 31L14 31L14 34L12 34L12 35L14 35L14 37L15 37L15 35L16 35L16 34L15 34L15 33L16 33L16 30L17 30L17 29L18 29L18 30L21 30L21 31L19 31L19 32L17 32L17 33L18 33L18 36L16 36L16 37L19 37L19 33L20 33L20 34L21 34L21 36L23 36L23 35L22 35L22 34L24 34L24 33L20 33L20 32L22 32L22 30L24 30L24 31L25 31L25 30L24 30L24 29L26 29L26 32L25 32L25 34L26 34L26 35L28 35L28 36L25 36L25 35L24 35L24 37L28 37L28 36L29 36L29 35L30 35L30 34L31 34L31 36L30 36L30 37L31 37L31 36L33 36L33 37L34 37L34 36L33 36L33 35L34 35L34 33L35 33L35 32L36 32L36 33L37 33L37 32L36 32L36 31L37 31L37 26L36 26L36 25L37 25L37 24L36 24L36 25L35 25L35 24L34 24L34 23L37 23L37 22L35 22L35 21L36 21L36 19L37 19L37 18L35 18L35 20L34 20L34 17L37 17L37 14L36 14L36 13L37 13L37 10L35 10L35 9L36 9L36 8L35 8L35 9L34 9L34 8L33 8L33 10L35 10L35 12L34 12L34 13L35 13L35 15L36 15L36 16L34 16L34 14L32 14L32 13L33 13L33 11L32 11L32 8L31 8L31 10L30 10L30 8L29 8L29 10L30 10L30 11L29 11L29 12L28 12L28 10L27 10L27 11L26 11L26 12L25 12L25 9L28 9L28 7L29 7L29 6L28 6L28 5L29 5L29 4L28 4L28 5L26 5L26 4L27 4L27 3L28 3L28 2L29 2L29 0L28 0L28 1L26 1L26 0L22 0L22 1L21 1L21 0L15 0L15 1L14 1L14 0L13 0L13 1L11 1L11 2L10 2L10 0ZM16 1L16 2L15 2L15 3L18 3L18 4L17 4L17 5L16 5L16 6L15 6L15 5L14 5L14 2L12 2L12 4L13 4L13 5L14 5L14 6L15 6L15 7L16 7L16 6L17 6L17 5L19 5L19 7L20 7L20 5L19 5L19 4L20 4L20 3L21 3L21 4L25 4L25 3L26 3L26 1L22 1L22 2L23 2L23 3L21 3L21 1L19 1L19 2L18 2L18 1ZM24 2L24 3L25 3L25 2ZM10 3L10 4L11 4L11 3ZM8 5L8 7L9 7L9 5ZM21 5L21 7L22 7L22 8L20 8L20 9L21 9L21 10L22 10L22 11L24 11L24 10L22 10L22 9L24 9L24 5L23 5L23 7L22 7L22 5ZM25 5L25 8L26 8L26 5ZM27 6L27 7L28 7L28 6ZM18 8L18 9L19 9L19 8ZM2 9L2 10L1 10L1 11L2 11L2 10L4 10L4 9ZM6 9L6 10L5 10L5 11L6 11L6 10L7 10L7 9ZM11 10L11 13L12 13L12 14L13 14L13 13L14 13L14 12L15 12L15 15L16 15L16 14L17 14L17 13L18 13L18 12L17 12L17 13L16 13L16 11L17 11L17 10L14 10L14 12L13 12L13 13L12 13L12 11L13 11L13 10ZM30 11L30 12L29 12L29 13L27 13L27 15L26 15L26 13L25 13L25 12L24 12L24 13L25 13L25 16L27 16L27 17L30 17L30 18L28 18L28 21L26 21L26 22L25 22L25 21L24 21L24 22L23 22L23 23L24 23L24 24L26 24L26 23L27 23L27 22L29 22L29 25L24 25L24 26L23 26L23 24L20 24L20 22L21 22L21 18L23 18L23 19L22 19L22 20L23 20L23 19L24 19L24 20L27 20L27 18L26 18L26 17L25 17L25 18L26 18L26 19L24 19L24 18L23 18L23 17L24 17L24 14L23 14L23 12L21 12L21 13L22 13L22 16L23 16L23 17L21 17L21 18L19 18L19 19L18 19L18 17L17 17L17 20L16 20L16 19L15 19L15 20L16 20L16 21L17 21L17 20L18 20L18 21L20 21L20 22L19 22L19 23L18 23L18 22L17 22L17 23L16 23L16 25L17 25L17 26L16 26L16 27L15 27L15 26L14 26L14 24L15 24L15 21L14 21L14 19L12 19L12 20L13 20L13 21L14 21L14 22L12 22L12 21L11 21L11 20L10 20L10 19L8 19L8 18L7 18L7 17L9 17L9 16L7 16L7 15L6 15L6 16L7 16L7 17L6 17L6 18L5 18L5 17L4 17L4 18L5 18L5 19L4 19L4 20L7 20L7 21L5 21L5 22L4 22L4 21L2 21L2 22L4 22L4 23L3 23L3 24L4 24L4 23L5 23L5 24L7 24L7 23L5 23L5 22L7 22L7 21L11 21L11 23L9 23L9 22L8 22L8 23L9 23L9 24L8 24L8 25L6 25L6 26L7 26L7 27L6 27L6 28L7 28L7 27L8 27L8 28L9 28L9 26L10 26L10 25L9 25L9 24L11 24L11 27L12 27L12 28L13 28L13 29L14 29L14 28L15 28L15 29L16 29L16 28L18 28L18 29L19 29L19 28L18 28L18 27L17 27L17 26L19 26L19 27L20 27L20 26L19 26L19 24L20 24L20 25L22 25L22 28L20 28L20 29L23 29L23 28L24 28L24 27L25 27L25 28L26 28L26 27L27 27L27 28L30 28L30 27L27 27L27 26L29 26L29 25L30 25L30 26L31 26L31 28L32 28L32 27L33 27L33 26L34 26L34 28L33 28L33 30L35 30L35 29L36 29L36 27L35 27L35 25L34 25L34 24L33 24L33 21L34 21L34 20L33 20L33 19L31 19L31 17L30 17L30 14L31 14L31 13L32 13L32 11ZM4 12L4 15L5 15L5 12ZM30 12L30 13L31 13L31 12ZM6 13L6 14L8 14L8 13ZM12 15L12 17L13 17L13 15ZM28 15L28 16L29 16L29 15ZM31 15L31 16L33 16L33 15ZM2 16L2 17L3 17L3 16ZM32 17L32 18L33 18L33 17ZM1 18L1 19L2 19L2 18ZM6 18L6 19L7 19L7 20L8 20L8 19L7 19L7 18ZM29 20L29 21L30 21L30 23L32 23L32 21L33 21L33 20ZM12 24L12 25L13 25L13 24ZM17 24L17 25L18 25L18 24ZM30 24L30 25L31 25L31 26L32 26L32 25L33 25L33 24L32 24L32 25L31 25L31 24ZM12 26L12 27L14 27L14 26ZM25 26L25 27L26 27L26 26ZM34 28L34 29L35 29L35 28ZM27 29L27 31L28 31L28 29ZM29 29L29 32L32 32L32 29ZM30 30L30 31L31 31L31 30ZM34 31L34 32L35 32L35 31ZM26 33L26 34L28 34L28 35L29 35L29 34L30 34L30 33L29 33L29 34L28 34L28 33ZM31 33L31 34L32 34L32 35L33 35L33 34L32 34L32 33ZM14 34L14 35L15 35L15 34ZM35 34L35 35L36 35L36 36L35 36L35 37L37 37L37 34ZM10 36L10 37L11 37L11 36ZM0 0L0 7L7 7L7 0ZM1 1L1 6L6 6L6 1ZM2 2L2 5L5 5L5 2ZM30 0L30 7L37 7L37 0ZM31 1L31 6L36 6L36 1ZM32 2L32 5L35 5L35 2ZM0 30L0 37L7 37L7 30ZM1 31L1 36L6 36L6 31ZM2 32L2 35L5 35L5 32Z" fill="#000000"/></g></g></svg>
