<?xml version="1.0" encoding="UTF-8"?>
<svg xmlns="http://www.w3.org/2000/svg" version="1.1" width="200" height="200" viewBox="0 0 200 200"><rect x="0" y="0" width="200" height="200" fill="#ffffff"/><g transform="scale(4.878)"><g transform="translate(0,0)"><path fill-rule="evenodd" d="M8 0L8 1L10 1L10 2L8 2L8 5L10 5L10 8L8 8L8 10L6 10L6 9L7 9L7 8L6 8L6 9L4 9L4 8L0 8L0 10L2 10L2 12L3 12L3 13L4 13L4 12L5 12L5 14L6 14L6 15L4 15L4 14L2 14L2 13L1 13L1 14L0 14L0 16L1 16L1 14L2 14L2 16L4 16L4 17L2 17L2 18L1 18L1 20L0 20L0 22L1 22L1 23L0 23L0 26L1 26L1 23L3 23L3 24L2 24L2 25L3 25L3 26L4 26L4 27L1 27L1 30L0 30L0 31L1 31L1 30L3 30L3 31L2 31L2 32L1 32L1 33L3 33L3 31L4 31L4 33L8 33L8 34L9 34L9 36L10 36L10 34L11 34L11 36L12 36L12 37L10 37L10 38L9 38L9 37L8 37L8 41L11 41L11 40L12 40L12 41L16 41L16 40L17 40L17 37L16 37L16 38L14 38L14 39L16 39L16 40L12 40L12 38L13 38L13 36L16 36L16 35L18 35L18 38L19 38L19 39L20 39L20 41L29 41L29 40L25 40L25 37L23 37L23 36L26 36L26 39L27 39L27 38L28 38L28 39L29 39L29 38L28 38L28 36L29 36L29 37L30 37L30 38L31 38L31 36L32 36L32 37L36 37L36 38L35 38L35 41L37 41L37 40L38 40L38 39L39 39L39 41L40 41L40 39L41 39L41 37L39 37L39 36L41 36L41 35L39 35L39 34L41 34L41 31L40 31L40 30L37 30L37 31L36 31L36 29L38 29L38 26L40 26L40 27L39 27L39 28L40 28L40 27L41 27L41 25L39 25L39 24L40 24L40 22L38 22L38 23L35 23L35 20L36 20L36 22L37 22L37 21L39 21L39 19L40 19L40 17L38 17L38 18L36 18L36 19L34 19L34 18L33 18L33 19L32 19L32 20L30 20L30 19L31 19L31 16L30 16L30 18L29 18L29 17L27 17L27 15L26 15L26 16L25 16L25 18L24 18L24 17L23 17L23 16L24 16L24 15L25 15L25 13L23 13L23 12L26 12L26 13L28 13L28 15L29 15L29 14L31 14L31 15L32 15L32 17L33 17L33 15L34 15L34 16L35 16L35 13L36 13L36 12L37 12L37 9L39 9L39 10L41 10L41 8L40 8L40 9L39 9L39 8L36 8L36 10L35 10L35 9L34 9L34 8L33 8L33 9L32 9L32 8L30 8L30 7L31 7L31 6L32 6L32 7L33 7L33 6L32 6L32 4L31 4L31 6L30 6L30 7L29 7L29 6L28 6L28 9L29 9L29 10L28 10L28 11L27 11L27 9L25 9L25 10L23 10L23 11L22 11L22 12L21 12L21 13L23 13L23 14L22 14L22 15L21 15L21 14L19 14L19 13L20 13L20 11L19 11L19 10L21 10L21 9L23 9L23 8L25 8L25 5L24 5L24 7L23 7L23 5L22 5L22 7L23 7L23 8L21 8L21 9L20 9L20 8L19 8L19 6L20 6L20 7L21 7L21 6L20 6L20 5L18 5L18 4L16 4L16 2L18 2L18 3L19 3L19 2L18 2L18 0L17 0L17 1L16 1L16 2L15 2L15 1L14 1L14 2L13 2L13 1L12 1L12 0L11 0L11 1L10 1L10 0ZM19 0L19 1L26 1L26 2L22 2L22 3L21 3L21 4L25 4L25 3L26 3L26 5L27 5L27 3L28 3L28 2L27 2L27 0ZM30 0L30 1L29 1L29 2L30 2L30 3L29 3L29 4L28 4L28 5L29 5L29 4L30 4L30 3L31 3L31 2L30 2L30 1L33 1L33 0ZM11 1L11 2L10 2L10 3L9 3L9 4L10 4L10 5L11 5L11 7L12 7L12 6L13 6L13 9L12 9L12 8L10 8L10 9L9 9L9 12L10 12L10 13L12 13L12 14L10 14L10 15L9 15L9 13L8 13L8 14L7 14L7 13L6 13L6 14L7 14L7 15L6 15L6 16L5 16L5 19L4 19L4 18L2 18L2 20L1 20L1 22L2 22L2 21L3 21L3 23L4 23L4 20L5 20L5 22L8 22L8 20L9 20L9 17L11 17L11 18L10 18L10 20L11 20L11 19L12 19L12 17L11 17L11 16L12 16L12 14L13 14L13 16L15 16L15 17L16 17L16 16L17 16L17 18L16 18L16 19L15 19L15 18L13 18L13 20L12 20L12 21L11 21L11 22L10 22L10 25L6 25L6 24L9 24L9 23L5 23L5 25L6 25L6 26L7 26L7 27L5 27L5 29L4 29L4 28L3 28L3 29L4 29L4 31L5 31L5 29L6 29L6 30L10 30L10 31L12 31L12 32L11 32L11 33L13 33L13 34L12 34L12 35L14 35L14 33L15 33L15 35L16 35L16 32L17 32L17 31L18 31L18 32L19 32L19 33L20 33L20 32L22 32L22 34L23 34L23 33L25 33L25 35L26 35L26 36L27 36L27 35L28 35L28 34L30 34L30 35L29 35L29 36L31 36L31 34L32 34L32 29L33 29L33 28L34 28L34 30L33 30L33 32L36 32L36 31L35 31L35 28L34 28L34 27L37 27L37 25L38 25L38 24L39 24L39 23L38 23L38 24L35 24L35 23L32 23L32 22L30 22L30 21L29 21L29 22L27 22L27 21L25 21L25 20L26 20L26 19L27 19L27 18L26 18L26 19L24 19L24 18L23 18L23 19L24 19L24 20L22 20L22 19L21 19L21 18L22 18L22 17L21 17L21 18L20 18L20 17L18 17L18 13L19 13L19 12L18 12L18 11L17 11L17 10L18 10L18 9L15 9L15 8L14 8L14 6L15 6L15 7L16 7L16 6L15 6L15 5L16 5L16 4L15 4L15 3L13 3L13 2L12 2L12 1ZM11 2L11 3L10 3L10 4L12 4L12 5L13 5L13 6L14 6L14 5L13 5L13 4L12 4L12 2ZM26 2L26 3L27 3L27 2ZM17 5L17 7L18 7L18 5ZM8 6L8 7L9 7L9 6ZM26 6L26 7L27 7L27 6ZM3 9L3 12L4 12L4 9ZM10 9L10 12L11 12L11 11L12 11L12 12L13 12L13 11L14 11L14 9L13 9L13 11L12 11L12 9ZM31 9L31 10L30 10L30 11L28 11L28 13L29 13L29 12L30 12L30 13L32 13L32 14L33 14L33 13L35 13L35 12L36 12L36 11L35 11L35 10L32 10L32 9ZM5 10L5 11L6 11L6 12L7 12L7 11L6 11L6 10ZM25 10L25 11L26 11L26 10ZM15 11L15 12L14 12L14 13L13 13L13 14L14 14L14 15L15 15L15 16L16 16L16 15L15 15L15 12L16 12L16 13L17 13L17 11ZM30 11L30 12L31 12L31 11ZM32 11L32 13L33 13L33 11ZM34 11L34 12L35 12L35 11ZM39 11L39 12L38 12L38 13L37 13L37 15L36 15L36 17L37 17L37 15L39 15L39 16L40 16L40 15L41 15L41 13L40 13L40 12L41 12L41 11ZM38 13L38 14L39 14L39 13ZM23 14L23 15L22 15L22 16L23 16L23 15L24 15L24 14ZM7 15L7 16L6 16L6 17L7 17L7 18L6 18L6 19L5 19L5 20L6 20L6 21L7 21L7 20L8 20L8 17L7 17L7 16L8 16L8 15ZM19 15L19 16L21 16L21 15ZM17 18L17 20L16 20L16 21L14 21L14 20L13 20L13 21L14 21L14 23L11 23L11 26L10 26L10 29L13 29L13 31L17 31L17 29L19 29L19 30L20 30L20 31L22 31L22 32L25 32L25 31L26 31L26 32L28 32L28 33L30 33L30 34L31 34L31 30L29 30L29 29L27 29L27 28L28 28L28 27L29 27L29 26L30 26L30 27L31 27L31 29L32 29L32 28L33 28L33 27L34 27L34 26L36 26L36 25L34 25L34 24L33 24L33 25L30 25L30 24L31 24L31 23L30 23L30 24L28 24L28 23L25 23L25 24L24 24L24 22L23 22L23 21L22 21L22 22L23 22L23 24L22 24L22 25L23 25L23 24L24 24L24 25L25 25L25 27L26 27L26 28L25 28L25 29L24 29L24 30L25 30L25 31L23 31L23 30L22 30L22 29L23 29L23 28L24 28L24 27L23 27L23 26L21 26L21 27L20 27L20 25L21 25L21 21L20 21L20 20L21 20L21 19L19 19L19 18ZM28 18L28 20L29 20L29 18ZM3 19L3 20L4 20L4 19ZM6 19L6 20L7 20L7 19ZM18 19L18 20L17 20L17 22L16 22L16 24L14 24L14 26L11 26L11 28L12 28L12 27L14 27L14 28L13 28L13 29L14 29L14 30L16 30L16 29L15 29L15 28L16 28L16 26L18 26L18 25L20 25L20 24L18 24L18 23L20 23L20 21L19 21L19 19ZM33 19L33 20L32 20L32 21L33 21L33 20L34 20L34 19ZM36 19L36 20L37 20L37 19ZM40 20L40 21L41 21L41 20ZM18 21L18 22L17 22L17 23L18 23L18 22L19 22L19 21ZM3 24L3 25L4 25L4 24ZM17 24L17 25L18 25L18 24ZM26 24L26 27L28 27L28 26L29 26L29 25L28 25L28 24ZM15 25L15 26L14 26L14 27L15 27L15 26L16 26L16 25ZM27 25L27 26L28 26L28 25ZM32 26L32 27L33 27L33 26ZM8 27L8 28L6 28L6 29L9 29L9 27ZM19 27L19 29L20 29L20 27ZM22 27L22 28L21 28L21 29L22 29L22 28L23 28L23 27ZM26 29L26 30L27 30L27 29ZM6 31L6 32L7 32L7 31ZM8 31L8 33L10 33L10 32L9 32L9 31ZM39 31L39 32L38 32L38 34L39 34L39 32L40 32L40 31ZM17 33L17 34L18 34L18 35L20 35L20 36L19 36L19 37L21 37L21 36L22 36L22 35L21 35L21 34L18 34L18 33ZM26 33L26 35L27 35L27 33ZM33 33L33 36L36 36L36 33ZM34 34L34 35L35 35L35 34ZM37 35L37 37L38 37L38 38L39 38L39 37L38 37L38 36L39 36L39 35ZM22 37L22 38L21 38L21 39L23 39L23 40L24 40L24 38L23 38L23 37ZM10 38L10 39L9 39L9 40L11 40L11 38ZM33 38L33 39L32 39L32 40L30 40L30 41L33 41L33 40L34 40L34 38ZM36 38L36 39L37 39L37 38ZM18 40L18 41L19 41L19 40ZM0 0L0 7L7 7L7 0ZM1 1L1 6L6 6L6 1ZM2 2L2 5L5 5L5 2ZM34 0L34 7L41 7L41 0ZM35 1L35 6L40 6L40 1ZM36 2L36 5L39 5L39 2ZM0 34L0 41L7 41L7 34ZM1 35L1 40L6 40L6 35ZM2 36L2 39L5 39L5 36Z" fill="#000000"/></g></g></svg>
