<?xml version="1.0" encoding="UTF-8"?>
<svg xmlns="http://www.w3.org/2000/svg" version="1.1" width="200" height="200" viewBox="0 0 200 200"><rect x="0" y="0" width="200" height="200" fill="#ffffff"/><g transform="scale(4.878)"><g transform="translate(0,0)"><path fill-rule="evenodd" d="M8 0L8 4L10 4L10 5L8 5L8 7L9 7L9 6L10 6L10 7L11 7L11 6L12 6L12 7L13 7L13 6L14 6L14 7L15 7L15 6L16 6L16 7L17 7L17 10L16 10L16 8L14 8L14 10L12 10L12 11L11 11L11 9L13 9L13 8L10 8L10 11L11 11L11 12L10 12L10 14L11 14L11 16L12 16L12 15L15 15L15 16L14 16L14 17L13 17L13 18L14 18L14 17L15 17L15 19L14 19L14 20L13 20L13 19L12 19L12 18L11 18L11 17L10 17L10 18L9 18L9 19L8 19L8 18L6 18L6 19L8 19L8 20L6 20L6 21L5 21L5 22L4 22L4 20L3 20L3 19L4 19L4 18L5 18L5 17L7 17L7 16L8 16L8 17L9 17L9 16L10 16L10 15L9 15L9 16L8 16L8 15L7 15L7 14L9 14L9 9L7 9L7 8L4 8L4 10L3 10L3 9L2 9L2 8L0 8L0 10L1 10L1 9L2 9L2 11L4 11L4 10L5 10L5 9L7 9L7 10L6 10L6 11L5 11L5 12L4 12L4 14L3 14L3 12L2 12L2 14L1 14L1 13L0 13L0 15L2 15L2 16L0 16L0 18L2 18L2 17L3 17L3 19L0 19L0 20L1 20L1 23L0 23L0 24L1 24L1 25L2 25L2 24L3 24L3 26L0 26L0 27L1 27L1 29L0 29L0 30L1 30L1 29L2 29L2 31L3 31L3 32L0 32L0 33L3 33L3 32L5 32L5 30L4 30L4 31L3 31L3 29L2 29L2 28L4 28L4 29L7 29L7 28L8 28L8 30L6 30L6 31L8 31L8 30L9 30L9 31L10 31L10 32L9 32L9 33L8 33L8 32L6 32L6 33L8 33L8 34L9 34L9 33L10 33L10 32L12 32L12 33L11 33L11 35L12 35L12 37L16 37L16 39L17 39L17 41L18 41L18 40L19 40L19 39L18 39L18 37L19 37L19 38L20 38L20 41L24 41L24 40L25 40L25 38L23 38L23 39L24 39L24 40L22 40L22 36L23 36L23 35L24 35L24 36L25 36L25 37L26 37L26 38L27 38L27 39L26 39L26 41L30 41L30 40L31 40L31 39L32 39L32 41L33 41L33 40L35 40L35 39L32 39L32 37L35 37L35 38L36 38L36 37L38 37L38 34L39 34L39 35L40 35L40 36L39 36L39 38L38 38L38 39L37 39L37 41L38 41L38 39L39 39L39 41L40 41L40 40L41 40L41 37L40 37L40 36L41 36L41 33L40 33L40 31L41 31L41 29L40 29L40 30L39 30L39 29L38 29L38 30L37 30L37 29L34 29L34 28L33 28L33 27L31 27L31 26L28 26L28 25L30 25L30 24L31 24L31 25L32 25L32 26L35 26L35 27L36 27L36 26L37 26L37 25L38 25L38 26L39 26L39 28L41 28L41 25L40 25L40 24L39 24L39 25L38 25L38 24L37 24L37 23L36 23L36 24L37 24L37 25L36 25L36 26L35 26L35 25L33 25L33 24L34 24L34 23L33 23L33 24L32 24L32 23L29 23L29 21L30 21L30 22L31 22L31 21L34 21L34 22L35 22L35 21L34 21L34 19L35 19L35 20L36 20L36 18L37 18L37 21L36 21L36 22L40 22L40 23L41 23L41 22L40 22L40 21L38 21L38 19L39 19L39 20L41 20L41 17L39 17L39 18L37 18L37 17L38 17L38 16L37 16L37 17L36 17L36 14L37 14L37 13L38 13L38 11L40 11L40 12L41 12L41 8L37 8L37 9L36 9L36 8L35 8L35 9L34 9L34 10L32 10L32 9L33 9L33 5L31 5L31 3L32 3L32 1L31 1L31 0L30 0L30 2L29 2L29 3L28 3L28 7L27 7L27 3L26 3L26 9L25 9L25 6L24 6L24 7L23 7L23 6L22 6L22 7L21 7L21 6L20 6L20 4L19 4L19 3L20 3L20 1L19 1L19 2L17 2L17 1L16 1L16 0L13 0L13 2L12 2L12 3L13 3L13 2L14 2L14 3L15 3L15 4L16 4L16 5L14 5L14 4L13 4L13 5L11 5L11 3L10 3L10 1L9 1L9 0ZM11 0L11 1L12 1L12 0ZM22 0L22 1L23 1L23 2L21 2L21 4L22 4L22 3L23 3L23 2L24 2L24 3L25 3L25 0ZM26 0L26 1L27 1L27 0ZM28 0L28 1L29 1L29 0ZM15 1L15 3L17 3L17 2L16 2L16 1ZM29 3L29 4L30 4L30 3ZM17 4L17 5L16 5L16 6L17 6L17 7L18 7L18 6L19 6L19 8L18 8L18 9L19 9L19 11L18 11L18 10L17 10L17 11L18 11L18 12L17 12L17 13L15 13L15 12L16 12L16 11L14 11L14 13L13 13L13 12L11 12L11 14L12 14L12 13L13 13L13 14L14 14L14 13L15 13L15 14L16 14L16 15L17 15L17 13L18 13L18 14L19 14L19 15L18 15L18 17L16 17L16 16L15 16L15 17L16 17L16 18L18 18L18 17L19 17L19 19L18 19L18 20L15 20L15 21L14 21L14 22L13 22L13 21L9 21L9 20L8 20L8 21L6 21L6 22L5 22L5 23L3 23L3 24L4 24L4 25L5 25L5 26L9 26L9 25L10 25L10 23L11 23L11 24L12 24L12 23L13 23L13 25L11 25L11 26L12 26L12 28L11 28L11 30L10 30L10 29L9 29L9 30L10 30L10 31L11 31L11 30L12 30L12 29L13 29L13 26L15 26L15 25L14 25L14 23L15 23L15 24L16 24L16 26L17 26L17 27L14 27L14 29L15 29L15 30L16 30L16 31L17 31L17 30L18 30L18 29L19 29L19 28L20 28L20 27L21 27L21 26L23 26L23 25L24 25L24 24L25 24L25 25L26 25L26 26L24 26L24 27L22 27L22 28L21 28L21 29L20 29L20 30L19 30L19 31L18 31L18 33L17 33L17 32L15 32L15 31L14 31L14 30L13 30L13 31L12 31L12 32L13 32L13 33L14 33L14 34L12 34L12 35L13 35L13 36L14 36L14 35L15 35L15 36L16 36L16 37L18 37L18 36L17 36L17 34L18 34L18 35L19 35L19 36L21 36L21 35L23 35L23 33L24 33L24 32L23 32L23 30L25 30L25 34L24 34L24 35L25 35L25 36L26 36L26 37L28 37L28 38L29 38L29 36L28 36L28 35L29 35L29 34L30 34L30 36L32 36L32 35L31 35L31 34L30 34L30 33L32 33L32 32L33 32L33 31L34 31L34 30L33 30L33 28L31 28L31 30L30 30L30 29L29 29L29 28L27 28L27 25L26 25L26 24L29 24L29 23L26 23L26 22L25 22L25 21L26 21L26 19L27 19L27 20L28 20L28 21L27 21L27 22L28 22L28 21L29 21L29 20L28 20L28 19L27 19L27 17L26 17L26 16L28 16L28 18L29 18L29 19L30 19L30 21L31 21L31 20L33 20L33 18L34 18L34 17L35 17L35 18L36 18L36 17L35 17L35 15L34 15L34 14L33 14L33 12L32 12L32 13L31 13L31 12L30 12L30 13L29 13L29 8L27 8L27 9L26 9L26 10L27 10L27 9L28 9L28 11L27 11L27 12L26 12L26 11L25 11L25 12L26 12L26 13L24 13L24 11L23 11L23 13L22 13L22 12L21 12L21 11L22 11L22 10L25 10L25 9L24 9L24 8L22 8L22 10L21 10L21 9L20 9L20 6L19 6L19 5L18 5L18 4ZM23 4L23 5L25 5L25 4ZM29 5L29 7L30 7L30 9L31 9L31 8L32 8L32 6L31 6L31 7L30 7L30 5ZM35 9L35 10L36 10L36 9ZM39 9L39 10L40 10L40 9ZM7 10L7 11L6 11L6 12L5 12L5 14L4 14L4 15L3 15L3 16L4 16L4 17L5 17L5 16L4 16L4 15L6 15L6 16L7 16L7 15L6 15L6 14L7 14L7 13L8 13L8 10ZM20 10L20 11L21 11L21 10ZM30 10L30 11L32 11L32 10ZM37 10L37 11L38 11L38 10ZM0 11L0 12L1 12L1 11ZM6 12L6 13L7 13L7 12ZM20 12L20 13L19 13L19 14L20 14L20 16L19 16L19 17L23 17L23 20L22 20L22 18L21 18L21 20L20 20L20 19L19 19L19 20L18 20L18 22L17 22L17 21L16 21L16 23L17 23L17 26L18 26L18 27L19 27L19 26L18 26L18 24L19 24L19 23L18 23L18 22L20 22L20 21L21 21L21 23L20 23L20 24L21 24L21 25L23 25L23 24L24 24L24 23L25 23L25 22L22 22L22 21L23 21L23 20L24 20L24 21L25 21L25 20L24 20L24 18L26 18L26 17L25 17L25 14L20 14L20 13L21 13L21 12ZM34 12L34 13L35 13L35 12ZM36 12L36 13L37 13L37 12ZM26 13L26 14L27 14L27 15L28 15L28 16L29 16L29 17L30 17L30 16L31 16L31 17L32 17L32 18L33 18L33 14L32 14L32 16L31 16L31 15L30 15L30 14L29 14L29 13L28 13L28 14L27 14L27 13ZM39 13L39 14L38 14L38 15L39 15L39 16L41 16L41 13ZM28 14L28 15L29 15L29 14ZM39 14L39 15L40 15L40 14ZM10 18L10 19L11 19L11 18ZM2 20L2 21L3 21L3 20ZM21 20L21 21L22 21L22 20ZM8 21L8 23L10 23L10 22L9 22L9 21ZM6 22L6 23L5 23L5 24L6 24L6 25L9 25L9 24L6 24L6 23L7 23L7 22ZM22 23L22 24L23 24L23 23ZM5 27L5 28L7 28L7 27ZM8 27L8 28L9 28L9 27ZM24 27L24 28L22 28L22 29L21 29L21 30L20 30L20 31L19 31L19 33L18 33L18 34L19 34L19 33L20 33L20 31L21 31L21 34L20 34L20 35L21 35L21 34L22 34L22 33L23 33L23 32L22 32L22 29L25 29L25 30L27 30L27 31L28 31L28 29L26 29L26 28L25 28L25 27ZM37 27L37 28L38 28L38 27ZM15 28L15 29L17 29L17 28ZM32 30L32 31L33 31L33 30ZM35 30L35 32L36 32L36 30ZM29 31L29 33L30 33L30 32L31 32L31 31ZM38 31L38 32L39 32L39 31ZM14 32L14 33L15 33L15 35L16 35L16 34L17 34L17 33L15 33L15 32ZM26 32L26 33L27 33L27 35L26 35L26 34L25 34L25 35L26 35L26 36L27 36L27 35L28 35L28 33L27 33L27 32ZM33 33L33 36L36 36L36 33ZM37 33L37 34L38 34L38 33ZM39 33L39 34L40 34L40 33ZM34 34L34 35L35 35L35 34ZM8 35L8 37L9 37L9 39L8 39L8 41L12 41L12 40L13 40L13 39L12 39L12 40L9 40L9 39L11 39L11 37L10 37L10 35ZM20 37L20 38L21 38L21 37ZM30 37L30 39L31 39L31 37ZM39 38L39 39L40 39L40 38ZM14 39L14 41L16 41L16 40L15 40L15 39ZM27 39L27 40L28 40L28 39ZM0 0L0 7L7 7L7 0ZM1 1L1 6L6 6L6 1ZM2 2L2 5L5 5L5 2ZM34 0L34 7L41 7L41 0ZM35 1L35 6L40 6L40 1ZM36 2L36 5L39 5L39 2ZM0 34L0 41L7 41L7 34ZM1 35L1 40L6 40L6 35ZM2 36L2 39L5 39L5 36Z" fill="#000000"/></g></g></svg>
