<?xml version="1.0" encoding="UTF-8"?>
<svg xmlns="http://www.w3.org/2000/svg" version="1.1" width="200" height="200" viewBox="0 0 200 200"><rect x="0" y="0" width="200" height="200" fill="#ffffff"/><g transform="scale(5.405)"><g transform="translate(0,0)"><path fill-rule="evenodd" d="M10 0L10 2L11 2L11 0ZM12 0L12 1L13 1L13 0ZM15 0L15 2L14 2L14 7L15 7L15 8L14 8L14 9L12 9L12 7L13 7L13 5L11 5L11 6L10 6L10 4L11 4L11 3L8 3L8 4L9 4L9 5L8 5L8 7L9 7L9 8L6 8L6 9L9 9L9 10L5 10L5 11L10 11L10 12L9 12L9 15L8 15L8 16L9 16L9 18L8 18L8 17L7 17L7 16L6 16L6 15L7 15L7 14L6 14L6 15L5 15L5 14L3 14L3 15L4 15L4 17L7 17L7 18L4 18L4 19L7 19L7 20L6 20L6 21L7 21L7 20L8 20L8 19L10 19L10 20L9 20L9 21L8 21L8 24L9 24L9 25L10 25L10 28L11 28L11 25L12 25L12 26L13 26L13 27L12 27L12 29L13 29L13 28L14 28L14 29L15 29L15 31L14 31L14 32L15 32L15 33L12 33L12 31L13 31L13 30L10 30L10 29L8 29L8 28L6 28L6 27L8 27L8 26L6 26L6 25L7 25L7 24L6 24L6 23L7 23L7 22L6 22L6 23L5 23L5 24L4 24L4 25L5 25L5 26L6 26L6 27L5 27L5 28L3 28L3 27L4 27L4 26L3 26L3 27L2 27L2 29L8 29L8 31L9 31L9 30L10 30L10 31L11 31L11 33L12 33L12 34L13 34L13 35L12 35L12 37L13 37L13 36L14 36L14 37L15 37L15 36L14 36L14 35L16 35L16 34L15 34L15 33L16 33L16 30L17 30L17 29L18 29L18 30L21 30L21 31L19 31L19 32L17 32L17 33L18 33L18 36L16 36L16 37L19 37L19 33L20 33L20 34L21 34L21 36L23 36L23 35L22 35L22 34L24 34L24 33L20 33L20 32L22 32L22 30L24 30L24 31L25 31L25 30L24 30L24 29L26 29L26 32L25 32L25 34L26 34L26 35L28 35L28 36L25 36L25 35L24 35L24 37L28 37L28 36L29 36L29 37L31 37L31 36L33 36L33 37L34 37L34 36L33 36L33 35L34 35L34 33L35 33L35 35L36 35L36 36L35 36L35 37L37 37L37 33L35 33L35 32L34 32L34 31L37 31L37 26L36 26L36 25L37 25L37 24L36 24L36 25L35 25L35 24L34 24L34 23L37 23L37 22L35 22L35 21L36 21L36 19L37 19L37 18L35 18L35 20L34 20L34 17L37 17L37 14L36 14L36 13L37 13L37 10L35 10L35 9L36 9L36 8L35 8L35 9L34 9L34 8L33 8L33 10L35 10L35 12L34 12L34 13L35 13L35 15L36 15L36 16L34 16L34 14L32 14L32 13L33 13L33 11L32 11L32 8L31 8L31 10L30 10L30 8L29 8L29 10L30 10L30 11L29 11L29 12L28 12L28 10L27 10L27 11L26 11L26 12L25 12L25 9L28 9L28 7L29 7L29 6L28 6L28 5L29 5L29 4L28 4L28 5L26 5L26 4L27 4L27 3L28 3L28 2L29 2L29 0L28 0L28 1L26 1L26 0L22 0L22 1L21 1L21 0ZM8 1L8 2L9 2L9 1ZM16 1L16 2L15 2L15 3L16 3L16 4L17 4L17 5L16 5L16 6L15 6L15 7L16 7L16 9L14 9L14 10L12 10L12 9L11 9L11 8L10 8L10 9L11 9L11 13L10 13L10 14L13 14L13 15L12 15L12 17L10 17L10 18L11 18L11 21L10 21L10 22L9 22L9 23L10 23L10 24L11 24L11 22L13 22L13 23L12 23L12 25L15 25L15 24L14 24L14 23L15 23L15 21L17 21L17 20L18 20L18 21L20 21L20 22L19 22L19 23L18 23L18 22L17 22L17 24L16 24L16 25L17 25L17 26L19 26L19 27L20 27L20 26L19 26L19 24L20 24L20 25L22 25L22 28L20 28L20 29L23 29L23 28L24 28L24 27L25 27L25 28L26 28L26 27L27 27L27 26L28 26L28 28L29 28L29 27L31 27L31 28L32 28L32 27L33 27L33 26L34 26L34 28L33 28L33 30L35 30L35 29L36 29L36 27L35 27L35 25L34 25L34 24L33 24L33 21L34 21L34 20L33 20L33 19L31 19L31 17L30 17L30 14L31 14L31 13L32 13L32 11L30 11L30 12L29 12L29 13L27 13L27 15L26 15L26 13L25 13L25 12L24 12L24 13L25 13L25 16L27 16L27 17L30 17L30 18L28 18L28 21L26 21L26 22L25 22L25 21L24 21L24 22L23 22L23 23L24 23L24 24L26 24L26 23L27 23L27 24L28 24L28 23L27 23L27 22L29 22L29 21L30 21L30 22L31 22L31 21L30 21L30 20L33 20L33 21L32 21L32 23L29 23L29 25L24 25L24 26L23 26L23 24L20 24L20 22L21 22L21 18L23 18L23 19L22 19L22 20L23 20L23 19L24 19L24 20L27 20L27 18L26 18L26 17L25 17L25 18L26 18L26 19L24 19L24 18L23 18L23 17L24 17L24 14L23 14L23 11L24 11L24 10L22 10L22 9L24 9L24 5L23 5L23 7L22 7L22 5L21 5L21 7L22 7L22 8L20 8L20 9L21 9L21 10L18 10L18 9L19 9L19 8L18 8L18 6L17 6L17 5L19 5L19 7L20 7L20 5L19 5L19 4L20 4L20 3L21 3L21 4L25 4L25 3L26 3L26 1L22 1L22 2L23 2L23 3L21 3L21 1L19 1L19 2L18 2L18 1ZM12 2L12 4L13 4L13 2ZM16 2L16 3L17 3L17 4L18 4L18 3L17 3L17 2ZM24 2L24 3L25 3L25 2ZM25 5L25 8L26 8L26 5ZM9 6L9 7L10 7L10 6ZM11 6L11 7L12 7L12 6ZM16 6L16 7L17 7L17 6ZM27 6L27 7L28 7L28 6ZM0 8L0 10L2 10L2 13L1 13L1 11L0 11L0 14L1 14L1 17L2 17L2 13L3 13L3 12L4 12L4 13L7 13L7 12L4 12L4 11L3 11L3 10L4 10L4 9L5 9L5 8ZM17 8L17 9L18 9L18 8ZM15 10L15 11L14 11L14 13L13 13L13 11L12 11L12 13L13 13L13 14L14 14L14 16L15 16L15 18L14 18L14 17L12 17L12 18L13 18L13 19L12 19L12 21L13 21L13 20L14 20L14 21L15 21L15 20L16 20L16 19L17 19L17 17L18 17L18 19L19 19L19 18L21 18L21 17L23 17L23 16L22 16L22 13L21 13L21 12L22 12L22 10L21 10L21 12L20 12L20 11L19 11L19 12L20 12L20 13L19 13L19 14L21 14L21 16L20 16L20 17L18 17L18 16L19 16L19 15L18 15L18 16L17 16L17 15L16 15L16 14L17 14L17 13L18 13L18 12L17 12L17 13L16 13L16 11L17 11L17 10ZM30 12L30 13L31 13L31 12ZM14 13L14 14L15 14L15 13ZM10 15L10 16L11 16L11 15ZM28 15L28 16L29 16L29 15ZM31 15L31 16L33 16L33 15ZM32 17L32 18L33 18L33 17ZM0 18L0 29L1 29L1 25L2 25L2 24L1 24L1 21L2 21L2 20L1 20L1 19L3 19L3 18ZM14 19L14 20L15 20L15 19ZM3 21L3 22L2 22L2 23L3 23L3 22L5 22L5 21ZM17 24L17 25L18 25L18 24ZM30 24L30 25L29 25L29 26L30 26L30 25L31 25L31 26L32 26L32 25L33 25L33 24L32 24L32 25L31 25L31 24ZM25 26L25 27L26 27L26 26ZM14 27L14 28L15 28L15 29L17 29L17 28L18 28L18 29L19 29L19 28L18 28L18 27ZM34 28L34 29L35 29L35 28ZM27 29L27 31L28 31L28 29ZM29 29L29 32L32 32L32 29ZM30 30L30 31L31 31L31 30ZM8 32L8 37L11 37L11 34L9 34L9 33L10 33L10 32ZM26 33L26 34L30 34L30 35L31 35L31 34L32 34L32 35L33 35L33 34L32 34L32 33L31 33L31 34L30 34L30 33ZM9 35L9 36L10 36L10 35ZM0 0L0 7L7 7L7 0ZM1 1L1 6L6 6L6 1ZM2 2L2 5L5 5L5 2ZM30 0L30 7L37 7L37 0ZM31 1L31 6L36 6L36 1ZM32 2L32 5L35 5L35 2ZM0 30L0 37L7 37L7 30ZM1 31L1 36L6 36L6 31ZM2 32L2 35L5 35L5 32Z" fill="#000000"/></g></g></svg>
