<?xml version="1.0" encoding="UTF-8"?>
<svg xmlns="http://www.w3.org/2000/svg" version="1.1" width="200" height="200" viewBox="0 0 200 200"><rect x="0" y="0" width="200" height="200" fill="#ffffff"/><g transform="scale(5.405)"><g transform="translate(0,0)"><path fill-rule="evenodd" d="M8 0L8 4L9 4L9 5L8 5L8 7L9 7L9 6L10 6L10 9L11 9L11 8L12 8L12 9L13 9L13 10L14 10L14 11L15 11L15 12L16 12L16 14L15 14L15 13L14 13L14 12L13 12L13 11L12 11L12 12L10 12L10 10L9 10L9 9L7 9L7 8L4 8L4 9L2 9L2 8L0 8L0 13L1 13L1 14L0 14L0 16L2 16L2 15L3 15L3 16L4 16L4 17L5 17L5 16L4 16L4 15L3 15L3 14L4 14L4 13L7 13L7 14L5 14L5 15L7 15L7 16L6 16L6 17L7 17L7 16L8 16L8 13L7 13L7 12L10 12L10 13L9 13L9 14L11 14L11 15L9 15L9 17L8 17L8 18L5 18L5 19L7 19L7 20L5 20L5 21L7 21L7 20L8 20L8 21L9 21L9 22L6 22L6 23L5 23L5 22L4 22L4 18L3 18L3 17L1 17L1 20L2 20L2 24L1 24L1 23L0 23L0 26L1 26L1 25L2 25L2 26L4 26L4 27L2 27L2 28L0 28L0 29L2 29L2 28L5 28L5 29L7 29L7 28L9 28L9 29L8 29L8 30L10 30L10 32L12 32L12 33L13 33L13 35L12 35L12 36L11 36L11 35L10 35L10 36L9 36L9 35L8 35L8 37L10 37L10 36L11 36L11 37L22 37L22 35L23 35L23 36L24 36L24 37L25 37L25 36L24 36L24 35L25 35L25 34L24 34L24 33L22 33L22 32L25 32L25 31L24 31L24 29L25 29L25 30L26 30L26 32L28 32L28 33L30 33L30 35L29 35L29 34L28 34L28 35L29 35L29 37L33 37L33 35L34 35L34 36L35 36L35 37L37 37L37 36L36 36L36 35L35 35L35 34L37 34L37 33L36 33L36 32L37 32L37 31L36 31L36 32L35 32L35 31L34 31L34 29L35 29L35 30L37 30L37 28L36 28L36 27L35 27L35 26L36 26L36 25L37 25L37 23L34 23L34 22L35 22L35 21L36 21L36 20L37 20L37 19L36 19L36 20L35 20L35 18L33 18L33 17L32 17L32 18L30 18L30 17L31 17L31 16L30 16L30 14L28 14L28 13L29 13L29 11L30 11L30 13L32 13L32 14L31 14L31 15L33 15L33 16L34 16L34 17L37 17L37 16L36 16L36 15L35 15L35 14L36 14L36 13L37 13L37 12L35 12L35 9L37 9L37 8L33 8L33 9L32 9L32 8L31 8L31 9L32 9L32 10L31 10L31 11L30 11L30 9L29 9L29 10L28 10L28 9L25 9L25 8L24 8L24 7L25 7L25 6L26 6L26 8L29 8L29 6L28 6L28 7L27 7L27 6L26 6L26 5L29 5L29 0L26 0L26 1L25 1L25 0L22 0L22 2L21 2L21 1L19 1L19 0L16 0L16 1L18 1L18 2L14 2L14 1L15 1L15 0L14 0L14 1L11 1L11 2L12 2L12 5L13 5L13 6L12 6L12 7L11 7L11 3L10 3L10 2L9 2L9 0ZM23 1L23 2L22 2L22 3L21 3L21 2L19 2L19 4L18 4L18 3L17 3L17 4L16 4L16 5L14 5L14 6L13 6L13 7L12 7L12 8L14 8L14 9L15 9L15 8L16 8L16 10L18 10L18 9L19 9L19 11L20 11L20 13L19 13L19 12L18 12L18 13L17 13L17 14L19 14L19 15L18 15L18 17L17 17L17 15L15 15L15 14L14 14L14 13L13 13L13 12L12 12L12 13L11 13L11 14L12 14L12 13L13 13L13 15L12 15L12 16L11 16L11 19L10 19L10 17L9 17L9 19L8 19L8 20L10 20L10 23L8 23L8 27L9 27L9 26L11 26L11 28L12 28L12 29L11 29L11 30L12 30L12 29L14 29L14 28L15 28L15 30L13 30L13 31L12 31L12 32L14 32L14 35L13 35L13 36L14 36L14 35L15 35L15 36L16 36L16 35L15 35L15 33L16 33L16 34L18 34L18 36L21 36L21 34L22 34L22 33L20 33L20 32L19 32L19 33L20 33L20 34L18 34L18 33L17 33L17 32L15 32L15 30L16 30L16 29L17 29L17 30L18 30L18 29L19 29L19 31L21 31L21 30L22 30L22 29L23 29L23 28L22 28L22 29L20 29L20 28L19 28L19 27L20 27L20 26L23 26L23 24L24 24L24 23L23 23L23 22L22 22L22 20L21 20L21 17L22 17L22 19L23 19L23 20L24 20L24 19L25 19L25 21L24 21L24 22L25 22L25 25L24 25L24 26L25 26L25 25L28 25L28 27L27 27L27 26L26 26L26 27L24 27L24 28L25 28L25 29L26 29L26 30L27 30L27 31L28 31L28 30L27 30L27 29L28 29L28 27L29 27L29 28L32 28L32 27L33 27L33 26L32 26L32 25L33 25L33 22L34 22L34 21L33 21L33 19L31 19L31 21L30 21L30 20L27 20L27 18L28 18L28 17L30 17L30 16L29 16L29 15L28 15L28 14L27 14L27 13L28 13L28 12L26 12L26 11L27 11L27 10L24 10L24 11L22 11L22 13L21 13L21 10L22 10L22 9L24 9L24 8L22 8L22 9L20 9L20 8L19 8L19 7L20 7L20 6L21 6L21 7L22 7L22 6L23 6L23 7L24 7L24 5L21 5L21 4L22 4L22 3L26 3L26 2L28 2L28 1L26 1L26 2L25 2L25 1ZM13 2L13 4L14 4L14 2ZM20 3L20 4L21 4L21 3ZM27 3L27 4L28 4L28 3ZM25 4L25 5L26 5L26 4ZM16 5L16 8L17 8L17 9L18 9L18 7L19 7L19 6L20 6L20 5ZM14 6L14 8L15 8L15 6ZM17 6L17 7L18 7L18 6ZM1 9L1 10L2 10L2 9ZM6 9L6 10L5 10L5 11L6 11L6 12L7 12L7 11L6 11L6 10L7 10L7 9ZM33 9L33 10L32 10L32 11L31 11L31 12L32 12L32 13L33 13L33 12L34 12L34 9ZM3 10L3 11L1 11L1 13L2 13L2 14L3 14L3 12L4 12L4 10ZM8 10L8 11L9 11L9 10ZM16 11L16 12L17 12L17 11ZM32 11L32 12L33 12L33 11ZM23 12L23 14L21 14L21 16L22 16L22 17L23 17L23 19L24 19L24 18L25 18L25 19L26 19L26 17L25 17L25 16L24 16L24 14L26 14L26 15L27 15L27 14L26 14L26 13L24 13L24 12ZM34 13L34 14L35 14L35 13ZM14 15L14 16L12 16L12 17L13 17L13 19L12 19L12 20L11 20L11 21L12 21L12 22L11 22L11 23L10 23L10 24L9 24L9 25L11 25L11 24L12 24L12 25L14 25L14 27L15 27L15 28L17 28L17 29L18 29L18 27L16 27L16 26L17 26L17 25L18 25L18 24L19 24L19 23L18 23L18 22L19 22L19 21L20 21L20 25L22 25L22 22L21 22L21 20L19 20L19 19L18 19L18 18L19 18L19 17L20 17L20 16L19 16L19 17L18 17L18 18L17 18L17 17L16 17L16 16L15 16L15 15ZM14 16L14 17L15 17L15 18L14 18L14 19L13 19L13 20L12 20L12 21L13 21L13 20L14 20L14 21L15 21L15 22L13 22L13 23L12 23L12 24L14 24L14 25L15 25L15 26L16 26L16 25L17 25L17 23L16 23L16 24L14 24L14 23L15 23L15 22L16 22L16 21L17 21L17 18L16 18L16 17L15 17L15 16ZM23 16L23 17L24 17L24 16ZM27 16L27 17L28 17L28 16ZM2 18L2 19L3 19L3 18ZM15 18L15 19L14 19L14 20L16 20L16 18ZM18 20L18 21L19 21L19 20ZM0 21L0 22L1 22L1 21ZM26 21L26 22L27 22L27 23L26 23L26 24L27 24L27 23L28 23L28 25L29 25L29 26L30 26L30 25L32 25L32 24L30 24L30 25L29 25L29 23L30 23L30 21L29 21L29 22L28 22L28 21ZM32 21L32 22L31 22L31 23L32 23L32 22L33 22L33 21ZM3 23L3 24L2 24L2 25L3 25L3 24L4 24L4 26L7 26L7 25L6 25L6 24L7 24L7 23L6 23L6 24L4 24L4 23ZM35 24L35 25L34 25L34 26L35 26L35 25L36 25L36 24ZM6 27L6 28L7 28L7 27ZM12 27L12 28L13 28L13 27ZM26 27L26 28L27 28L27 27ZM35 28L35 29L36 29L36 28ZM29 29L29 32L32 32L32 29ZM30 30L30 31L31 31L31 30ZM8 31L8 33L9 33L9 34L11 34L11 33L9 33L9 31ZM33 32L33 33L32 33L32 35L33 35L33 34L35 34L35 33L34 33L34 32ZM26 33L26 35L27 35L27 33ZM30 35L30 36L31 36L31 35ZM0 0L0 7L7 7L7 0ZM1 1L1 6L6 6L6 1ZM2 2L2 5L5 5L5 2ZM30 0L30 7L37 7L37 0ZM31 1L31 6L36 6L36 1ZM32 2L32 5L35 5L35 2ZM0 30L0 37L7 37L7 30ZM1 31L1 36L6 36L6 31ZM2 32L2 35L5 35L5 32Z" fill="#000000"/></g></g></svg>
