<?xml version="1.0" encoding="UTF-8"?>
<svg xmlns="http://www.w3.org/2000/svg" version="1.1" width="200" height="200" viewBox="0 0 200 200"><rect x="0" y="0" width="200" height="200" fill="#ffffff"/><g transform="scale(4.878)"><g transform="translate(0,0)"><path fill-rule="evenodd" d="M8 0L8 4L10 4L10 5L11 5L11 6L10 6L10 7L9 7L9 5L8 5L8 7L9 7L9 9L7 9L7 8L4 8L4 10L3 10L3 11L2 11L2 12L1 12L1 11L0 11L0 12L1 12L1 14L0 14L0 15L1 15L1 16L0 16L0 19L1 19L1 21L0 21L0 23L1 23L1 24L3 24L3 27L2 27L2 25L0 25L0 27L1 27L1 28L3 28L3 30L2 30L2 31L3 31L3 32L0 32L0 33L3 33L3 32L4 32L4 33L5 33L5 32L4 32L4 31L7 31L7 32L6 32L6 33L7 33L7 32L8 32L8 29L9 29L9 32L10 32L10 31L11 31L11 32L12 32L12 31L14 31L14 32L17 32L17 33L16 33L16 34L15 34L15 33L13 33L13 34L15 34L15 35L14 35L14 36L12 36L12 33L8 33L8 34L11 34L11 35L10 35L10 37L9 37L9 35L8 35L8 37L9 37L9 39L8 39L8 41L9 41L9 39L10 39L10 41L13 41L13 39L12 39L12 40L11 40L11 36L12 36L12 37L15 37L15 36L18 36L18 37L19 37L19 38L17 38L17 37L16 37L16 39L17 39L17 41L25 41L25 38L23 38L23 39L22 39L22 38L21 38L21 40L18 40L18 39L19 39L19 38L20 38L20 37L22 37L22 35L23 35L23 37L26 37L26 40L28 40L28 41L31 41L31 39L30 39L30 38L32 38L32 39L33 39L33 40L32 40L32 41L37 41L37 40L38 40L38 37L37 37L37 36L38 36L38 30L40 30L40 31L39 31L39 32L40 32L40 31L41 31L41 30L40 30L40 29L38 29L38 26L39 26L39 25L38 25L38 23L37 23L37 25L36 25L36 24L35 24L35 22L33 22L33 25L34 25L34 24L35 24L35 25L36 25L36 26L35 26L35 27L34 27L34 26L32 26L32 27L33 27L33 28L31 28L31 29L32 29L32 30L33 30L33 31L32 31L32 32L31 32L31 30L30 30L30 31L28 31L28 30L29 30L29 29L28 29L28 30L27 30L27 31L26 31L26 32L27 32L27 31L28 31L28 33L25 33L25 31L24 31L24 30L21 30L21 31L20 31L20 33L21 33L21 34L20 34L20 35L21 35L21 36L20 36L20 37L19 37L19 35L18 35L18 34L17 34L17 33L19 33L19 30L20 30L20 29L18 29L18 31L16 31L16 30L15 30L15 29L17 29L17 28L16 28L16 27L17 27L17 26L18 26L18 27L19 27L19 28L22 28L22 29L23 29L23 28L24 28L24 27L25 27L25 26L27 26L27 27L28 27L28 28L30 28L30 26L28 26L28 25L32 25L32 24L30 24L30 23L29 23L29 24L27 24L27 25L25 25L25 26L24 26L24 25L23 25L23 24L25 24L25 22L27 22L27 23L28 23L28 22L32 22L32 21L34 21L34 20L38 20L38 19L37 19L37 17L36 17L36 14L37 14L37 16L38 16L38 14L39 14L39 13L38 13L38 11L39 11L39 12L40 12L40 11L41 11L41 8L37 8L37 9L36 9L36 8L35 8L35 9L33 9L33 6L32 6L32 3L31 3L31 2L32 2L32 1L31 1L31 2L27 2L27 0L25 0L25 1L26 1L26 2L27 2L27 3L26 3L26 5L27 5L27 4L28 4L28 7L27 7L27 6L26 6L26 7L25 7L25 6L24 6L24 8L22 8L22 7L23 7L23 6L22 6L22 5L23 5L23 4L22 4L22 3L24 3L24 2L23 2L23 1L24 1L24 0L23 0L23 1L22 1L22 0L20 0L20 1L19 1L19 0L18 0L18 2L15 2L15 1L16 1L16 0L15 0L15 1L14 1L14 0L12 0L12 1L13 1L13 2L10 2L10 1L11 1L11 0ZM28 0L28 1L30 1L30 0ZM9 2L9 3L10 3L10 2ZM13 2L13 3L11 3L11 5L12 5L12 6L11 6L11 7L12 7L12 8L11 8L11 9L9 9L9 10L8 10L8 11L9 11L9 12L7 12L7 11L6 11L6 12L5 12L5 10L4 10L4 12L2 12L2 14L1 14L1 15L2 15L2 16L1 16L1 18L2 18L2 22L5 22L5 23L3 23L3 24L5 24L5 25L6 25L6 26L7 26L7 27L6 27L6 28L4 28L4 29L6 29L6 30L7 30L7 29L8 29L8 28L7 28L7 27L9 27L9 26L10 26L10 27L11 27L11 25L8 25L8 24L7 24L7 23L10 23L10 24L12 24L12 28L10 28L10 29L11 29L11 30L12 30L12 29L13 29L13 30L14 30L14 29L15 29L15 27L14 27L14 29L13 29L13 26L14 26L14 25L15 25L15 26L16 26L16 25L15 25L15 24L17 24L17 23L16 23L16 21L18 21L18 23L19 23L19 24L20 24L20 23L21 23L21 21L22 21L22 23L23 23L23 22L25 22L25 21L26 21L26 18L25 18L25 17L26 17L26 16L29 16L29 14L30 14L30 16L31 16L31 17L30 17L30 18L29 18L29 17L28 17L28 18L29 18L29 19L30 19L30 20L31 20L31 19L32 19L32 20L33 20L33 19L32 19L32 18L34 18L34 17L35 17L35 18L36 18L36 17L35 17L35 15L34 15L34 13L35 13L35 14L36 14L36 13L37 13L37 14L38 14L38 13L37 13L37 10L39 10L39 11L40 11L40 9L37 9L37 10L36 10L36 9L35 9L35 10L34 10L34 12L33 12L33 11L32 11L32 10L33 10L33 9L31 9L31 10L30 10L30 9L29 9L29 7L30 7L30 6L29 6L29 7L28 7L28 8L27 8L27 7L26 7L26 8L25 8L25 9L24 9L24 11L22 11L22 9L21 9L21 8L19 8L19 7L20 7L20 5L22 5L22 4L21 4L21 2L20 2L20 5L19 5L19 3L18 3L18 4L17 4L17 5L16 5L16 4L15 4L15 3L14 3L14 2ZM28 3L28 4L29 4L29 5L30 5L30 4L29 4L29 3ZM12 4L12 5L13 5L13 6L12 6L12 7L13 7L13 6L14 6L14 10L13 10L13 9L12 9L12 10L10 10L10 12L11 12L11 11L12 11L12 10L13 10L13 13L12 13L12 14L11 14L11 13L10 13L10 14L8 14L8 15L7 15L7 14L6 14L6 13L7 13L7 12L6 12L6 13L5 13L5 12L4 12L4 14L3 14L3 15L4 15L4 16L2 16L2 18L4 18L4 17L5 17L5 18L6 18L6 19L5 19L5 20L4 20L4 19L3 19L3 20L4 20L4 21L5 21L5 20L6 20L6 21L7 21L7 22L6 22L6 23L7 23L7 22L10 22L10 23L11 23L11 22L10 22L10 19L12 19L12 17L13 17L13 18L15 18L15 19L14 19L14 20L12 20L12 21L15 21L15 20L16 20L16 17L14 17L14 16L12 16L12 15L13 15L13 14L15 14L15 16L17 16L17 17L20 17L20 18L21 18L21 19L18 19L18 18L17 18L17 20L18 20L18 21L19 21L19 22L20 22L20 21L21 21L21 20L22 20L22 21L23 21L23 20L25 20L25 19L24 19L24 17L23 17L23 16L25 16L25 15L24 15L24 14L23 14L23 16L22 16L22 14L21 14L21 13L22 13L22 11L21 11L21 12L19 12L19 13L18 13L18 14L21 14L21 15L20 15L20 16L19 16L19 15L16 15L16 14L15 14L15 13L14 13L14 11L15 11L15 12L16 12L16 13L17 13L17 10L18 10L18 11L19 11L19 10L18 10L18 9L19 9L19 8L18 8L18 7L19 7L19 5L18 5L18 7L17 7L17 6L16 6L16 5L14 5L14 4ZM15 6L15 8L17 8L17 7L16 7L16 6ZM21 6L21 7L22 7L22 6ZM31 6L31 8L32 8L32 6ZM0 8L0 10L1 10L1 9L2 9L2 8ZM26 8L26 9L25 9L25 11L26 11L26 12L24 12L24 13L25 13L25 14L27 14L27 15L28 15L28 14L29 14L29 12L31 12L31 13L30 13L30 14L32 14L32 11L30 11L30 10L28 10L28 9L27 9L27 8ZM6 9L6 10L7 10L7 9ZM16 9L16 10L17 10L17 9ZM20 9L20 10L21 10L21 9ZM26 9L26 11L27 11L27 9ZM35 10L35 11L36 11L36 10ZM26 12L26 13L27 13L27 14L28 14L28 12ZM35 12L35 13L36 13L36 12ZM40 13L40 15L39 15L39 16L40 16L40 15L41 15L41 13ZM4 14L4 15L5 15L5 16L7 16L7 15L5 15L5 14ZM8 15L8 16L10 16L10 15ZM33 15L33 16L34 16L34 15ZM11 16L11 17L10 17L10 18L11 18L11 17L12 17L12 16ZM6 17L6 18L7 18L7 19L6 19L6 20L8 20L8 21L9 21L9 20L8 20L8 19L9 19L9 17ZM21 17L21 18L23 18L23 17ZM38 17L38 18L40 18L40 21L38 21L38 22L40 22L40 23L39 23L39 24L41 24L41 17ZM30 18L30 19L31 19L31 18ZM19 20L19 21L20 21L20 20ZM27 20L27 22L28 22L28 21L29 21L29 20ZM36 21L36 22L37 22L37 21ZM13 22L13 23L12 23L12 24L13 24L13 23L15 23L15 22ZM6 24L6 25L7 25L7 26L8 26L8 25L7 25L7 24ZM18 25L18 26L19 26L19 27L20 27L20 26L21 26L21 27L22 27L22 28L23 28L23 27L22 27L22 26L23 26L23 25ZM37 25L37 26L36 26L36 28L34 28L34 30L35 30L35 29L37 29L37 26L38 26L38 25ZM40 25L40 27L39 27L39 28L41 28L41 25ZM4 26L4 27L5 27L5 26ZM6 28L6 29L7 29L7 28ZM25 28L25 29L26 29L26 28ZM0 29L0 30L1 30L1 29ZM3 30L3 31L4 31L4 30ZM22 31L22 32L23 32L23 31ZM33 31L33 32L35 32L35 31ZM36 31L36 32L37 32L37 31ZM24 33L24 34L25 34L25 33ZM28 33L28 35L30 35L30 36L29 36L29 38L28 38L28 37L27 37L27 36L26 36L26 35L27 35L27 34L26 34L26 35L25 35L25 36L26 36L26 37L27 37L27 38L28 38L28 40L29 40L29 38L30 38L30 37L31 37L31 33ZM33 33L33 36L36 36L36 33ZM39 33L39 34L40 34L40 35L41 35L41 33ZM34 34L34 35L35 35L35 34ZM39 36L39 38L40 38L40 39L39 39L39 41L40 41L40 40L41 40L41 36ZM34 37L34 39L35 39L35 38L36 38L36 40L37 40L37 37ZM14 38L14 41L16 41L16 40L15 40L15 38ZM23 39L23 40L24 40L24 39ZM0 0L0 7L7 7L7 0ZM1 1L1 6L6 6L6 1ZM2 2L2 5L5 5L5 2ZM34 0L34 7L41 7L41 0ZM35 1L35 6L40 6L40 1ZM36 2L36 5L39 5L39 2ZM0 34L0 41L7 41L7 34ZM1 35L1 40L6 40L6 35ZM2 36L2 39L5 39L5 36Z" fill="#000000"/></g></g></svg>
