<?xml version="1.0" encoding="UTF-8"?>
<svg xmlns="http://www.w3.org/2000/svg" version="1.1" width="200" height="200" viewBox="0 0 200 200"><rect x="0" y="0" width="200" height="200" fill="#ffffff"/><g transform="scale(5.405)"><g transform="translate(0,0)"><path fill-rule="evenodd" d="M8 0L8 1L9 1L9 0ZM13 0L13 3L14 3L14 4L11 4L11 2L12 2L12 1L11 1L11 2L10 2L10 3L9 3L9 2L8 2L8 5L9 5L9 4L11 4L11 5L10 5L10 9L9 9L9 8L8 8L8 9L7 9L7 8L6 8L6 9L4 9L4 8L0 8L0 9L2 9L2 10L1 10L1 11L2 11L2 12L3 12L3 13L4 13L4 14L3 14L3 15L2 15L2 16L1 16L1 15L0 15L0 18L1 18L1 17L3 17L3 19L2 19L2 20L1 20L1 21L0 21L0 23L1 23L1 25L2 25L2 23L3 23L3 24L5 24L5 23L4 23L4 22L6 22L6 23L7 23L7 22L6 22L6 21L8 21L8 23L9 23L9 24L8 24L8 25L7 25L7 24L6 24L6 25L7 25L7 26L5 26L5 25L3 25L3 26L4 26L4 27L2 27L2 26L1 26L1 27L0 27L0 28L1 28L1 27L2 27L2 29L3 29L3 28L4 28L4 27L5 27L5 28L6 28L6 29L7 29L7 28L6 28L6 27L7 27L7 26L8 26L8 25L9 25L9 29L8 29L8 30L9 30L9 33L8 33L8 37L10 37L10 36L11 36L11 35L13 35L13 36L12 36L12 37L13 37L13 36L14 36L14 37L15 37L15 36L16 36L16 37L19 37L19 36L20 36L20 35L21 35L21 34L23 34L23 35L25 35L25 36L24 36L24 37L28 37L28 33L30 33L30 35L29 35L29 36L30 36L30 37L31 37L31 36L30 36L30 35L32 35L32 36L33 36L33 37L34 37L34 36L35 36L35 37L37 37L37 36L35 36L35 35L33 35L33 34L34 34L34 33L33 33L33 31L35 31L35 32L36 32L36 33L37 33L37 30L36 30L36 28L37 28L37 27L36 27L36 26L37 26L37 23L36 23L36 26L34 26L34 25L35 25L35 21L37 21L37 17L36 17L36 18L35 18L35 16L34 16L34 15L36 15L36 16L37 16L37 15L36 15L36 14L37 14L37 12L36 12L36 11L34 11L34 10L35 10L35 8L32 8L32 9L31 9L31 11L30 11L30 8L28 8L28 9L29 9L29 11L28 11L28 12L27 12L27 10L26 10L26 11L25 11L25 13L27 13L27 14L25 14L25 15L24 15L24 16L22 16L22 15L23 15L23 14L22 14L22 15L21 15L21 16L22 16L22 17L20 17L20 18L21 18L21 19L20 19L20 20L19 20L19 18L18 18L18 19L17 19L17 18L15 18L15 19L14 19L14 20L13 20L13 19L10 19L10 20L12 20L12 21L13 21L13 22L11 22L11 21L10 21L10 22L9 22L9 21L8 21L8 20L9 20L9 19L8 19L8 20L6 20L6 19L7 19L7 18L8 18L8 17L7 17L7 16L5 16L5 13L7 13L7 14L6 14L6 15L8 15L8 16L9 16L9 17L10 17L10 16L11 16L11 17L12 17L12 18L14 18L14 17L16 17L16 15L15 15L15 14L16 14L16 12L17 12L17 14L18 14L18 17L19 17L19 15L20 15L20 13L21 13L21 12L20 12L20 13L18 13L18 12L19 12L19 10L20 10L20 11L21 11L21 9L22 9L22 10L23 10L23 11L22 11L22 12L23 12L23 13L24 13L24 10L25 10L25 9L23 9L23 8L24 8L24 7L25 7L25 6L26 6L26 7L27 7L27 5L28 5L28 7L29 7L29 4L27 4L27 2L25 2L25 1L26 1L26 0L15 0L15 1L14 1L14 0ZM28 0L28 3L29 3L29 0ZM15 1L15 3L16 3L16 5L15 5L15 7L14 7L14 5L13 5L13 7L12 7L12 5L11 5L11 7L12 7L12 8L11 8L11 9L10 9L10 10L7 10L7 9L6 9L6 10L5 10L5 11L3 11L3 10L4 10L4 9L3 9L3 10L2 10L2 11L3 11L3 12L4 12L4 13L5 13L5 11L6 11L6 12L7 12L7 11L9 11L9 12L8 12L8 13L10 13L10 14L9 14L9 16L10 16L10 15L12 15L12 14L11 14L11 13L13 13L13 14L14 14L14 12L16 12L16 11L17 11L17 12L18 12L18 11L17 11L17 10L18 10L18 9L14 9L14 12L12 12L12 11L13 11L13 8L15 8L15 7L16 7L16 6L17 6L17 7L18 7L18 8L19 8L19 9L21 9L21 8L22 8L22 6L23 6L23 7L24 7L24 6L25 6L25 2L24 2L24 3L23 3L23 2L22 2L22 1L21 1L21 2L20 2L20 1L18 1L18 2L17 2L17 1ZM16 2L16 3L17 3L17 6L18 6L18 7L19 7L19 8L20 8L20 7L21 7L21 6L22 6L22 5L23 5L23 4L22 4L22 5L20 5L20 4L21 4L21 3L20 3L20 2L18 2L18 3L17 3L17 2ZM18 3L18 4L20 4L20 3ZM18 5L18 6L19 6L19 7L20 7L20 6L19 6L19 5ZM8 6L8 7L9 7L9 6ZM26 8L26 9L27 9L27 8ZM36 8L36 9L37 9L37 8ZM32 9L32 10L33 10L33 9ZM6 10L6 11L7 11L7 10ZM11 10L11 11L12 11L12 10ZM10 12L10 13L11 13L11 12ZM29 12L29 13L28 13L28 14L29 14L29 16L28 16L28 15L25 15L25 16L24 16L24 18L23 18L23 19L21 19L21 20L20 20L20 22L18 22L18 23L16 23L16 22L15 22L15 21L16 21L16 20L17 20L17 19L16 19L16 20L15 20L15 21L14 21L14 24L13 24L13 26L14 26L14 27L12 27L12 26L11 26L11 24L9 24L9 25L10 25L10 26L11 26L11 27L10 27L10 31L12 31L12 32L11 32L11 33L13 33L13 34L14 34L14 35L17 35L17 36L19 36L19 35L20 35L20 33L21 33L21 32L23 32L23 33L24 33L24 34L25 34L25 35L26 35L26 36L27 36L27 33L28 33L28 30L27 30L27 31L26 31L26 30L25 30L25 33L24 33L24 32L23 32L23 31L24 31L24 30L23 30L23 29L25 29L25 28L26 28L26 29L28 29L28 28L29 28L29 27L28 27L28 26L30 26L30 27L31 27L31 28L32 28L32 27L34 27L34 28L36 28L36 27L34 27L34 26L32 26L32 27L31 27L31 26L30 26L30 24L31 24L31 25L32 25L32 24L33 24L33 25L34 25L34 22L33 22L33 21L32 21L32 19L31 19L31 18L34 18L34 19L33 19L33 20L34 20L34 21L35 21L35 20L36 20L36 19L35 19L35 18L34 18L34 16L33 16L33 15L34 15L34 14L36 14L36 13L34 13L34 12L33 12L33 13L34 13L34 14L33 14L33 15L32 15L32 14L29 14L29 13L30 13L30 12ZM31 12L31 13L32 13L32 12ZM0 13L0 14L2 14L2 13ZM3 15L3 17L4 17L4 15ZM13 15L13 16L14 16L14 15ZM30 15L30 16L29 16L29 18L31 18L31 17L32 17L32 16L31 16L31 15ZM25 16L25 18L24 18L24 20L23 20L23 21L21 21L21 22L22 22L22 23L23 23L23 25L24 25L24 28L25 28L25 25L26 25L26 26L28 26L28 25L29 25L29 24L30 24L30 21L29 21L29 20L31 20L31 19L29 19L29 20L28 20L28 21L29 21L29 22L28 22L28 23L27 23L27 22L26 22L26 21L27 21L27 19L28 19L28 18L27 18L27 17L28 17L28 16L27 16L27 17L26 17L26 16ZM30 16L30 17L31 17L31 16ZM6 17L6 18L7 18L7 17ZM4 18L4 19L3 19L3 21L1 21L1 22L4 22L4 19L5 19L5 18ZM26 18L26 19L25 19L25 20L24 20L24 22L25 22L25 23L26 23L26 22L25 22L25 21L26 21L26 19L27 19L27 18ZM31 21L31 24L32 24L32 23L33 23L33 22L32 22L32 21ZM15 23L15 24L14 24L14 26L15 26L15 25L16 25L16 26L17 26L17 27L18 27L18 29L20 29L20 30L21 30L21 31L22 31L22 30L21 30L21 29L22 29L22 27L23 27L23 26L22 26L22 27L21 27L21 26L20 26L20 24L21 24L21 23L18 23L18 24L17 24L17 25L16 25L16 23ZM28 23L28 24L29 24L29 23ZM18 24L18 25L19 25L19 24ZM18 26L18 27L19 27L19 26ZM14 27L14 28L15 28L15 27ZM26 27L26 28L27 28L27 27ZM16 28L16 29L17 29L17 28ZM12 29L12 31L14 31L14 32L13 32L13 33L14 33L14 34L15 34L15 31L16 31L16 30L13 30L13 29ZM29 29L29 32L32 32L32 29ZM30 30L30 31L31 31L31 30ZM17 31L17 32L16 32L16 33L18 33L18 34L17 34L17 35L18 35L18 34L19 34L19 33L18 33L18 32L20 32L20 31ZM26 32L26 33L25 33L25 34L26 34L26 33L27 33L27 32ZM9 33L9 34L10 34L10 35L11 35L11 34L10 34L10 33ZM31 33L31 34L32 34L32 33ZM0 0L0 7L7 7L7 0ZM1 1L1 6L6 6L6 1ZM2 2L2 5L5 5L5 2ZM30 0L30 7L37 7L37 0ZM31 1L31 6L36 6L36 1ZM32 2L32 5L35 5L35 2ZM0 30L0 37L7 37L7 30ZM1 31L1 36L6 36L6 31ZM2 32L2 35L5 35L5 32Z" fill="#000000"/></g></g></svg>
