<?xml version="1.0" encoding="UTF-8"?>
<svg xmlns="http://www.w3.org/2000/svg" version="1.1" width="200" height="200" viewBox="0 0 200 200"><rect x="0" y="0" width="200" height="200" fill="#ffffff"/><g transform="scale(5.405)"><g transform="translate(0,0)"><path fill-rule="evenodd" d="M9 0L9 1L8 1L8 2L9 2L9 3L8 3L8 4L10 4L10 7L11 7L11 4L12 4L12 5L13 5L13 6L12 6L12 9L14 9L14 8L15 8L15 9L16 9L16 7L17 7L17 6L18 6L18 8L17 8L17 9L18 9L18 10L22 10L22 11L21 11L21 12L20 12L20 11L19 11L19 12L20 12L20 13L19 13L19 14L21 14L21 16L20 16L20 17L18 17L18 16L19 16L19 15L18 15L18 16L17 16L17 13L18 13L18 12L17 12L17 13L16 13L16 11L17 11L17 10L15 10L15 12L14 12L14 13L13 13L13 12L12 12L12 11L13 11L13 10L10 10L10 9L11 9L11 8L6 8L6 9L7 9L7 10L6 10L6 11L4 11L4 10L5 10L5 8L0 8L0 9L3 9L3 11L2 11L2 10L1 10L1 11L0 11L0 12L1 12L1 11L2 11L2 13L1 13L1 15L2 15L2 13L4 13L4 15L3 15L3 16L0 16L0 19L4 19L4 20L3 20L3 21L2 21L2 20L0 20L0 22L2 22L2 23L3 23L3 24L4 24L4 23L8 23L8 24L6 24L6 25L9 25L9 26L8 26L8 27L7 27L7 26L6 26L6 27L7 27L7 28L6 28L6 29L8 29L8 31L9 31L9 32L8 32L8 37L10 37L10 36L11 36L11 34L13 34L13 30L12 30L12 33L11 33L11 30L10 30L10 31L9 31L9 29L8 29L8 28L10 28L10 29L11 29L11 26L10 26L10 25L13 25L13 26L12 26L12 27L18 27L18 28L17 28L17 29L15 29L15 32L14 32L14 33L16 33L16 30L17 30L17 29L18 29L18 30L21 30L21 31L19 31L19 32L17 32L17 33L18 33L18 36L16 36L16 37L19 37L19 33L20 33L20 34L21 34L21 36L23 36L23 35L22 35L22 34L24 34L24 33L20 33L20 32L22 32L22 30L24 30L24 31L25 31L25 30L24 30L24 29L26 29L26 32L25 32L25 34L26 34L26 35L27 35L27 34L26 34L26 33L28 33L28 34L29 34L29 35L28 35L28 36L25 36L25 35L24 35L24 37L28 37L28 36L33 36L33 37L34 37L34 36L33 36L33 35L34 35L34 33L37 33L37 26L36 26L36 25L37 25L37 24L36 24L36 25L35 25L35 24L34 24L34 23L37 23L37 22L35 22L35 21L36 21L36 19L37 19L37 18L35 18L35 20L34 20L34 17L37 17L37 14L36 14L36 13L37 13L37 10L35 10L35 9L36 9L36 8L35 8L35 9L34 9L34 8L33 8L33 10L35 10L35 12L34 12L34 13L35 13L35 15L36 15L36 16L34 16L34 14L32 14L32 13L33 13L33 11L32 11L32 8L31 8L31 10L30 10L30 8L29 8L29 10L30 10L30 11L29 11L29 12L28 12L28 10L27 10L27 11L26 11L26 12L25 12L25 9L28 9L28 7L29 7L29 6L28 6L28 5L29 5L29 4L28 4L28 5L26 5L26 4L27 4L27 3L28 3L28 2L29 2L29 0L28 0L28 1L26 1L26 0L22 0L22 1L21 1L21 0L15 0L15 2L14 2L14 4L12 4L12 2L13 2L13 1L11 1L11 2L10 2L10 0ZM17 1L17 2L16 2L16 3L15 3L15 4L14 4L14 5L15 5L15 4L16 4L16 3L18 3L18 4L17 4L17 5L16 5L16 6L15 6L15 7L16 7L16 6L17 6L17 5L19 5L19 7L20 7L20 5L19 5L19 4L20 4L20 3L21 3L21 4L25 4L25 3L26 3L26 1L22 1L22 2L25 2L25 3L21 3L21 1L19 1L19 2L18 2L18 1ZM10 3L10 4L11 4L11 3ZM8 5L8 7L9 7L9 5ZM21 5L21 7L22 7L22 5ZM23 5L23 8L20 8L20 9L24 9L24 5ZM25 5L25 8L26 8L26 5ZM13 6L13 8L14 8L14 6ZM27 6L27 7L28 7L28 6ZM18 8L18 9L19 9L19 8ZM8 9L8 10L7 10L7 11L6 11L6 12L5 12L5 13L6 13L6 14L5 14L5 15L4 15L4 16L3 16L3 17L1 17L1 18L3 18L3 17L4 17L4 19L5 19L5 20L4 20L4 21L3 21L3 22L4 22L4 21L5 21L5 22L7 22L7 21L6 21L6 20L7 20L7 19L6 19L6 18L7 18L7 17L6 17L6 18L5 18L5 17L4 17L4 16L8 16L8 17L10 17L10 18L8 18L8 20L11 20L11 21L8 21L8 22L10 22L10 23L9 23L9 24L10 24L10 23L11 23L11 24L12 24L12 23L13 23L13 25L14 25L14 26L15 26L15 25L14 25L14 23L15 23L15 21L17 21L17 20L18 20L18 21L20 21L20 22L19 22L19 23L18 23L18 22L17 22L17 23L16 23L16 25L17 25L17 26L19 26L19 27L20 27L20 26L19 26L19 24L20 24L20 25L22 25L22 28L20 28L20 29L23 29L23 28L24 28L24 27L25 27L25 28L26 28L26 27L27 27L27 28L28 28L28 27L31 27L31 28L32 28L32 27L33 27L33 26L34 26L34 28L33 28L33 30L35 30L35 29L36 29L36 27L35 27L35 25L34 25L34 24L33 24L33 21L34 21L34 20L33 20L33 19L31 19L31 17L30 17L30 14L31 14L31 13L32 13L32 11L30 11L30 12L29 12L29 13L27 13L27 15L26 15L26 13L25 13L25 12L24 12L24 13L25 13L25 16L27 16L27 17L30 17L30 18L28 18L28 21L26 21L26 22L25 22L25 21L24 21L24 22L23 22L23 23L24 23L24 24L26 24L26 23L27 23L27 22L29 22L29 23L28 23L28 24L29 24L29 25L24 25L24 26L23 26L23 24L20 24L20 22L21 22L21 18L23 18L23 19L22 19L22 20L23 20L23 19L24 19L24 20L27 20L27 18L26 18L26 17L25 17L25 18L26 18L26 19L24 19L24 18L23 18L23 17L24 17L24 14L23 14L23 11L24 11L24 10L23 10L23 11L22 11L22 12L21 12L21 13L22 13L22 16L23 16L23 17L21 17L21 18L19 18L19 19L18 19L18 17L17 17L17 16L16 16L16 15L15 15L15 13L14 13L14 15L13 15L13 14L12 14L12 13L10 13L10 12L11 12L11 11L10 11L10 10L9 10L9 9ZM7 11L7 12L6 12L6 13L8 13L8 14L6 14L6 15L9 15L9 12L8 12L8 11ZM30 12L30 13L31 13L31 12ZM10 14L10 16L11 16L11 14ZM28 15L28 16L29 16L29 15ZM31 15L31 16L33 16L33 15ZM14 16L14 17L15 17L15 18L14 18L14 21L15 21L15 19L16 19L16 20L17 20L17 19L16 19L16 18L17 18L17 17L16 17L16 16ZM32 17L32 18L33 18L33 17ZM12 20L12 21L13 21L13 20ZM30 20L30 21L29 21L29 22L30 22L30 25L29 25L29 26L30 26L30 25L31 25L31 26L32 26L32 25L33 25L33 24L32 24L32 25L31 25L31 23L32 23L32 21L33 21L33 20ZM30 21L30 22L31 22L31 21ZM0 23L0 29L1 29L1 26L2 26L2 24L1 24L1 23ZM17 24L17 25L18 25L18 24ZM3 25L3 26L4 26L4 27L2 27L2 29L4 29L4 28L5 28L5 26L4 26L4 25ZM25 26L25 27L26 27L26 26ZM27 26L27 27L28 27L28 26ZM12 28L12 29L14 29L14 28ZM18 28L18 29L19 29L19 28ZM34 28L34 29L35 29L35 28ZM27 29L27 31L28 31L28 29ZM29 29L29 32L32 32L32 29ZM30 30L30 31L31 31L31 30ZM34 31L34 32L35 32L35 31ZM29 33L29 34L30 34L30 35L31 35L31 34L32 34L32 35L33 35L33 34L32 34L32 33L31 33L31 34L30 34L30 33ZM14 34L14 35L16 35L16 34ZM35 34L35 35L36 35L36 36L35 36L35 37L37 37L37 34ZM12 36L12 37L13 37L13 36ZM14 36L14 37L15 37L15 36ZM0 0L0 7L7 7L7 0ZM1 1L1 6L6 6L6 1ZM2 2L2 5L5 5L5 2ZM30 0L30 7L37 7L37 0ZM31 1L31 6L36 6L36 1ZM32 2L32 5L35 5L35 2ZM0 30L0 37L7 37L7 30ZM1 31L1 36L6 36L6 31ZM2 32L2 35L5 35L5 32Z" fill="#000000"/></g></g></svg>
