<?xml version="1.0" encoding="UTF-8"?>
<svg xmlns="http://www.w3.org/2000/svg" version="1.1" width="200" height="200" viewBox="0 0 200 200"><rect x="0" y="0" width="200" height="200" fill="#ffffff"/><g transform="scale(5.405)"><g transform="translate(0,0)"><path fill-rule="evenodd" d="M9 0L9 1L10 1L10 2L8 2L8 3L9 3L9 4L10 4L10 5L9 5L9 6L8 6L8 8L4 8L4 9L3 9L3 8L0 8L0 9L2 9L2 11L3 11L3 16L0 16L0 17L1 17L1 20L2 20L2 21L0 21L0 22L1 22L1 23L0 23L0 24L1 24L1 25L2 25L2 26L3 26L3 27L5 27L5 26L3 26L3 24L4 24L4 25L5 25L5 24L6 24L6 25L7 25L7 26L6 26L6 27L7 27L7 28L5 28L5 29L7 29L7 28L8 28L8 27L9 27L9 28L10 28L10 29L11 29L11 30L12 30L12 31L10 31L10 30L9 30L9 29L8 29L8 33L9 33L9 34L8 34L8 37L11 37L11 36L12 36L12 37L13 37L13 36L14 36L14 35L15 35L15 34L14 34L14 33L15 33L15 32L16 32L16 33L17 33L17 34L16 34L16 35L17 35L17 37L19 37L19 36L20 36L20 37L23 37L23 36L24 36L24 37L26 37L26 35L25 35L25 36L24 36L24 35L23 35L23 32L25 32L25 33L24 33L24 34L25 34L25 33L26 33L26 32L28 32L28 37L29 37L29 36L30 36L30 33L31 33L31 35L32 35L32 37L33 37L33 34L34 34L34 35L35 35L35 36L34 36L34 37L37 37L37 36L36 36L36 35L37 35L37 33L35 33L35 34L34 34L34 33L33 33L33 32L34 32L34 31L33 31L33 29L34 29L34 27L35 27L35 28L36 28L36 29L37 29L37 28L36 28L36 27L37 27L37 21L36 21L36 20L37 20L37 16L36 16L36 15L37 15L37 12L35 12L35 13L36 13L36 14L34 14L34 15L33 15L33 16L34 16L34 15L35 15L35 18L34 18L34 17L33 17L33 18L34 18L34 19L33 19L33 22L30 22L30 21L32 21L32 18L31 18L31 17L32 17L32 14L31 14L31 12L33 12L33 13L34 13L34 12L33 12L33 11L37 11L37 9L35 9L35 8L34 8L34 9L33 9L33 10L31 10L31 8L28 8L28 7L29 7L29 6L28 6L28 4L27 4L27 3L26 3L26 4L25 4L25 2L28 2L28 3L29 3L29 1L28 1L28 0L23 0L23 2L24 2L24 3L23 3L23 5L22 5L22 7L21 7L21 5L20 5L20 4L21 4L21 2L22 2L22 0L21 0L21 2L20 2L20 0L17 0L17 2L16 2L16 1L15 1L15 0L12 0L12 1L11 1L11 0ZM14 1L14 2L11 2L11 3L12 3L12 4L11 4L11 5L10 5L10 6L9 6L9 7L10 7L10 6L11 6L11 8L12 8L12 6L13 6L13 7L14 7L14 6L15 6L15 9L14 9L14 10L10 10L10 11L9 11L9 9L10 9L10 8L9 8L9 9L8 9L8 11L6 11L6 12L4 12L4 13L5 13L5 14L4 14L4 15L6 15L6 16L4 16L4 18L3 18L3 17L2 17L2 18L3 18L3 21L5 21L5 22L4 22L4 24L5 24L5 23L6 23L6 24L8 24L8 25L9 25L9 26L10 26L10 28L11 28L11 29L14 29L14 30L13 30L13 31L12 31L12 32L11 32L11 33L13 33L13 31L16 31L16 32L17 32L17 31L19 31L19 32L20 32L20 29L19 29L19 28L20 28L20 27L22 27L22 28L23 28L23 27L24 27L24 28L25 28L25 26L24 26L24 25L22 25L22 26L20 26L20 25L19 25L19 24L18 24L18 25L19 25L19 27L18 27L18 30L17 30L17 31L16 31L16 30L15 30L15 29L16 29L16 28L17 28L17 27L16 27L16 26L15 26L15 25L16 25L16 24L15 24L15 23L18 23L18 22L19 22L19 23L23 23L23 24L24 24L24 23L26 23L26 22L27 22L27 24L26 24L26 26L27 26L27 28L26 28L26 29L27 29L27 30L25 30L25 31L27 31L27 30L28 30L28 28L29 28L29 27L28 27L28 26L30 26L30 24L28 24L28 23L30 23L30 22L29 22L29 21L28 21L28 20L29 20L29 19L31 19L31 18L30 18L30 16L31 16L31 15L30 15L30 14L29 14L29 13L30 13L30 9L28 9L28 8L26 8L26 10L25 10L25 9L24 9L24 8L25 8L25 7L26 7L26 6L25 6L25 5L24 5L24 6L23 6L23 7L24 7L24 8L23 8L23 12L24 12L24 13L22 13L22 14L21 14L21 15L20 15L20 13L21 13L21 11L22 11L22 10L21 10L21 11L20 11L20 9L19 9L19 8L20 8L20 6L19 6L19 4L18 4L18 3L20 3L20 2L19 2L19 1L18 1L18 2L17 2L17 3L16 3L16 2L15 2L15 1ZM13 3L13 4L14 4L14 5L13 5L13 6L14 6L14 5L15 5L15 6L16 6L16 7L17 7L17 8L16 8L16 9L15 9L15 10L14 10L14 11L12 11L12 12L11 12L11 11L10 11L10 12L11 12L11 13L9 13L9 11L8 11L8 12L6 12L6 13L9 13L9 16L8 16L8 15L7 15L7 14L6 14L6 15L7 15L7 16L6 16L6 17L7 17L7 18L5 18L5 19L4 19L4 20L5 20L5 21L7 21L7 22L6 22L6 23L7 23L7 22L8 22L8 23L9 23L9 24L10 24L10 26L13 26L13 24L14 24L14 23L9 23L9 22L8 22L8 21L9 21L9 20L5 20L5 19L7 19L7 18L8 18L8 17L9 17L9 19L10 19L10 18L12 18L12 19L11 19L11 20L12 20L12 21L13 21L13 20L16 20L16 21L15 21L15 22L17 22L17 21L18 21L18 20L20 20L20 21L21 21L21 22L23 22L23 21L24 21L24 22L25 22L25 21L26 21L26 19L27 19L27 20L28 20L28 19L29 19L29 16L30 16L30 15L29 15L29 14L27 14L27 13L26 13L26 12L28 12L28 11L29 11L29 10L28 10L28 11L27 11L27 10L26 10L26 11L25 11L25 10L24 10L24 11L25 11L25 14L24 14L24 15L23 15L23 14L22 14L22 15L21 15L21 16L22 16L22 15L23 15L23 16L24 16L24 17L25 17L25 18L24 18L24 20L23 20L23 21L21 21L21 20L22 20L22 19L21 19L21 17L20 17L20 19L19 19L19 18L18 18L18 15L17 15L17 16L16 16L16 15L15 15L15 14L13 14L13 12L14 12L14 11L15 11L15 12L16 12L16 13L17 13L17 14L19 14L19 13L18 13L18 12L19 12L19 11L17 11L17 10L18 10L18 7L19 7L19 6L18 6L18 7L17 7L17 5L15 5L15 3ZM11 5L11 6L12 6L12 5ZM24 6L24 7L25 7L25 6ZM27 6L27 7L28 7L28 6ZM4 9L4 10L3 10L3 11L4 11L4 10L7 10L7 9ZM0 10L0 12L1 12L1 10ZM15 10L15 11L16 11L16 12L17 12L17 11L16 11L16 10ZM0 14L0 15L2 15L2 14ZM10 14L10 15L11 15L11 16L9 16L9 17L11 17L11 16L13 16L13 17L16 17L16 16L15 16L15 15L14 15L14 16L13 16L13 14ZM25 14L25 15L24 15L24 16L25 16L25 15L26 15L26 17L27 17L27 16L28 16L28 15L27 15L27 14ZM19 15L19 16L20 16L20 15ZM13 18L13 19L12 19L12 20L13 20L13 19L16 19L16 18ZM17 18L17 19L18 19L18 18ZM27 18L27 19L28 19L28 18ZM20 19L20 20L21 20L21 19ZM34 19L34 21L35 21L35 20L36 20L36 19ZM10 21L10 22L11 22L11 21ZM2 22L2 23L1 23L1 24L2 24L2 23L3 23L3 22ZM33 22L33 23L32 23L32 24L31 24L31 27L30 27L30 28L31 28L31 27L32 27L32 26L33 26L33 27L34 27L34 26L36 26L36 24L35 24L35 22ZM33 23L33 25L34 25L34 23ZM11 24L11 25L12 25L12 24ZM0 26L0 27L1 27L1 28L0 28L0 29L1 29L1 28L2 28L2 29L4 29L4 28L2 28L2 27L1 27L1 26ZM14 26L14 27L13 27L13 28L15 28L15 26ZM22 26L22 27L23 27L23 26ZM23 29L23 31L22 31L22 30L21 30L21 31L22 31L22 32L23 32L23 31L24 31L24 29ZM29 29L29 32L32 32L32 29ZM30 30L30 31L31 31L31 30ZM35 30L35 32L36 32L36 31L37 31L37 30ZM9 31L9 32L10 32L10 31ZM18 33L18 34L17 34L17 35L18 35L18 36L19 36L19 35L20 35L20 36L21 36L21 35L22 35L22 34L21 34L21 35L20 35L20 34L19 34L19 33ZM10 34L10 35L9 35L9 36L10 36L10 35L14 35L14 34ZM18 34L18 35L19 35L19 34ZM15 36L15 37L16 37L16 36ZM0 0L0 7L7 7L7 0ZM1 1L1 6L6 6L6 1ZM2 2L2 5L5 5L5 2ZM30 0L30 7L37 7L37 0ZM31 1L31 6L36 6L36 1ZM32 2L32 5L35 5L35 2ZM0 30L0 37L7 37L7 30ZM1 31L1 36L6 36L6 31ZM2 32L2 35L5 35L5 32Z" fill="#000000"/></g></g></svg>
