<?xml version="1.0" encoding="UTF-8"?>
<svg xmlns="http://www.w3.org/2000/svg" version="1.1" width="200" height="200" viewBox="0 0 200 200"><rect x="0" y="0" width="200" height="200" fill="#ffffff"/><g transform="scale(5.405)"><g transform="translate(0,0)"><path fill-rule="evenodd" d="M8 0L8 4L9 4L9 5L8 5L8 7L9 7L9 6L10 6L10 9L9 9L9 11L8 11L8 13L9 13L9 14L8 14L8 15L10 15L10 17L9 17L9 16L6 16L6 17L7 17L7 18L5 18L5 16L4 16L4 18L3 18L3 19L2 19L2 18L1 18L1 16L3 16L3 14L2 14L2 13L4 13L4 14L6 14L6 15L7 15L7 14L6 14L6 13L7 13L7 12L6 12L6 13L5 13L5 11L0 11L0 15L1 15L1 16L0 16L0 18L1 18L1 19L0 19L0 21L1 21L1 19L2 19L2 20L3 20L3 22L0 22L0 26L1 26L1 23L4 23L4 24L5 24L5 23L7 23L7 24L6 24L6 25L5 25L5 26L3 26L3 24L2 24L2 28L0 28L0 29L4 29L4 27L5 27L5 28L6 28L6 29L8 29L8 30L9 30L9 31L8 31L8 33L9 33L9 32L10 32L10 33L11 33L11 32L13 32L13 33L14 33L14 34L15 34L15 35L14 35L14 36L12 36L12 35L13 35L13 34L9 34L9 35L8 35L8 37L9 37L9 36L12 36L12 37L14 37L14 36L16 36L16 33L14 33L14 32L13 32L13 31L15 31L15 32L17 32L17 33L18 33L18 32L19 32L19 33L20 33L20 34L21 34L21 37L22 37L22 36L25 36L25 35L26 35L26 36L27 36L27 35L26 35L26 34L28 34L28 35L29 35L29 37L33 37L33 36L34 36L34 37L37 37L37 36L36 36L36 35L34 35L34 34L33 34L33 33L35 33L35 30L37 30L37 28L36 28L36 27L35 27L35 26L36 26L36 25L37 25L37 23L34 23L34 22L35 22L35 21L36 21L36 20L37 20L37 19L36 19L36 20L35 20L35 18L33 18L33 17L32 17L32 18L31 18L31 19L32 19L32 18L33 18L33 21L32 21L32 20L30 20L30 18L29 18L29 19L28 19L28 17L29 17L29 15L30 15L30 17L31 17L31 15L33 15L33 16L34 16L34 17L37 17L37 16L36 16L36 15L35 15L35 14L36 14L36 13L37 13L37 12L35 12L35 9L37 9L37 8L33 8L33 9L32 9L32 8L31 8L31 9L32 9L32 10L29 10L29 9L28 9L28 8L27 8L27 6L28 6L28 7L29 7L29 6L28 6L28 3L29 3L29 2L27 2L27 1L28 1L28 0L23 0L23 1L24 1L24 2L27 2L27 3L24 3L24 4L23 4L23 2L21 2L21 1L19 1L19 0L16 0L16 2L15 2L15 0L13 0L13 1L11 1L11 2L12 2L12 5L13 5L13 6L12 6L12 7L11 7L11 3L10 3L10 2L9 2L9 0ZM13 1L13 5L14 5L14 3L15 3L15 7L16 7L16 3L17 3L17 7L18 7L18 9L19 9L19 10L18 10L18 11L19 11L19 12L18 12L18 13L17 13L17 14L16 14L16 11L15 11L15 10L16 10L16 9L17 9L17 8L14 8L14 6L13 6L13 7L12 7L12 8L11 8L11 9L10 9L10 11L9 11L9 13L10 13L10 15L11 15L11 14L12 14L12 13L13 13L13 15L12 15L12 16L11 16L11 19L10 19L10 18L9 18L9 17L8 17L8 18L7 18L7 19L6 19L6 20L8 20L8 21L5 21L5 22L4 22L4 23L5 23L5 22L7 22L7 23L8 23L8 21L10 21L10 22L12 22L12 21L11 21L11 20L12 20L12 19L13 19L13 20L14 20L14 23L13 23L13 24L10 24L10 25L11 25L11 26L10 26L10 27L11 27L11 28L12 28L12 27L11 27L11 26L13 26L13 28L14 28L14 29L15 29L15 28L16 28L16 27L15 27L15 26L13 26L13 24L14 24L14 25L16 25L16 26L18 26L18 27L19 27L19 28L18 28L18 29L19 29L19 30L18 30L18 31L19 31L19 32L20 32L20 33L21 33L21 34L23 34L23 30L22 30L22 28L21 28L21 25L22 25L22 27L23 27L23 25L24 25L24 26L25 26L25 25L26 25L26 27L24 27L24 28L23 28L23 29L24 29L24 31L25 31L25 33L24 33L24 34L25 34L25 33L28 33L28 34L29 34L29 35L30 35L30 36L33 36L33 34L32 34L32 35L30 35L30 33L28 33L28 32L26 32L26 31L28 31L28 30L26 30L26 29L28 29L28 28L29 28L29 27L28 27L28 28L27 28L27 25L28 25L28 26L30 26L30 28L33 28L33 27L31 27L31 26L32 26L32 25L33 25L33 26L35 26L35 25L36 25L36 24L35 24L35 25L34 25L34 24L32 24L32 23L33 23L33 22L34 22L34 21L33 21L33 22L32 22L32 21L30 21L30 20L29 20L29 21L28 21L28 19L27 19L27 18L25 18L25 17L28 17L28 16L26 16L26 13L28 13L28 15L29 15L29 12L31 12L31 13L30 13L30 15L31 15L31 14L32 14L32 13L33 13L33 12L34 12L34 9L33 9L33 11L29 11L29 12L26 12L26 9L27 9L27 10L28 10L28 9L27 9L27 8L26 8L26 6L25 6L25 7L24 7L24 5L22 5L22 3L21 3L21 2L20 2L20 3L19 3L19 4L18 4L18 3L17 3L17 2L16 2L16 3L15 3L15 2L14 2L14 1ZM18 1L18 2L19 2L19 1ZM20 3L20 4L21 4L21 3ZM25 4L25 5L26 5L26 4ZM18 5L18 7L19 7L19 6L20 6L20 7L21 7L21 9L22 9L22 10L21 10L21 12L19 12L19 13L20 13L20 17L21 17L21 18L20 18L20 19L19 19L19 17L18 17L18 15L16 15L16 14L15 14L15 13L14 13L14 12L13 12L13 11L14 11L14 8L12 8L12 9L13 9L13 11L12 11L12 12L11 12L11 13L12 13L12 12L13 12L13 13L14 13L14 14L15 14L15 15L14 15L14 17L13 17L13 16L12 16L12 17L13 17L13 18L15 18L15 19L16 19L16 20L15 20L15 21L16 21L16 22L15 22L15 23L14 23L14 24L17 24L17 25L18 25L18 26L20 26L20 25L21 25L21 24L22 24L22 25L23 25L23 24L25 24L25 23L24 23L24 21L25 21L25 22L26 22L26 23L27 23L27 24L28 24L28 25L29 25L29 24L30 24L30 25L32 25L32 24L31 24L31 22L30 22L30 21L29 21L29 22L28 22L28 21L27 21L27 22L26 22L26 21L25 21L25 20L24 20L24 19L25 19L25 18L24 18L24 17L25 17L25 14L24 14L24 13L25 13L25 11L24 11L24 10L25 10L25 8L24 8L24 7L23 7L23 6L22 6L22 5ZM21 6L21 7L22 7L22 9L24 9L24 8L23 8L23 7L22 7L22 6ZM0 8L0 10L2 10L2 8ZM4 8L4 9L3 9L3 10L6 10L6 11L7 11L7 10L8 10L8 9L7 9L7 8ZM19 8L19 9L20 9L20 8ZM6 9L6 10L7 10L7 9ZM22 10L22 13L21 13L21 15L22 15L22 17L23 17L23 16L24 16L24 15L23 15L23 14L22 14L22 13L23 13L23 12L24 12L24 11L23 11L23 10ZM34 13L34 14L35 14L35 13ZM15 16L15 18L16 18L16 19L17 19L17 18L18 18L18 17L17 17L17 16ZM16 17L16 18L17 18L17 17ZM4 18L4 20L5 20L5 18ZM8 18L8 19L9 19L9 18ZM22 19L22 21L20 21L20 20L18 20L18 21L17 21L17 20L16 20L16 21L17 21L17 22L19 22L19 23L18 23L18 25L20 25L20 24L19 24L19 23L21 23L21 22L23 22L23 19ZM26 19L26 20L27 20L27 19ZM28 23L28 24L29 24L29 23ZM6 25L6 26L7 26L7 25ZM8 25L8 28L9 28L9 25ZM6 27L6 28L7 28L7 27ZM14 27L14 28L15 28L15 27ZM19 28L19 29L20 29L20 31L21 31L21 33L22 33L22 30L21 30L21 28ZM24 28L24 29L25 29L25 28ZM35 28L35 29L34 29L34 30L33 30L33 31L34 31L34 30L35 30L35 29L36 29L36 28ZM9 29L9 30L10 30L10 29ZM11 29L11 30L12 30L12 31L13 31L13 29ZM16 29L16 30L17 30L17 29ZM29 29L29 32L32 32L32 29ZM30 30L30 31L31 31L31 30ZM36 31L36 33L37 33L37 31ZM17 35L17 37L18 37L18 35ZM19 36L19 37L20 37L20 36ZM0 0L0 7L7 7L7 0ZM1 1L1 6L6 6L6 1ZM2 2L2 5L5 5L5 2ZM30 0L30 7L37 7L37 0ZM31 1L31 6L36 6L36 1ZM32 2L32 5L35 5L35 2ZM0 30L0 37L7 37L7 30ZM1 31L1 36L6 36L6 31ZM2 32L2 35L5 35L5 32Z" fill="#000000"/></g></g></svg>
