<?xml version="1.0" encoding="UTF-8"?>
<svg xmlns="http://www.w3.org/2000/svg" version="1.1" width="200" height="200" viewBox="0 0 200 200"><rect x="0" y="0" width="200" height="200" fill="#ffffff"/><g transform="scale(4.444)"><g transform="translate(0,0)"><path fill-rule="evenodd" d="M10 0L10 3L9 3L9 2L8 2L8 3L9 3L9 6L8 6L8 8L4 8L4 9L3 9L3 8L0 8L0 9L1 9L1 10L0 10L0 11L1 11L1 13L0 13L0 14L3 14L3 16L2 16L2 17L1 17L1 15L0 15L0 19L1 19L1 21L0 21L0 24L1 24L1 25L2 25L2 26L6 26L6 27L7 27L7 28L6 28L6 29L5 29L5 28L4 28L4 27L2 27L2 28L3 28L3 29L0 29L0 33L1 33L1 31L2 31L2 34L4 34L4 35L1 35L1 36L0 36L0 37L1 37L1 36L3 36L3 37L5 37L5 34L4 34L4 33L3 33L3 32L4 32L4 31L5 31L5 32L6 32L6 33L7 33L7 32L9 32L9 31L10 31L10 30L11 30L11 32L10 32L10 33L8 33L8 34L6 34L6 35L8 35L8 36L6 36L6 37L8 37L8 41L10 41L10 40L9 40L9 39L10 39L10 38L9 38L9 35L10 35L10 33L11 33L11 36L12 36L12 35L15 35L15 34L14 34L14 32L15 32L15 31L16 31L16 34L18 34L18 35L16 35L16 36L17 36L17 39L16 39L16 38L15 38L15 36L13 36L13 37L14 37L14 39L16 39L16 41L15 41L15 40L14 40L14 41L15 41L15 42L13 42L13 40L12 40L12 39L13 39L13 38L11 38L11 40L12 40L12 42L13 42L13 43L12 43L12 44L13 44L13 45L15 45L15 44L14 44L14 43L15 43L15 42L16 42L16 41L17 41L17 43L16 43L16 44L17 44L17 45L19 45L19 43L18 43L18 41L19 41L19 42L20 42L20 45L27 45L27 44L28 44L28 45L33 45L33 44L34 44L34 45L35 45L35 44L34 44L34 41L35 41L35 42L36 42L36 45L37 45L37 43L38 43L38 41L40 41L40 43L39 43L39 44L40 44L40 45L41 45L41 44L40 44L40 43L42 43L42 41L41 41L41 40L42 40L42 39L43 39L43 40L44 40L44 41L43 41L43 42L44 42L44 41L45 41L45 37L44 37L44 36L42 36L42 37L43 37L43 38L42 38L42 39L41 39L41 36L40 36L40 35L41 35L41 34L40 34L40 33L38 33L38 31L39 31L39 32L41 32L41 33L42 33L42 32L41 32L41 31L43 31L43 30L44 30L44 31L45 31L45 28L44 28L44 27L45 27L45 24L44 24L44 23L45 23L45 17L43 17L43 20L42 20L42 21L43 21L43 20L44 20L44 23L43 23L43 22L41 22L41 20L40 20L40 19L42 19L42 16L41 16L41 14L40 14L40 17L39 17L39 18L40 18L40 19L37 19L37 20L36 20L36 18L35 18L35 19L34 19L34 20L36 20L36 21L35 21L35 22L34 22L34 23L33 23L33 22L32 22L32 21L33 21L33 18L34 18L34 15L35 15L35 17L36 17L36 16L38 16L38 15L39 15L39 14L38 14L38 15L37 15L37 14L34 14L34 15L32 15L32 14L33 14L33 13L35 13L35 12L36 12L36 13L37 13L37 12L36 12L36 10L35 10L35 12L34 12L34 10L33 10L33 11L31 11L31 10L30 10L30 11L31 11L31 12L23 12L23 14L22 14L22 15L23 15L23 16L22 16L22 17L21 17L21 16L20 16L20 17L19 17L19 13L21 13L21 12L22 12L22 11L21 11L21 10L24 10L24 11L26 11L26 10L25 10L25 9L26 9L26 7L27 7L27 10L28 10L28 11L29 11L29 8L30 8L30 9L31 9L31 8L30 8L30 7L31 7L31 6L32 6L32 9L35 9L35 6L34 6L34 5L37 5L37 3L36 3L36 1L37 1L37 0L36 0L36 1L35 1L35 4L34 4L34 5L33 5L33 4L32 4L32 5L31 5L31 4L28 4L28 5L27 5L27 4L26 4L26 2L28 2L28 3L31 3L31 2L32 2L32 3L33 3L33 2L34 2L34 0L32 0L32 1L31 1L31 0L30 0L30 1L29 1L29 0L25 0L25 2L24 2L24 0L22 0L22 1L21 1L21 0L18 0L18 1L19 1L19 2L17 2L17 1L16 1L16 0L14 0L14 2L13 2L13 0L12 0L12 2L11 2L11 0ZM20 1L20 2L21 2L21 1ZM22 1L22 2L23 2L23 3L22 3L22 4L23 4L23 3L24 3L24 4L25 4L25 3L24 3L24 2L23 2L23 1ZM32 1L32 2L33 2L33 1ZM12 2L12 3L10 3L10 4L12 4L12 3L13 3L13 4L14 4L14 6L13 6L13 11L10 11L10 12L7 12L7 11L6 11L6 10L8 10L8 9L6 9L6 10L5 10L5 9L4 9L4 10L2 10L2 11L3 11L3 13L4 13L4 14L5 14L5 15L6 15L6 16L7 16L7 15L6 15L6 14L7 14L7 13L9 13L9 14L10 14L10 15L12 15L12 14L13 14L13 13L12 13L12 12L13 12L13 11L14 11L14 12L15 12L15 11L14 11L14 10L15 10L15 9L14 9L14 8L15 8L15 7L16 7L16 8L19 8L19 9L18 9L18 10L17 10L17 9L16 9L16 10L17 10L17 11L16 11L16 13L15 13L15 14L14 14L14 15L16 15L16 16L14 16L14 18L11 18L11 19L13 19L13 20L16 20L16 21L15 21L15 23L14 23L14 21L13 21L13 23L12 23L12 22L11 22L11 21L12 21L12 20L11 20L11 21L10 21L10 19L9 19L9 23L10 23L10 24L11 24L11 26L10 26L10 25L9 25L9 26L8 26L8 25L6 25L6 26L8 26L8 28L7 28L7 29L6 29L6 30L7 30L7 31L6 31L6 32L7 32L7 31L8 31L8 30L7 30L7 29L8 29L8 28L9 28L9 30L10 30L10 29L11 29L11 30L13 30L13 28L12 28L12 27L14 27L14 26L15 26L15 25L14 25L14 24L15 24L15 23L16 23L16 24L17 24L17 23L16 23L16 22L18 22L18 20L19 20L19 22L20 22L20 20L21 20L21 19L22 19L22 20L24 20L24 19L22 19L22 18L23 18L23 17L22 17L22 18L21 18L21 17L20 17L20 18L19 18L19 17L17 17L17 18L16 18L16 16L18 16L18 12L21 12L21 11L20 11L20 8L19 8L19 7L20 7L20 6L19 6L19 7L18 7L18 6L17 6L17 7L16 7L16 6L15 6L15 2L14 2L14 3L13 3L13 2ZM16 2L16 3L17 3L17 2ZM18 3L18 4L17 4L17 5L19 5L19 4L21 4L21 3ZM10 5L10 6L9 6L9 8L10 8L10 6L11 6L11 7L12 7L12 6L11 6L11 5ZM21 5L21 8L24 8L24 5ZM26 5L26 6L25 6L25 7L26 7L26 6L27 6L27 7L28 7L28 6L29 6L29 7L30 7L30 6L31 6L31 5L30 5L30 6L29 6L29 5L28 5L28 6L27 6L27 5ZM32 5L32 6L33 6L33 7L34 7L34 6L33 6L33 5ZM14 6L14 7L15 7L15 6ZM22 6L22 7L23 7L23 6ZM36 6L36 8L37 8L37 11L38 11L38 13L43 13L43 14L42 14L42 15L43 15L43 16L45 16L45 13L44 13L44 12L45 12L45 9L43 9L43 8L42 8L42 9L41 9L41 10L39 10L39 11L38 11L38 9L39 9L39 8L37 8L37 6ZM11 8L11 9L12 9L12 8ZM9 9L9 10L10 10L10 9ZM42 9L42 10L41 10L41 11L40 11L40 12L44 12L44 11L42 11L42 10L43 10L43 9ZM4 10L4 13L5 13L5 12L6 12L6 13L7 13L7 12L6 12L6 11L5 11L5 10ZM18 10L18 11L17 11L17 12L18 12L18 11L19 11L19 10ZM10 12L10 13L11 13L11 14L12 14L12 13L11 13L11 12ZM31 12L31 13L26 13L26 14L25 14L25 16L24 16L24 18L25 18L25 19L26 19L26 20L25 20L25 22L29 22L29 23L30 23L30 24L29 24L29 25L26 25L26 23L25 23L25 25L24 25L24 26L23 26L23 27L21 27L21 26L22 26L22 25L20 25L20 23L18 23L18 24L19 24L19 25L18 25L18 26L17 26L17 25L16 25L16 26L17 26L17 27L16 27L16 28L15 28L15 29L16 29L16 30L17 30L17 32L19 32L19 33L18 33L18 34L19 34L19 35L18 35L18 36L19 36L19 37L18 37L18 39L17 39L17 40L18 40L18 39L19 39L19 41L20 41L20 38L19 38L19 37L20 37L20 35L22 35L22 36L26 36L26 37L25 37L25 38L27 38L27 39L25 39L25 41L21 41L21 43L22 43L22 42L23 42L23 44L27 44L27 42L28 42L28 43L31 43L31 42L32 42L32 37L31 37L31 35L32 35L32 36L35 36L35 37L34 37L34 38L33 38L33 39L34 39L34 40L33 40L33 41L34 41L34 40L35 40L35 39L36 39L36 38L35 38L35 37L36 37L36 34L38 34L38 33L36 33L36 32L33 32L33 33L32 33L32 31L34 31L34 30L35 30L35 31L36 31L36 30L37 30L37 29L38 29L38 30L39 30L39 31L41 31L41 29L42 29L42 28L43 28L43 29L44 29L44 28L43 28L43 27L41 27L41 28L40 28L40 27L38 27L38 28L36 28L36 27L37 27L37 26L41 26L41 25L42 25L42 26L44 26L44 24L43 24L43 23L41 23L41 25L37 25L37 26L36 26L36 24L35 24L35 23L34 23L34 24L33 24L33 25L32 25L32 22L31 22L31 21L32 21L32 20L31 20L31 19L32 19L32 18L33 18L33 17L32 17L32 15L31 15L31 16L30 16L30 14L32 14L32 12ZM16 14L16 15L17 15L17 14ZM20 14L20 15L21 15L21 14ZM23 14L23 15L24 15L24 14ZM27 14L27 15L28 15L28 16L25 16L25 17L27 17L27 20L26 20L26 21L31 21L31 20L30 20L30 18L31 18L31 17L29 17L29 15L28 15L28 14ZM43 14L43 15L44 15L44 14ZM8 15L8 16L9 16L9 17L5 17L5 16L3 16L3 17L2 17L2 18L1 18L1 19L2 19L2 18L4 18L4 17L5 17L5 18L9 18L9 17L10 17L10 16L9 16L9 15ZM12 16L12 17L13 17L13 16ZM28 17L28 18L29 18L29 17ZM37 17L37 18L38 18L38 17ZM40 17L40 18L41 18L41 17ZM18 18L18 19L16 19L16 20L18 20L18 19L19 19L19 18ZM20 18L20 19L21 19L21 18ZM3 19L3 20L2 20L2 21L3 21L3 20L5 20L5 19ZM6 19L6 20L7 20L7 19ZM28 19L28 20L29 20L29 19ZM5 21L5 24L8 24L8 21ZM21 21L21 24L24 24L24 21ZM37 21L37 24L40 24L40 21ZM1 22L1 23L2 23L2 24L3 24L3 25L4 25L4 24L3 24L3 22ZM6 22L6 23L7 23L7 22ZM22 22L22 23L23 23L23 22ZM30 22L30 23L31 23L31 22ZM38 22L38 23L39 23L39 22ZM27 23L27 24L28 24L28 23ZM12 24L12 26L13 26L13 24ZM30 24L30 25L29 25L29 26L28 26L28 27L27 27L27 30L26 30L26 31L25 31L25 29L26 29L26 27L25 27L25 29L24 29L24 28L22 28L22 29L21 29L21 28L20 28L20 27L19 27L19 26L18 26L18 27L19 27L19 28L18 28L18 29L17 29L17 30L22 30L22 35L23 35L23 34L24 34L24 33L23 33L23 29L24 29L24 31L25 31L25 33L29 33L29 32L30 32L30 33L31 33L31 32L30 32L30 31L31 31L31 30L30 30L30 31L29 31L29 30L28 30L28 29L29 29L29 28L28 28L28 27L29 27L29 26L30 26L30 25L31 25L31 24ZM34 24L34 25L33 25L33 27L31 27L31 28L30 28L30 29L31 29L31 28L32 28L32 29L34 29L34 25L35 25L35 24ZM9 26L9 28L10 28L10 26ZM11 28L11 29L12 29L12 28ZM19 28L19 29L20 29L20 28ZM38 28L38 29L39 29L39 30L40 30L40 29L39 29L39 28ZM3 29L3 30L2 30L2 31L3 31L3 30L4 30L4 29ZM35 29L35 30L36 30L36 29ZM14 30L14 31L15 31L15 30ZM19 31L19 32L21 32L21 31ZM26 31L26 32L27 32L27 31ZM43 32L43 33L45 33L45 32ZM12 33L12 34L13 34L13 33ZM33 33L33 34L32 34L32 35L33 35L33 34L34 34L34 33ZM35 33L35 34L36 34L36 33ZM25 34L25 35L26 35L26 36L27 36L27 38L28 38L28 39L27 39L27 40L26 40L26 41L31 41L31 38L30 38L30 39L29 39L29 38L28 38L28 37L30 37L30 35L29 35L29 36L27 36L27 35L28 35L28 34L27 34L27 35L26 35L26 34ZM43 34L43 35L45 35L45 34ZM37 35L37 36L39 36L39 35ZM21 37L21 40L24 40L24 37ZM37 37L37 40L40 40L40 37ZM22 38L22 39L23 39L23 38ZM38 38L38 39L39 39L39 38ZM8 42L8 45L10 45L10 44L11 44L11 42ZM32 43L32 44L33 44L33 43ZM43 43L43 44L42 44L42 45L45 45L45 44L44 44L44 43ZM0 0L0 7L7 7L7 0ZM1 1L1 6L6 6L6 1ZM2 2L2 5L5 5L5 2ZM38 0L38 7L45 7L45 0ZM39 1L39 6L44 6L44 1ZM40 2L40 5L43 5L43 2ZM0 38L0 45L7 45L7 38ZM1 39L1 44L6 44L6 39ZM2 40L2 43L5 43L5 40Z" fill="#000000"/></g></g></svg>
