<?xml version="1.0" encoding="UTF-8"?>
<svg xmlns="http://www.w3.org/2000/svg" version="1.1" width="200" height="200" viewBox="0 0 200 200"><rect x="0" y="0" width="200" height="200" fill="#ffffff"/><g transform="scale(4.878)"><g transform="translate(0,0)"><path fill-rule="evenodd" d="M8 0L8 2L9 2L9 1L10 1L10 0ZM13 0L13 1L11 1L11 2L13 2L13 3L12 3L12 4L13 4L13 5L11 5L11 3L10 3L10 4L8 4L8 10L9 10L9 9L11 9L11 6L12 6L12 7L13 7L13 5L14 5L14 4L13 4L13 3L14 3L14 2L13 2L13 1L15 1L15 0ZM16 0L16 2L15 2L15 3L16 3L16 2L17 2L17 3L18 3L18 2L17 2L17 1L19 1L19 0ZM20 0L20 1L22 1L22 0ZM28 0L28 3L29 3L29 4L30 4L30 5L32 5L32 4L30 4L30 2L31 2L31 0ZM29 1L29 2L30 2L30 1ZM32 1L32 3L33 3L33 1ZM21 2L21 3L22 3L22 4L21 4L21 6L20 6L20 3L19 3L19 6L18 6L18 7L19 7L19 8L18 8L18 9L16 9L16 10L15 10L15 8L17 8L17 6L16 6L16 4L15 4L15 6L14 6L14 7L15 7L15 8L14 8L14 9L13 9L13 8L12 8L12 10L11 10L11 11L8 11L8 13L7 13L7 12L6 12L6 11L7 11L7 10L6 10L6 9L7 9L7 8L5 8L5 9L4 9L4 10L5 10L5 12L4 12L4 11L2 11L2 10L3 10L3 8L0 8L0 9L2 9L2 10L0 10L0 11L2 11L2 12L0 12L0 13L2 13L2 12L4 12L4 14L3 14L3 15L2 15L2 14L1 14L1 15L0 15L0 16L1 16L1 17L0 17L0 19L2 19L2 20L0 20L0 22L2 22L2 23L1 23L1 25L0 25L0 28L1 28L1 30L0 30L0 31L2 31L2 32L0 32L0 33L3 33L3 32L4 32L4 33L5 33L5 31L7 31L7 32L6 32L6 33L8 33L8 34L9 34L9 35L8 35L8 36L9 36L9 37L10 37L10 39L11 39L11 40L9 40L9 38L8 38L8 41L11 41L11 40L12 40L12 41L13 41L13 38L15 38L15 35L18 35L18 36L16 36L16 39L15 39L15 40L17 40L17 39L18 39L18 41L19 41L19 40L20 40L20 41L21 41L21 39L22 39L22 36L21 36L21 37L20 37L20 36L19 36L19 35L20 35L20 34L21 34L21 33L20 33L20 32L21 32L21 31L22 31L22 32L23 32L23 34L22 34L22 35L24 35L24 34L26 34L26 33L27 33L27 35L26 35L26 37L28 37L28 38L25 38L25 36L24 36L24 38L23 38L23 39L28 39L28 38L29 38L29 39L31 39L31 40L30 40L30 41L31 41L31 40L32 40L32 41L35 41L35 40L32 40L32 39L37 39L37 40L36 40L36 41L38 41L38 39L39 39L39 38L40 38L40 39L41 39L41 36L39 36L39 38L38 38L38 37L37 37L37 36L38 36L38 35L39 35L39 34L40 34L40 35L41 35L41 32L39 32L39 33L38 33L38 35L37 35L37 32L38 32L38 31L39 31L39 30L40 30L40 31L41 31L41 30L40 30L40 29L41 29L41 24L39 24L39 25L40 25L40 28L39 28L39 30L38 30L38 27L39 27L39 26L38 26L38 22L36 22L36 21L35 21L35 20L33 20L33 21L32 21L32 20L31 20L31 19L32 19L32 18L33 18L33 19L36 19L36 20L38 20L38 19L39 19L39 20L41 20L41 12L39 12L39 13L38 13L38 11L37 11L37 10L39 10L39 9L40 9L40 11L41 11L41 8L39 8L39 9L37 9L37 8L33 8L33 6L32 6L32 8L33 8L33 9L30 9L30 10L29 10L29 11L31 11L31 13L32 13L32 14L30 14L30 17L31 17L31 19L30 19L30 18L29 18L29 19L30 19L30 20L27 20L27 21L26 21L26 20L25 20L25 19L24 19L24 18L26 18L26 16L24 16L24 14L25 14L25 15L29 15L29 13L30 13L30 12L29 12L29 13L28 13L28 8L29 8L29 6L28 6L28 8L26 8L26 9L27 9L27 11L26 11L26 10L25 10L25 9L24 9L24 8L25 8L25 4L24 4L24 8L23 8L23 11L24 11L24 10L25 10L25 11L26 11L26 12L23 12L23 13L24 13L24 14L22 14L22 12L21 12L21 11L22 11L22 10L21 10L21 6L22 6L22 7L23 7L23 6L22 6L22 4L23 4L23 3L24 3L24 2ZM25 2L25 3L26 3L26 5L28 5L28 4L27 4L27 3L26 3L26 2ZM17 4L17 5L18 5L18 4ZM9 6L9 8L10 8L10 6ZM15 6L15 7L16 7L16 6ZM19 6L19 7L20 7L20 6ZM26 6L26 7L27 7L27 6ZM30 6L30 8L31 8L31 6ZM19 8L19 9L20 9L20 8ZM35 9L35 10L37 10L37 9ZM13 10L13 11L14 11L14 13L13 13L13 12L12 12L12 11L11 11L11 14L10 14L10 12L9 12L9 14L8 14L8 19L5 19L5 20L8 20L8 21L5 21L5 22L4 22L4 18L5 18L5 17L4 17L4 16L2 16L2 15L1 15L1 16L2 16L2 17L1 17L1 18L2 18L2 19L3 19L3 20L2 20L2 22L3 22L3 23L4 23L4 24L8 24L8 23L9 23L9 25L10 25L10 24L11 24L11 25L12 25L12 27L11 27L11 26L8 26L8 27L11 27L11 28L10 28L10 29L11 29L11 30L12 30L12 31L9 31L9 30L7 30L7 29L6 29L6 30L7 30L7 31L8 31L8 32L9 32L9 34L10 34L10 35L9 35L9 36L10 36L10 37L11 37L11 39L12 39L12 36L11 36L11 34L10 34L10 32L14 32L14 33L13 33L13 34L12 34L12 35L13 35L13 36L14 36L14 35L13 35L13 34L15 34L15 32L16 32L16 34L18 34L18 30L20 30L20 31L19 31L19 32L20 32L20 31L21 31L21 30L22 30L22 31L23 31L23 32L24 32L24 31L25 31L25 33L26 33L26 32L27 32L27 33L28 33L28 35L29 35L29 36L30 36L30 37L29 37L29 38L31 38L31 36L30 36L30 35L29 35L29 33L30 33L30 34L31 34L31 35L32 35L32 33L30 33L30 32L37 32L37 31L38 31L38 30L37 30L37 27L38 27L38 26L37 26L37 24L36 24L36 22L35 22L35 26L34 26L34 25L33 25L33 26L34 26L34 27L31 27L31 26L30 26L30 27L29 27L29 25L30 25L30 24L34 24L34 23L33 23L33 22L32 22L32 21L31 21L31 20L30 20L30 21L28 21L28 23L27 23L27 22L25 22L25 23L23 23L23 24L22 24L22 22L24 22L24 21L25 21L25 20L24 20L24 19L23 19L23 20L22 20L22 19L21 19L21 18L23 18L23 16L22 16L22 15L21 15L21 12L19 12L19 10L17 10L17 11L18 11L18 14L17 14L17 12L16 12L16 11L15 11L15 10ZM20 10L20 11L21 11L21 10ZM32 10L32 12L33 12L33 11L34 11L34 12L36 12L36 15L34 15L34 13L33 13L33 14L32 14L32 15L31 15L31 16L32 16L32 17L33 17L33 16L32 16L32 15L34 15L34 16L36 16L36 17L35 17L35 18L36 18L36 19L37 19L37 17L38 17L38 18L39 18L39 19L40 19L40 18L39 18L39 16L40 16L40 13L39 13L39 15L38 15L38 13L37 13L37 11L34 11L34 10ZM5 12L5 13L6 13L6 14L7 14L7 13L6 13L6 12ZM26 12L26 13L25 13L25 14L28 14L28 13L27 13L27 12ZM11 14L11 15L12 15L12 14ZM13 14L13 15L16 15L16 14ZM18 14L18 15L20 15L20 14ZM6 15L6 16L7 16L7 15ZM37 15L37 16L38 16L38 15ZM11 16L11 17L10 17L10 18L9 18L9 19L8 19L8 20L11 20L11 21L10 21L10 22L11 22L11 21L12 21L12 23L11 23L11 24L12 24L12 25L13 25L13 26L14 26L14 25L15 25L15 29L16 29L16 25L17 25L17 26L19 26L19 27L20 27L20 28L19 28L19 29L22 29L22 30L23 30L23 31L24 31L24 30L25 30L25 31L27 31L27 32L29 32L29 30L30 30L30 31L35 31L35 30L36 30L36 31L37 31L37 30L36 30L36 28L35 28L35 27L37 27L37 26L35 26L35 27L34 27L34 28L32 28L32 30L30 30L30 28L27 28L27 29L28 29L28 30L25 30L25 29L26 29L26 28L25 28L25 27L26 27L26 26L27 26L27 27L28 27L28 24L29 24L29 23L32 23L32 22L29 22L29 23L28 23L28 24L26 24L26 23L25 23L25 24L23 24L23 25L21 25L21 21L22 21L22 20L20 20L20 23L19 23L19 19L20 19L20 18L21 18L21 16L18 16L18 17L19 17L19 18L17 18L17 16L14 16L14 18L13 18L13 17L12 17L12 16ZM27 16L27 19L28 19L28 16ZM3 17L3 18L4 18L4 17ZM6 17L6 18L7 18L7 17ZM15 17L15 18L16 18L16 17ZM11 19L11 20L14 20L14 19ZM15 19L15 20L18 20L18 19ZM13 21L13 22L14 22L14 21ZM15 21L15 23L16 23L16 21ZM17 21L17 22L18 22L18 21ZM39 21L39 22L40 22L40 23L41 23L41 21ZM5 22L5 23L8 23L8 22ZM13 23L13 25L14 25L14 23ZM17 23L17 25L18 25L18 24L19 24L19 25L20 25L20 24L19 24L19 23ZM2 24L2 25L3 25L3 27L2 27L2 29L5 29L5 28L7 28L7 27L6 27L6 26L7 26L7 25L5 25L5 26L4 26L4 25L3 25L3 24ZM15 24L15 25L16 25L16 24ZM25 24L25 26L24 26L24 27L23 27L23 28L22 28L22 26L21 26L21 28L22 28L22 29L23 29L23 30L24 30L24 29L25 29L25 28L24 28L24 27L25 27L25 26L26 26L26 24ZM4 27L4 28L5 28L5 27ZM12 27L12 28L13 28L13 29L14 29L14 27ZM17 27L17 29L18 29L18 27ZM8 28L8 29L9 29L9 28ZM33 29L33 30L34 30L34 29ZM2 30L2 31L5 31L5 30ZM13 30L13 31L16 31L16 30ZM33 33L33 36L36 36L36 33ZM34 34L34 35L35 35L35 34ZM17 37L17 38L18 38L18 39L19 39L19 38L20 38L20 39L21 39L21 38L20 38L20 37L19 37L19 38L18 38L18 37ZM34 37L34 38L36 38L36 37ZM23 40L23 41L25 41L25 40ZM27 40L27 41L28 41L28 40ZM40 40L40 41L41 41L41 40ZM0 0L0 7L7 7L7 0ZM1 1L1 6L6 6L6 1ZM2 2L2 5L5 5L5 2ZM34 0L34 7L41 7L41 0ZM35 1L35 6L40 6L40 1ZM36 2L36 5L39 5L39 2ZM0 34L0 41L7 41L7 34ZM1 35L1 40L6 40L6 35ZM2 36L2 39L5 39L5 36Z" fill="#000000"/></g></g></svg>
