<?xml version="1.0" encoding="UTF-8"?>
<svg xmlns="http://www.w3.org/2000/svg" version="1.1" width="200" height="200" viewBox="0 0 200 200"><rect x="0" y="0" width="200" height="200" fill="#ffffff"/><g transform="scale(5.405)"><g transform="translate(0,0)"><path fill-rule="evenodd" d="M9 0L9 1L8 1L8 2L9 2L9 3L8 3L8 4L10 4L10 7L11 7L11 4L12 4L12 5L13 5L13 4L14 4L14 3L15 3L15 6L14 6L14 7L15 7L15 6L16 6L16 8L17 8L17 9L15 9L15 8L14 8L14 9L13 9L13 6L12 6L12 9L13 9L13 10L10 10L10 9L11 9L11 8L6 8L6 9L5 9L5 8L0 8L0 9L2 9L2 11L1 11L1 10L0 10L0 14L1 14L1 15L0 15L0 16L1 16L1 17L0 17L0 18L1 18L1 19L0 19L0 22L1 22L1 23L0 23L0 29L1 29L1 26L2 26L2 29L7 29L7 28L8 28L8 31L9 31L9 32L8 32L8 37L9 37L9 34L10 34L10 35L11 35L11 34L10 34L10 33L11 33L11 32L13 32L13 31L11 31L11 30L9 30L9 28L10 28L10 29L12 29L12 30L13 30L13 28L12 28L12 27L14 27L14 29L15 29L15 27L16 27L16 26L15 26L15 27L14 27L14 26L11 26L11 27L10 27L10 25L11 25L11 23L9 23L9 22L10 22L10 21L12 21L12 22L14 22L14 21L15 21L15 23L14 23L14 25L16 25L16 22L17 22L17 21L18 21L18 20L17 20L17 21L16 21L16 19L17 19L17 17L18 17L18 18L20 18L20 19L19 19L19 22L21 22L21 23L18 23L18 24L17 24L17 25L18 25L18 27L19 27L19 25L20 25L20 26L21 26L21 30L20 30L20 29L18 29L18 28L16 28L16 29L17 29L17 30L18 30L18 31L19 31L19 30L20 30L20 31L21 31L21 32L20 32L20 33L19 33L19 34L14 34L14 33L16 33L16 30L15 30L15 31L14 31L14 33L13 33L13 34L12 34L12 37L14 37L14 36L13 36L13 34L14 34L14 35L15 35L15 37L16 37L16 36L17 36L17 37L18 37L18 36L19 36L19 34L20 34L20 33L21 33L21 36L20 36L20 37L21 37L21 36L22 36L22 33L21 33L21 32L23 32L23 34L24 34L24 33L30 33L30 34L29 34L29 35L28 35L28 36L27 36L27 35L26 35L26 34L25 34L25 35L26 35L26 36L25 36L25 37L28 37L28 36L29 36L29 37L31 37L31 35L32 35L32 34L31 34L31 33L33 33L33 37L37 37L37 34L34 34L34 33L35 33L35 32L36 32L36 33L37 33L37 26L36 26L36 25L37 25L37 24L36 24L36 25L35 25L35 24L34 24L34 23L37 23L37 22L35 22L35 21L36 21L36 19L37 19L37 18L35 18L35 20L34 20L34 17L37 17L37 14L36 14L36 13L37 13L37 10L35 10L35 9L36 9L36 8L35 8L35 9L34 9L34 8L33 8L33 10L32 10L32 8L31 8L31 11L29 11L29 14L26 14L26 13L28 13L28 10L29 10L29 9L30 9L30 8L29 8L29 6L28 6L28 8L29 8L29 9L27 9L27 6L26 6L26 8L25 8L25 5L26 5L26 4L29 4L29 3L28 3L28 1L27 1L27 3L25 3L25 0L23 0L23 1L24 1L24 2L23 2L23 4L21 4L21 3L22 3L22 0L17 0L17 2L16 2L16 1L15 1L15 2L14 2L14 0L13 0L13 1L11 1L11 2L10 2L10 0ZM18 1L18 2L17 2L17 3L18 3L18 4L17 4L17 5L16 5L16 6L17 6L17 8L18 8L18 9L20 9L20 8L21 8L21 9L24 9L24 5L19 5L19 4L20 4L20 3L21 3L21 1ZM12 2L12 4L13 4L13 3L14 3L14 2ZM19 2L19 3L20 3L20 2ZM10 3L10 4L11 4L11 3ZM24 3L24 4L25 4L25 3ZM8 5L8 7L9 7L9 5ZM18 5L18 8L19 8L19 5ZM20 6L20 7L21 7L21 8L23 8L23 6L22 6L22 7L21 7L21 6ZM3 9L3 10L5 10L5 12L4 12L4 13L3 13L3 14L2 14L2 15L1 15L1 16L2 16L2 15L3 15L3 16L5 16L5 17L4 17L4 18L7 18L7 19L5 19L5 20L4 20L4 22L3 22L3 17L1 17L1 18L2 18L2 21L1 21L1 22L2 22L2 23L1 23L1 25L3 25L3 26L4 26L4 27L5 27L5 25L6 25L6 26L7 26L7 27L6 27L6 28L7 28L7 27L8 27L8 28L9 28L9 26L8 26L8 24L7 24L7 23L6 23L6 24L5 24L5 25L3 25L3 24L2 24L2 23L4 23L4 22L5 22L5 21L6 21L6 22L8 22L8 21L6 21L6 20L7 20L7 19L8 19L8 20L9 20L9 18L7 18L7 17L8 17L8 16L7 16L7 15L6 15L6 14L7 14L7 13L8 13L8 15L9 15L9 14L10 14L10 19L11 19L11 18L13 18L13 19L12 19L12 21L14 21L14 20L15 20L15 19L14 19L14 18L15 18L15 17L14 17L14 14L15 14L15 13L14 13L14 10L15 10L15 9L14 9L14 10L13 10L13 11L12 11L12 13L11 13L11 11L10 11L10 10L7 10L7 9L6 9L6 10L5 10L5 9ZM26 9L26 10L25 10L25 11L24 11L24 10L23 10L23 11L24 11L24 12L26 12L26 10L27 10L27 9ZM6 10L6 11L7 11L7 10ZM17 10L17 12L16 12L16 13L17 13L17 14L16 14L16 15L17 15L17 16L16 16L16 17L17 17L17 16L18 16L18 17L19 17L19 16L20 16L20 17L23 17L23 15L24 15L24 16L26 16L26 14L25 14L25 13L24 13L24 14L22 14L22 13L23 13L23 12L21 12L21 10L19 10L19 11L18 11L18 10ZM33 10L33 11L31 11L31 12L33 12L33 13L32 13L32 14L34 14L34 16L36 16L36 15L35 15L35 13L34 13L34 12L35 12L35 10ZM2 11L2 12L1 12L1 13L2 13L2 12L3 12L3 11ZM6 12L6 13L5 13L5 14L3 14L3 15L5 15L5 16L6 16L6 17L7 17L7 16L6 16L6 15L5 15L5 14L6 14L6 13L7 13L7 12ZM17 12L17 13L18 13L18 12ZM10 13L10 14L11 14L11 13ZM12 13L12 14L13 14L13 13ZM19 13L19 14L17 14L17 15L18 15L18 16L19 16L19 14L20 14L20 16L22 16L22 14L20 14L20 13ZM30 13L30 14L29 14L29 15L27 15L27 16L29 16L29 17L24 17L24 18L22 18L22 20L20 20L20 21L22 21L22 24L23 24L23 25L21 25L21 24L20 24L20 25L21 25L21 26L23 26L23 27L22 27L22 28L23 28L23 29L24 29L24 30L23 30L23 32L26 32L26 31L28 31L28 29L26 29L26 30L25 30L25 29L24 29L24 27L25 27L25 28L27 28L27 26L28 26L28 27L29 27L29 28L30 28L30 26L31 26L31 25L32 25L32 26L33 26L33 25L32 25L32 23L33 23L33 21L34 21L34 20L33 20L33 17L32 17L32 19L31 19L31 21L30 21L30 18L31 18L31 17L30 17L30 16L33 16L33 15L30 15L30 14L31 14L31 13ZM12 15L12 17L13 17L13 15ZM29 15L29 16L30 16L30 15ZM27 18L27 19L26 19L26 20L25 20L25 19L24 19L24 20L23 20L23 22L24 22L24 23L25 23L25 22L24 22L24 21L26 21L26 23L27 23L27 24L25 24L25 25L26 25L26 26L25 26L25 27L26 27L26 26L27 26L27 25L29 25L29 23L28 23L28 22L27 22L27 21L29 21L29 22L30 22L30 21L29 21L29 18ZM32 20L32 21L31 21L31 22L32 22L32 21L33 21L33 20ZM12 23L12 25L13 25L13 23ZM6 24L6 25L7 25L7 24ZM9 24L9 25L10 25L10 24ZM18 24L18 25L19 25L19 24ZM30 24L30 25L31 25L31 24ZM23 25L23 26L24 26L24 25ZM34 25L34 28L33 28L33 27L31 27L31 28L33 28L33 31L34 31L34 32L33 32L33 33L34 33L34 32L35 32L35 29L36 29L36 27L35 27L35 25ZM34 28L34 29L35 29L35 28ZM29 29L29 32L32 32L32 29ZM24 30L24 31L25 31L25 30ZM30 30L30 31L31 31L31 30ZM10 31L10 32L9 32L9 33L10 33L10 32L11 32L11 31ZM17 32L17 33L18 33L18 32ZM30 34L30 35L29 35L29 36L30 36L30 35L31 35L31 34ZM17 35L17 36L18 36L18 35ZM34 35L34 36L36 36L36 35ZM0 0L0 7L7 7L7 0ZM1 1L1 6L6 6L6 1ZM2 2L2 5L5 5L5 2ZM30 0L30 7L37 7L37 0ZM31 1L31 6L36 6L36 1ZM32 2L32 5L35 5L35 2ZM0 30L0 37L7 37L7 30ZM1 31L1 36L6 36L6 31ZM2 32L2 35L5 35L5 32Z" fill="#000000"/></g></g></svg>
