<?xml version="1.0" encoding="UTF-8"?>
<svg xmlns="http://www.w3.org/2000/svg" version="1.1" width="200" height="200" viewBox="0 0 200 200"><rect x="0" y="0" width="200" height="200" fill="#ffffff"/><g transform="scale(4.878)"><g transform="translate(0,0)"><path fill-rule="evenodd" d="M8 0L8 2L9 2L9 0ZM12 0L12 1L10 1L10 4L8 4L8 9L7 9L7 8L5 8L5 10L6 10L6 11L7 11L7 12L5 12L5 13L4 13L4 12L1 12L1 13L4 13L4 14L3 14L3 15L2 15L2 17L4 17L4 18L1 18L1 16L0 16L0 18L1 18L1 20L0 20L0 22L1 22L1 20L3 20L3 19L4 19L4 21L7 21L7 22L3 22L3 21L2 21L2 23L3 23L3 24L2 24L2 25L3 25L3 26L2 26L2 27L3 27L3 29L2 29L2 28L0 28L0 29L2 29L2 30L0 30L0 31L3 31L3 29L4 29L4 30L5 30L5 29L7 29L7 30L6 30L6 31L7 31L7 32L5 32L5 31L4 31L4 32L0 32L0 33L7 33L7 32L8 32L8 31L10 31L10 30L11 30L11 31L12 31L12 30L11 30L11 27L12 27L12 28L13 28L13 29L14 29L14 27L12 27L12 25L13 25L13 26L14 26L14 25L15 25L15 27L16 27L16 28L15 28L15 29L16 29L16 28L17 28L17 29L18 29L18 27L17 27L17 26L19 26L19 27L20 27L20 28L19 28L19 30L18 30L18 34L17 34L17 35L16 35L16 32L15 32L15 34L13 34L13 33L14 33L14 32L9 32L9 33L8 33L8 34L9 34L9 33L11 33L11 35L8 35L8 36L10 36L10 38L11 38L11 36L12 36L12 39L11 39L11 40L12 40L12 41L13 41L13 38L15 38L15 37L16 37L16 39L15 39L15 40L17 40L17 39L18 39L18 41L21 41L21 40L20 40L20 38L21 38L21 39L22 39L22 36L19 36L19 35L20 35L20 34L21 34L21 35L24 35L24 34L25 34L25 35L26 35L26 37L28 37L28 38L25 38L25 37L24 37L24 38L23 38L23 39L37 39L37 40L36 40L36 41L38 41L38 39L39 39L39 38L40 38L40 39L41 39L41 36L39 36L39 38L38 38L38 37L37 37L37 36L38 36L38 35L39 35L39 34L40 34L40 35L41 35L41 32L40 32L40 33L38 33L38 35L37 35L37 32L38 32L38 31L39 31L39 30L40 30L40 31L41 31L41 30L40 30L40 29L41 29L41 24L39 24L39 25L40 25L40 28L39 28L39 30L38 30L38 27L39 27L39 26L38 26L38 22L36 22L36 21L35 21L35 20L31 20L31 19L32 19L32 18L33 18L33 19L36 19L36 20L38 20L38 19L39 19L39 20L41 20L41 12L39 12L39 13L38 13L38 11L37 11L37 10L39 10L39 9L40 9L40 11L41 11L41 8L39 8L39 9L37 9L37 8L33 8L33 9L32 9L32 8L31 8L31 6L30 6L30 8L31 8L31 9L30 9L30 10L28 10L28 9L27 9L27 8L29 8L29 5L28 5L28 4L27 4L27 3L30 3L30 4L31 4L31 5L32 5L32 4L31 4L31 2L27 2L27 1L25 1L25 3L24 3L24 2L23 2L23 1L22 1L22 0L20 0L20 1L22 1L22 2L21 2L21 3L22 3L22 4L21 4L21 6L20 6L20 8L18 8L18 9L16 9L16 10L15 10L15 8L17 8L17 6L16 6L16 4L15 4L15 6L14 6L14 7L15 7L15 8L14 8L14 9L12 9L12 11L10 11L10 10L9 10L9 11L8 11L8 9L10 9L10 8L12 8L12 7L13 7L13 5L14 5L14 4L13 4L13 3L14 3L14 2L12 2L12 1L15 1L15 0ZM16 0L16 2L15 2L15 3L16 3L16 2L17 2L17 3L19 3L19 4L17 4L17 5L20 5L20 3L19 3L19 0ZM28 0L28 1L29 1L29 0ZM30 0L30 1L31 1L31 0ZM17 1L17 2L18 2L18 1ZM32 1L32 3L33 3L33 1ZM11 2L11 3L12 3L12 2ZM26 2L26 3L25 3L25 4L24 4L24 3L23 3L23 4L24 4L24 5L22 5L22 6L21 6L21 9L22 9L22 10L20 10L20 11L21 11L21 12L19 12L19 10L17 10L17 11L18 11L18 14L17 14L17 12L16 12L16 11L15 11L15 10L13 10L13 11L14 11L14 13L13 13L13 12L10 12L10 13L9 13L9 14L8 14L8 12L7 12L7 13L6 13L6 14L5 14L5 15L6 15L6 16L8 16L8 15L9 15L9 14L10 14L10 15L11 15L11 16L10 16L10 17L9 17L9 18L8 18L8 17L6 17L6 18L7 18L7 19L6 19L6 20L7 20L7 21L8 21L8 23L9 23L9 24L8 24L8 25L9 25L9 24L10 24L10 27L11 27L11 25L12 25L12 24L10 24L10 23L12 23L12 21L11 21L11 20L14 20L14 19L10 19L10 20L9 20L9 18L11 18L11 16L12 16L12 17L13 17L13 18L14 18L14 16L17 16L17 18L19 18L19 17L20 17L20 15L18 15L18 14L20 14L20 13L21 13L21 12L22 12L22 14L24 14L24 13L25 13L25 14L26 14L26 13L27 13L27 14L28 14L28 19L26 19L26 18L27 18L27 15L25 15L25 16L26 16L26 17L25 17L25 18L24 18L24 19L23 19L23 17L24 17L24 15L23 15L23 16L22 16L22 15L21 15L21 17L22 17L22 18L20 18L20 19L19 19L19 22L20 22L20 20L22 20L22 21L21 21L21 23L17 23L17 25L16 25L16 24L15 24L15 25L16 25L16 26L17 26L17 25L18 25L18 24L21 24L21 29L20 29L20 31L19 31L19 33L21 33L21 34L23 34L23 32L22 32L22 31L23 31L23 30L24 30L24 32L25 32L25 34L26 34L26 35L27 35L27 33L26 33L26 32L27 32L27 31L25 31L25 30L28 30L28 29L27 29L27 28L30 28L30 30L29 30L29 31L28 31L28 35L29 35L29 36L28 36L28 37L29 37L29 38L31 38L31 37L30 37L30 36L31 36L31 35L32 35L32 32L37 32L37 31L38 31L38 30L37 30L37 27L38 27L38 26L37 26L37 24L36 24L36 22L35 22L35 26L34 26L34 25L33 25L33 26L34 26L34 27L31 27L31 28L30 28L30 27L29 27L29 26L30 26L30 24L31 24L31 23L29 23L29 22L32 22L32 24L34 24L34 23L33 23L33 22L32 22L32 21L31 21L31 20L30 20L30 19L31 19L31 17L30 17L30 14L31 14L31 12L30 12L30 11L31 11L31 10L30 10L30 11L28 11L28 12L30 12L30 13L29 13L29 14L28 14L28 13L27 13L27 12L26 12L26 11L27 11L27 9L26 9L26 8L27 8L27 7L28 7L28 5L27 5L27 4L26 4L26 3L27 3L27 2ZM11 4L11 7L12 7L12 5L13 5L13 4ZM25 4L25 5L24 5L24 8L23 8L23 11L22 11L22 12L23 12L23 13L24 13L24 12L23 12L23 11L24 11L24 10L25 10L25 11L26 11L26 10L25 10L25 9L24 9L24 8L25 8L25 5L26 5L26 4ZM9 6L9 7L10 7L10 6ZM15 6L15 7L16 7L16 6ZM18 6L18 7L19 7L19 6ZM22 6L22 7L23 7L23 6ZM26 6L26 7L27 7L27 6ZM32 6L32 7L33 7L33 6ZM0 8L0 9L1 9L1 11L4 11L4 9L3 9L3 8ZM2 9L2 10L3 10L3 9ZM6 9L6 10L7 10L7 9ZM35 9L35 10L37 10L37 9ZM32 10L32 12L33 12L33 11L34 11L34 12L36 12L36 15L34 15L34 13L32 13L32 14L33 14L33 15L34 15L34 16L36 16L36 17L35 17L35 18L36 18L36 19L37 19L37 17L38 17L38 18L39 18L39 19L40 19L40 18L39 18L39 16L40 16L40 13L39 13L39 15L38 15L38 13L37 13L37 11L34 11L34 10ZM25 12L25 13L26 13L26 12ZM10 13L10 14L11 14L11 15L12 15L12 14L11 14L11 13ZM0 14L0 15L1 15L1 14ZM6 14L6 15L7 15L7 14ZM13 14L13 15L16 15L16 14ZM31 15L31 16L32 16L32 17L33 17L33 16L32 16L32 15ZM37 15L37 16L38 16L38 15ZM4 16L4 17L5 17L5 16ZM18 16L18 17L19 17L19 16ZM15 17L15 18L16 18L16 17ZM29 17L29 19L30 19L30 17ZM4 18L4 19L5 19L5 18ZM15 19L15 20L18 20L18 19ZM24 19L24 22L23 22L23 21L22 21L22 24L24 24L24 25L22 25L22 29L23 29L23 27L24 27L24 30L25 30L25 29L26 29L26 28L27 28L27 27L28 27L28 24L29 24L29 23L28 23L28 22L29 22L29 21L30 21L30 20L29 20L29 21L28 21L28 22L27 22L27 23L28 23L28 24L26 24L26 23L24 23L24 22L26 22L26 20L25 20L25 19ZM10 21L10 22L11 22L11 21ZM13 21L13 22L14 22L14 21ZM15 21L15 23L16 23L16 21ZM17 21L17 22L18 22L18 21ZM39 21L39 22L40 22L40 23L41 23L41 21ZM0 23L0 25L1 25L1 23ZM6 23L6 24L7 24L7 23ZM13 23L13 25L14 25L14 23ZM4 24L4 25L5 25L5 24ZM25 24L25 26L24 26L24 27L25 27L25 28L26 28L26 24ZM6 25L6 26L4 26L4 29L5 29L5 28L9 28L9 29L8 29L8 30L7 30L7 31L8 31L8 30L9 30L9 29L10 29L10 28L9 28L9 26L8 26L8 27L6 27L6 26L7 26L7 25ZM0 26L0 27L1 27L1 26ZM35 26L35 27L34 27L34 28L33 28L33 29L32 29L32 30L30 30L30 31L35 31L35 30L36 30L36 31L37 31L37 30L36 30L36 28L35 28L35 27L37 27L37 26ZM33 29L33 30L34 30L34 29ZM13 30L13 31L16 31L16 30ZM21 30L21 31L22 31L22 30ZM30 32L30 33L29 33L29 34L30 34L30 33L31 33L31 32ZM33 33L33 36L36 36L36 33ZM12 34L12 35L13 35L13 36L14 36L14 35L13 35L13 34ZM34 34L34 35L35 35L35 34ZM17 35L17 36L18 36L18 35ZM19 37L19 38L20 38L20 37ZM34 37L34 38L36 38L36 37ZM8 38L8 41L9 41L9 38ZM23 40L23 41L25 41L25 40ZM27 40L27 41L28 41L28 40ZM30 40L30 41L31 41L31 40ZM32 40L32 41L35 41L35 40ZM40 40L40 41L41 41L41 40ZM0 0L0 7L7 7L7 0ZM1 1L1 6L6 6L6 1ZM2 2L2 5L5 5L5 2ZM34 0L34 7L41 7L41 0ZM35 1L35 6L40 6L40 1ZM36 2L36 5L39 5L39 2ZM0 34L0 41L7 41L7 34ZM1 35L1 40L6 40L6 35ZM2 36L2 39L5 39L5 36Z" fill="#000000"/></g></g></svg>
