<?xml version="1.0" encoding="UTF-8"?>
<svg xmlns="http://www.w3.org/2000/svg" version="1.1" width="200" height="200" viewBox="0 0 200 200"><rect x="0" y="0" width="200" height="200" fill="#ffffff"/><g transform="scale(8)"><g transform="translate(0,0)"><path fill-rule="evenodd" d="M8 0L8 2L10 2L10 4L8 4L8 9L9 9L9 10L6 10L6 9L7 9L7 8L5 8L5 9L4 9L4 10L3 10L3 8L0 8L0 9L2 9L2 11L1 11L1 10L0 10L0 13L2 13L2 14L0 14L0 15L2 15L2 16L0 16L0 17L2 17L2 16L4 16L4 15L3 15L3 14L4 14L4 13L2 13L2 11L3 11L3 12L4 12L4 10L5 10L5 15L9 15L9 17L8 17L8 18L9 18L9 17L10 17L10 18L11 18L11 17L12 17L12 16L13 16L13 18L14 18L14 19L13 19L13 20L12 20L12 19L8 19L8 20L10 20L10 21L11 21L11 20L12 20L12 21L13 21L13 22L11 22L11 23L13 23L13 24L11 24L11 25L13 25L13 24L14 24L14 25L16 25L16 24L18 24L18 25L19 25L19 23L18 23L18 22L17 22L17 23L15 23L15 22L14 22L14 21L15 21L15 20L14 20L14 19L15 19L15 15L17 15L17 14L15 14L15 13L16 13L16 12L17 12L17 11L18 11L18 10L19 10L19 11L23 11L23 10L22 10L22 9L21 9L21 8L17 8L17 9L16 9L16 10L15 10L15 11L16 11L16 12L15 12L15 13L14 13L14 9L15 9L15 8L16 8L16 7L17 7L17 6L16 6L16 7L15 7L15 3L16 3L16 5L17 5L17 3L16 3L16 1L14 1L14 0L13 0L13 1L12 1L12 0L10 0L10 1L9 1L9 0ZM10 1L10 2L11 2L11 5L10 5L10 6L9 6L9 9L11 9L11 8L12 8L12 9L13 9L13 8L15 8L15 7L14 7L14 6L13 6L13 5L14 5L14 2L13 2L13 3L12 3L12 2L11 2L11 1ZM11 5L11 6L10 6L10 8L11 8L11 6L12 6L12 7L13 7L13 6L12 6L12 5ZM23 8L23 9L24 9L24 12L23 12L23 13L22 13L22 14L21 14L21 12L19 12L19 13L20 13L20 14L21 14L21 15L20 15L20 16L19 16L19 14L18 14L18 16L16 16L16 21L21 21L21 20L22 20L22 19L21 19L21 17L22 17L22 18L24 18L24 19L23 19L23 20L24 20L24 21L22 21L22 23L24 23L24 24L21 24L21 23L20 23L20 24L21 24L21 25L25 25L25 22L24 22L24 21L25 21L25 8ZM19 9L19 10L20 10L20 9ZM11 10L11 11L8 11L8 12L7 12L7 11L6 11L6 12L7 12L7 13L6 13L6 14L9 14L9 15L10 15L10 17L11 17L11 16L12 16L12 15L13 15L13 14L12 14L12 13L10 13L10 14L9 14L9 12L11 12L11 11L12 11L12 12L13 12L13 10ZM23 13L23 14L22 14L22 15L21 15L21 16L22 16L22 15L23 15L23 17L24 17L24 13ZM14 14L14 15L15 15L15 14ZM6 16L6 17L7 17L7 16ZM17 17L17 20L20 20L20 17ZM18 18L18 19L19 19L19 18ZM13 20L13 21L14 21L14 20ZM8 22L8 25L9 25L9 23L10 23L10 22ZM0 0L0 7L7 7L7 0ZM1 1L1 6L6 6L6 1ZM2 2L2 5L5 5L5 2ZM18 0L18 7L25 7L25 0ZM19 1L19 6L24 6L24 1ZM20 2L20 5L23 5L23 2ZM0 18L0 25L7 25L7 18ZM1 19L1 24L6 24L6 19ZM2 20L2 23L5 23L5 20Z" fill="#000000"/></g></g></svg>
