<?xml version="1.0" encoding="UTF-8"?>
<svg xmlns="http://www.w3.org/2000/svg" version="1.1" width="200" height="200" viewBox="0 0 200 200"><rect x="0" y="0" width="200" height="200" fill="#ffffff"/><g transform="scale(8)"><g transform="translate(0,0)"><path fill-rule="evenodd" d="M8 0L8 1L10 1L10 0ZM15 0L15 1L14 1L14 2L11 2L11 4L10 4L10 3L9 3L9 2L8 2L8 5L9 5L9 6L8 6L8 7L9 7L9 8L8 8L8 10L6 10L6 9L7 9L7 8L6 8L6 9L5 9L5 10L4 10L4 8L0 8L0 9L1 9L1 12L0 12L0 13L1 13L1 15L0 15L0 16L1 16L1 15L2 15L2 17L3 17L3 16L4 16L4 17L5 17L5 16L6 16L6 17L7 17L7 16L8 16L8 18L9 18L9 20L10 20L10 22L11 22L11 23L10 23L10 24L11 24L11 23L12 23L12 22L13 22L13 23L14 23L14 24L12 24L12 25L15 25L15 23L16 23L16 24L18 24L18 25L19 25L19 23L20 23L20 22L19 22L19 21L21 21L21 22L23 22L23 23L24 23L24 25L25 25L25 23L24 23L24 22L25 22L25 21L24 21L24 19L25 19L25 17L22 17L22 18L21 18L21 15L22 15L22 14L23 14L23 15L24 15L24 14L25 14L25 11L24 11L24 13L22 13L22 12L23 12L23 11L22 11L22 12L20 12L20 10L21 10L21 9L23 9L23 8L20 8L20 10L19 10L19 12L20 12L20 16L19 16L19 14L18 14L18 15L17 15L17 14L16 14L16 15L14 15L14 16L12 16L12 15L13 15L13 14L14 14L14 13L13 13L13 12L14 12L14 11L15 11L15 10L17 10L17 9L18 9L18 8L17 8L17 9L15 9L15 8L14 8L14 7L15 7L15 6L16 6L16 7L17 7L17 5L15 5L15 3L16 3L16 4L17 4L17 2L15 2L15 1L17 1L17 0ZM14 2L14 3L15 3L15 2ZM12 4L12 5L10 5L10 6L9 6L9 7L10 7L10 8L9 8L9 9L10 9L10 10L9 10L9 12L8 12L8 11L6 11L6 10L5 10L5 11L6 11L6 12L8 12L8 13L6 13L6 14L5 14L5 13L3 13L3 11L4 11L4 10L2 10L2 12L1 12L1 13L3 13L3 15L4 15L4 16L5 16L5 15L6 15L6 16L7 16L7 15L8 15L8 16L9 16L9 14L10 14L10 13L12 13L12 9L13 9L13 11L14 11L14 10L15 10L15 9L13 9L13 7L14 7L14 6L15 6L15 5L14 5L14 6L13 6L13 4ZM10 6L10 7L11 7L11 9L12 9L12 7L13 7L13 6L12 6L12 7L11 7L11 6ZM24 8L24 9L25 9L25 8ZM9 12L9 13L10 13L10 12ZM15 12L15 13L17 13L17 12ZM21 13L21 14L22 14L22 13ZM4 14L4 15L5 15L5 14ZM6 14L6 15L7 15L7 14ZM11 14L11 15L10 15L10 17L11 17L11 18L12 18L12 19L13 19L13 18L14 18L14 19L15 19L15 20L14 20L14 21L13 21L13 20L12 20L12 21L11 21L11 22L12 22L12 21L13 21L13 22L14 22L14 23L15 23L15 20L16 20L16 17L11 17L11 15L12 15L12 14ZM16 15L16 16L17 16L17 15ZM17 17L17 20L20 20L20 17ZM18 18L18 19L19 19L19 18ZM22 18L22 19L21 19L21 20L23 20L23 18ZM8 21L8 25L9 25L9 21ZM16 21L16 22L18 22L18 21ZM20 24L20 25L21 25L21 24ZM22 24L22 25L23 25L23 24ZM0 0L0 7L7 7L7 0ZM1 1L1 6L6 6L6 1ZM2 2L2 5L5 5L5 2ZM18 0L18 7L25 7L25 0ZM19 1L19 6L24 6L24 1ZM20 2L20 5L23 5L23 2ZM0 18L0 25L7 25L7 18ZM1 19L1 24L6 24L6 19ZM2 20L2 23L5 23L5 20Z" fill="#000000"/></g></g></svg>
