<?xml version="1.0" encoding="UTF-8"?>
<svg xmlns="http://www.w3.org/2000/svg" version="1.1" width="200" height="200" viewBox="0 0 200 200"><rect x="0" y="0" width="200" height="200" fill="#ffffff"/><g transform="scale(8)"><g transform="translate(0,0)"><path fill-rule="evenodd" d="M9 0L9 1L11 1L11 0ZM14 0L14 1L13 1L13 2L12 2L12 3L11 3L11 2L8 2L8 3L10 3L10 7L9 7L9 6L8 6L8 8L4 8L4 9L3 9L3 8L0 8L0 9L2 9L2 10L0 10L0 12L2 12L2 13L1 13L1 14L0 14L0 15L1 15L1 16L0 16L0 17L1 17L1 16L3 16L3 17L5 17L5 15L7 15L7 14L5 14L5 13L7 13L7 12L5 12L5 10L6 10L6 11L8 11L8 9L9 9L9 8L10 8L10 7L11 7L11 10L10 10L10 11L9 11L9 12L10 12L10 13L9 13L9 14L10 14L10 13L11 13L11 16L10 16L10 17L11 17L11 20L10 20L10 19L9 19L9 17L8 17L8 16L6 16L6 17L8 17L8 21L9 21L9 20L10 20L10 22L8 22L8 25L9 25L9 24L10 24L10 25L11 25L11 24L12 24L12 23L15 23L15 24L17 24L17 25L18 25L18 24L19 24L19 23L20 23L20 21L21 21L21 22L22 22L22 23L21 23L21 24L22 24L22 25L23 25L23 24L24 24L24 25L25 25L25 22L24 22L24 23L23 23L23 21L25 21L25 12L24 12L24 10L25 10L25 9L24 9L24 10L23 10L23 8L22 8L22 11L21 11L21 10L20 10L20 9L19 9L19 8L17 8L17 2L16 2L16 1L17 1L17 0L16 0L16 1L15 1L15 0ZM14 1L14 4L15 4L15 1ZM12 3L12 4L11 4L11 5L12 5L12 6L11 6L11 7L12 7L12 8L13 8L13 9L12 9L12 10L15 10L15 11L14 11L14 12L13 12L13 11L10 11L10 12L11 12L11 13L12 13L12 15L13 15L13 16L11 16L11 17L12 17L12 20L11 20L11 21L12 21L12 22L10 22L10 24L11 24L11 23L12 23L12 22L13 22L13 21L14 21L14 22L15 22L15 20L13 20L13 18L14 18L14 17L15 17L15 16L14 16L14 15L16 15L16 16L17 16L17 15L16 15L16 14L18 14L18 16L19 16L19 15L22 15L22 16L21 16L21 21L23 21L23 20L24 20L24 19L22 19L22 18L24 18L24 17L22 17L22 16L23 16L23 15L22 15L22 14L24 14L24 12L23 12L23 11L22 11L22 12L21 12L21 11L19 11L19 9L18 9L18 13L17 13L17 12L15 12L15 11L16 11L16 10L15 10L15 9L14 9L14 6L15 6L15 8L16 8L16 9L17 9L17 8L16 8L16 5L12 5L12 4L13 4L13 3ZM12 6L12 7L13 7L13 6ZM4 9L4 10L5 10L5 9ZM6 9L6 10L7 10L7 9ZM2 11L2 12L3 12L3 13L2 13L2 14L1 14L1 15L3 15L3 16L4 16L4 13L5 13L5 12L4 12L4 11ZM12 12L12 13L13 13L13 12ZM14 12L14 13L15 13L15 14L16 14L16 13L15 13L15 12ZM22 12L22 13L20 13L20 14L22 14L22 13L23 13L23 12ZM13 16L13 17L14 17L14 16ZM17 17L17 20L20 20L20 17ZM18 18L18 19L19 19L19 18ZM16 21L16 23L19 23L19 22L17 22L17 21ZM13 24L13 25L14 25L14 24ZM0 0L0 7L7 7L7 0ZM1 1L1 6L6 6L6 1ZM2 2L2 5L5 5L5 2ZM18 0L18 7L25 7L25 0ZM19 1L19 6L24 6L24 1ZM20 2L20 5L23 5L23 2ZM0 18L0 25L7 25L7 18ZM1 19L1 24L6 24L6 19ZM2 20L2 23L5 23L5 20Z" fill="#000000"/></g></g></svg>
