<?xml version="1.0" encoding="UTF-8"?>
<svg xmlns="http://www.w3.org/2000/svg" version="1.1" width="200" height="200" viewBox="0 0 200 200"><rect x="0" y="0" width="200" height="200" fill="#ffffff"/><g transform="scale(8)"><g transform="translate(0,0)"><path fill-rule="evenodd" d="M8 0L8 1L9 1L9 2L8 2L8 5L9 5L9 6L8 6L8 7L9 7L9 6L10 6L10 7L11 7L11 9L12 9L12 10L13 10L13 12L12 12L12 11L10 11L10 12L9 12L9 13L8 13L8 11L9 11L9 8L8 8L8 9L7 9L7 8L6 8L6 9L7 9L7 10L5 10L5 9L4 9L4 8L0 8L0 13L1 13L1 15L0 15L0 16L1 16L1 15L2 15L2 16L3 16L3 15L5 15L5 16L4 16L4 17L8 17L8 18L9 18L9 19L10 19L10 18L9 18L9 17L14 17L14 18L13 18L13 19L14 19L14 18L15 18L15 17L16 17L16 20L12 20L12 18L11 18L11 20L9 20L9 21L8 21L8 25L9 25L9 24L10 24L10 23L9 23L9 22L11 22L11 23L12 23L12 22L13 22L13 23L18 23L18 24L13 24L13 25L18 25L18 24L19 24L19 23L20 23L20 22L16 22L16 21L21 21L21 22L23 22L23 23L24 23L24 25L25 25L25 23L24 23L24 22L25 22L25 21L24 21L24 20L25 20L25 17L21 17L21 16L22 16L22 15L24 15L24 14L22 14L22 15L21 15L21 14L20 14L20 13L22 13L22 12L23 12L23 11L25 11L25 10L22 10L22 9L23 9L23 8L20 8L20 9L21 9L21 10L19 10L19 9L18 9L18 8L17 8L17 6L16 6L16 4L17 4L17 2L15 2L15 1L16 1L16 0L15 0L15 1L14 1L14 3L15 3L15 4L13 4L13 3L12 3L12 4L11 4L11 2L10 2L10 1L9 1L9 0ZM9 3L9 5L10 5L10 6L11 6L11 7L12 7L12 9L13 9L13 7L14 7L14 10L15 10L15 11L14 11L14 12L13 12L13 13L12 13L12 12L10 12L10 14L9 14L9 16L8 16L8 17L9 17L9 16L13 16L13 15L10 15L10 14L11 14L11 13L12 13L12 14L13 14L13 13L15 13L15 15L16 15L16 16L18 16L18 15L16 15L16 14L19 14L19 13L20 13L20 12L22 12L22 10L21 10L21 11L18 11L18 9L17 9L17 8L16 8L16 9L17 9L17 10L15 10L15 7L16 7L16 6L15 6L15 5L13 5L13 4L12 4L12 5L11 5L11 4L10 4L10 3ZM12 6L12 7L13 7L13 6ZM14 6L14 7L15 7L15 6ZM24 8L24 9L25 9L25 8ZM1 9L1 10L2 10L2 11L1 11L1 13L2 13L2 15L3 15L3 13L4 13L4 14L5 14L5 13L4 13L4 11L5 11L5 12L7 12L7 11L5 11L5 10L4 10L4 9ZM2 12L2 13L3 13L3 12ZM15 12L15 13L18 13L18 12ZM24 12L24 13L25 13L25 12ZM6 13L6 14L7 14L7 15L6 15L6 16L7 16L7 15L8 15L8 13ZM19 15L19 16L20 16L20 15ZM14 16L14 17L15 17L15 16ZM17 17L17 20L20 20L20 17ZM18 18L18 19L19 19L19 18ZM22 18L22 20L21 20L21 21L23 21L23 20L24 20L24 19L23 19L23 18ZM11 20L11 22L12 22L12 20ZM13 21L13 22L15 22L15 21ZM20 24L20 25L22 25L22 24ZM0 0L0 7L7 7L7 0ZM1 1L1 6L6 6L6 1ZM2 2L2 5L5 5L5 2ZM18 0L18 7L25 7L25 0ZM19 1L19 6L24 6L24 1ZM20 2L20 5L23 5L23 2ZM0 18L0 25L7 25L7 18ZM1 19L1 24L6 24L6 19ZM2 20L2 23L5 23L5 20Z" fill="#000000"/></g></g></svg>
