<?xml version="1.0" encoding="UTF-8"?>
<svg xmlns="http://www.w3.org/2000/svg" version="1.1" width="200" height="200" viewBox="0 0 200 200"><rect x="0" y="0" width="200" height="200" fill="#ffffff"/><g transform="scale(9.524)"><g transform="translate(0,0)"><path fill-rule="evenodd" d="M8 0L8 1L9 1L9 2L8 2L8 5L12 5L12 3L13 3L13 0L12 0L12 3L11 3L11 2L10 2L10 0ZM9 2L9 4L11 4L11 3L10 3L10 2ZM8 6L8 7L9 7L9 8L8 8L8 9L7 9L7 8L6 8L6 9L5 9L5 10L6 10L6 11L7 11L7 12L6 12L6 13L7 13L7 12L9 12L9 11L8 11L8 10L9 10L9 8L10 8L10 9L12 9L12 10L11 10L11 11L10 11L10 12L11 12L11 11L12 11L12 12L17 12L17 11L18 11L18 12L19 12L19 14L18 14L18 13L16 13L16 14L15 14L15 15L14 15L14 14L13 14L13 13L10 13L10 14L9 14L9 13L8 13L8 14L9 14L9 16L11 16L11 17L8 17L8 21L10 21L10 19L11 19L11 20L12 20L12 21L13 21L13 20L12 20L12 19L11 19L11 17L12 17L12 18L13 18L13 19L14 19L14 21L17 21L17 20L19 20L19 21L20 21L20 20L19 20L19 18L20 18L20 17L19 17L19 14L20 14L20 12L21 12L21 10L20 10L20 9L21 9L21 8L20 8L20 9L19 9L19 8L16 8L16 10L17 10L17 11L15 11L15 9L14 9L14 8L13 8L13 6L12 6L12 7L11 7L11 6L10 6L10 7L9 7L9 6ZM0 8L0 9L1 9L1 10L2 10L2 9L4 9L4 8ZM12 8L12 9L13 9L13 10L14 10L14 9L13 9L13 8ZM6 9L6 10L7 10L7 9ZM17 9L17 10L18 10L18 11L19 11L19 10L18 10L18 9ZM0 11L0 12L2 12L2 13L3 13L3 12L4 12L4 13L5 13L5 11ZM11 14L11 15L13 15L13 16L14 16L14 17L15 17L15 20L16 20L16 17L17 17L17 19L18 19L18 14L16 14L16 16L14 16L14 15L13 15L13 14ZM20 15L20 16L21 16L21 15ZM9 18L9 19L10 19L10 18ZM0 0L0 7L7 7L7 0ZM1 1L1 6L6 6L6 1ZM2 2L2 5L5 5L5 2ZM14 0L14 7L21 7L21 0ZM15 1L15 6L20 6L20 1ZM16 2L16 5L19 5L19 2ZM0 14L0 21L7 21L7 14ZM1 15L1 20L6 20L6 15ZM2 16L2 19L5 19L5 16Z" fill="#000000"/></g></g></svg>
